<svg width="200" height="300" viewBox="0 0 200 300" fill="none" xmlns="http://www.w3.org/2000/svg">
<rect width="200" height="300" rx="7" fill="#F8F3EA"/>
<path d="M61.5 258V242.5V235.833M61.5 235.833L59 242.5M61.5 235.833L64 242.5" stroke="#2A2A2F" stroke-width="1.66667" stroke-miterlimit="10" stroke-linecap="round" stroke-linejoin="round"/>
<path d="M106.5 258V242.5V235.833M106.5 235.833L104 242.5M106.5 235.833L109 242.5" stroke="#2A2A2F" stroke-width="1.66667" stroke-miterlimit="10" stroke-linecap="round" stroke-linejoin="round"/>
<path d="M61.2095 271.463H62.8288L63.9688 272.949L64.5067 273.61L66.3232 275.98H64.6399L63.4254 274.398L63.0099 273.823L61.2095 271.463ZM66.6747 269.546C66.6747 270.71 66.4616 271.712 66.0355 272.55C65.6094 273.384 65.0252 274.027 64.283 274.478C63.5444 274.925 62.7045 275.149 61.7635 275.149C60.8189 275.149 59.9755 274.925 59.2333 274.478C58.4947 274.027 57.9123 273.383 57.4862 272.544C57.06 271.706 56.8469 270.707 56.8469 269.546C56.8469 268.381 57.06 267.381 57.4862 266.547C57.9123 265.709 58.4947 265.066 59.2333 264.618C59.9755 264.167 60.8189 263.942 61.7635 263.942C62.7045 263.942 63.5444 264.167 64.283 264.618C65.0252 265.066 65.6094 265.709 66.0355 266.547C66.4616 267.381 66.6747 268.381 66.6747 269.546ZM65.0447 269.546C65.0447 268.658 64.9009 267.91 64.6133 267.303C64.3292 266.692 63.9386 266.231 63.4414 265.918C62.9478 265.602 62.3885 265.444 61.7635 265.444C61.1349 265.444 60.5739 265.602 60.0803 265.918C59.5866 266.231 59.196 266.692 58.9084 267.303C58.6243 267.91 58.4822 268.658 58.4822 269.546C58.4822 270.433 58.6243 271.183 58.9084 271.793C59.196 272.401 59.5866 272.862 60.0803 273.178C60.5739 273.491 61.1349 273.647 61.7635 273.647C62.3885 273.647 62.9478 273.491 63.4414 273.178C63.9386 272.862 64.3292 272.401 64.6133 271.793C64.9009 271.183 65.0447 270.433 65.0447 269.546Z" fill="#2A2A2F"/>
<path d="M103.199 275V264.091H104.844V269.3H104.978L109.553 264.091H111.625L107.225 269.002L111.641 275H109.66L106.134 270.126L104.844 271.607V275H103.199Z" fill="#2A2A2F"/>
<path d="M147.152 264.091L150.188 272.976H150.311L153.347 264.091H155.126L151.2 275H149.299L145.373 264.091H147.152Z" fill="#2A2A2F"/>
<path d="M32 213.167C32 209.853 34.6863 207.167 38 207.167H129.667C132.98 207.167 135.667 209.853 135.667 213.167V227.833C135.667 231.147 132.98 233.833 129.667 233.833H38C34.6863 233.833 32 231.147 32 227.833V213.167Z" fill="#7C6EAE" stroke="#2A2A2F" stroke-width="1.66667" stroke-miterlimit="10" stroke-linecap="round" stroke-linejoin="round"/>
<path d="M58.26 214.591H60.2575L63.7306 223.071H63.8584L67.3314 214.591H69.3289V225.5H67.7629V217.606H67.6617L64.4443 225.484H63.1446L59.9273 217.6H59.8261V225.5H58.26V214.591ZM73.9751 225.681C73.4567 225.681 72.9879 225.585 72.5689 225.393C72.1499 225.198 71.8178 224.916 71.5728 224.547C71.3313 224.177 71.2106 223.724 71.2106 223.188C71.2106 222.727 71.2994 222.347 71.4769 222.048C71.6545 221.75 71.8942 221.514 72.196 221.34C72.4979 221.166 72.8352 221.034 73.2081 220.946C73.581 220.857 73.9609 220.789 74.348 220.743C74.8381 220.686 75.2358 220.64 75.5412 220.605C75.8466 220.566 76.0685 220.504 76.207 220.418C76.3455 220.333 76.4148 220.195 76.4148 220.003V219.966C76.4148 219.5 76.2834 219.14 76.0206 218.884C75.7614 218.629 75.3743 218.501 74.8594 218.501C74.3232 218.501 73.9006 218.62 73.5916 218.858C73.2862 219.092 73.0749 219.353 72.9577 219.641L71.4609 219.3C71.6385 218.803 71.8977 218.401 72.2386 218.096C72.5831 217.787 72.979 217.563 73.4265 217.425C73.8739 217.283 74.3445 217.212 74.8381 217.212C75.1648 217.212 75.511 217.251 75.8768 217.329C76.2461 217.403 76.5906 217.542 76.9102 217.744C77.2333 217.947 77.4979 218.236 77.7038 218.613C77.9098 218.985 78.0128 219.47 78.0128 220.067V225.5H76.4574V224.381H76.3935C76.2905 224.587 76.136 224.79 75.93 224.989C75.7241 225.187 75.4595 225.353 75.1364 225.484C74.8132 225.615 74.4261 225.681 73.9751 225.681ZM74.3214 224.403C74.7617 224.403 75.1381 224.316 75.4506 224.142C75.7667 223.968 76.0064 223.74 76.1697 223.46C76.3366 223.176 76.4201 222.872 76.4201 222.549V221.494C76.3633 221.551 76.2532 221.604 76.0898 221.654C75.93 221.7 75.7472 221.741 75.5412 221.777C75.3352 221.809 75.1346 221.839 74.9393 221.867C74.744 221.892 74.5806 221.913 74.4492 221.931C74.1403 221.97 73.858 222.036 73.6023 222.128C73.3501 222.221 73.1477 222.354 72.995 222.528C72.8459 222.698 72.7713 222.925 72.7713 223.21C72.7713 223.604 72.9169 223.902 73.2081 224.104C73.4993 224.303 73.8704 224.403 74.3214 224.403ZM83.9534 217.318V218.597H79.4843V217.318H83.9534ZM80.6828 215.358H82.2755V223.098C82.2755 223.407 82.3216 223.639 82.414 223.795C82.5063 223.948 82.6253 224.053 82.7709 224.11C82.92 224.163 83.0816 224.19 83.2556 224.19C83.3834 224.19 83.4953 224.181 83.5912 224.163C83.6871 224.145 83.7616 224.131 83.8149 224.12L84.1025 225.436C84.0102 225.472 83.8788 225.507 83.7084 225.543C83.5379 225.582 83.3248 225.603 83.0692 225.607C82.6501 225.614 82.2595 225.539 81.8973 225.383C81.5351 225.227 81.2421 224.985 81.0184 224.658C80.7947 224.332 80.6828 223.922 80.6828 223.428V215.358ZM86.0188 214.591H88.0163L91.4893 223.071H91.6172L95.0902 214.591H97.0877V225.5H95.5217V217.606H95.4205L92.2031 225.484H90.9034L87.6861 217.6H87.5849V225.5H86.0188V214.591ZM104.536 222.107V217.318H106.134V225.5H104.568V224.083H104.483C104.294 224.52 103.992 224.884 103.577 225.175C103.165 225.463 102.652 225.607 102.038 225.607C101.512 225.607 101.047 225.491 100.642 225.26C100.241 225.026 99.9246 224.68 99.6938 224.222C99.4665 223.763 99.3529 223.197 99.3529 222.522V217.318H100.946V222.331C100.946 222.888 101.1 223.332 101.409 223.662C101.718 223.993 102.119 224.158 102.613 224.158C102.911 224.158 103.208 224.083 103.502 223.934C103.801 223.785 104.047 223.559 104.243 223.257C104.442 222.956 104.539 222.572 104.536 222.107ZM109.866 214.591V225.5H108.274V214.591H109.866Z" fill="#2A2A2F"/>
<path d="M83.5 195.5V202.167V207.667M83.5 195.5L81 202.167M83.5 195.5L86 202.167" stroke="#2A2A2F" stroke-width="1.66667" stroke-miterlimit="10" stroke-linejoin="round"/>
<path d="M64 45.1667C64 41.853 66.6863 39.1667 70 39.1667H161.667C164.98 39.1667 167.667 41.853 167.667 45.1667V59.8334C167.667 63.1471 164.98 65.8334 161.667 65.8334H70C66.6863 65.8334 64 63.1471 64 59.8334V45.1667Z" fill="#7C6EAE" stroke="#2A2A2F" stroke-width="1.66667" stroke-miterlimit="10" stroke-linecap="round" stroke-linejoin="round"/>
<path d="M90.26 46.5909H92.2575L95.7306 55.071H95.8584L99.3314 46.5909H101.329V57.5H99.7629V49.6058H99.6617L96.4443 57.484H95.1446L91.9273 49.6005H91.8261V57.5H90.26V46.5909ZM105.975 57.6811C105.457 57.6811 104.988 57.5852 104.569 57.3935C104.15 57.1982 103.818 56.9158 103.573 56.5465C103.331 56.1772 103.211 55.7244 103.211 55.1882C103.211 54.7266 103.299 54.3466 103.477 54.0483C103.654 53.75 103.894 53.5138 104.196 53.3398C104.498 53.1658 104.835 53.0344 105.208 52.9457C105.581 52.8569 105.961 52.7894 106.348 52.7433C106.838 52.6864 107.236 52.6403 107.541 52.6048C107.847 52.5657 108.069 52.5036 108.207 52.4183C108.346 52.3331 108.415 52.1946 108.415 52.0028V51.9656C108.415 51.5004 108.283 51.1399 108.021 50.8842C107.761 50.6286 107.374 50.5007 106.859 50.5007C106.323 50.5007 105.901 50.6197 105.592 50.8576C105.286 51.092 105.075 51.353 104.958 51.6406L103.461 51.2997C103.638 50.8026 103.898 50.4013 104.239 50.0959C104.583 49.7869 104.979 49.5632 105.426 49.4247C105.874 49.2827 106.344 49.2116 106.838 49.2116C107.165 49.2116 107.511 49.2507 107.877 49.3288C108.246 49.4034 108.591 49.5419 108.91 49.7443C109.233 49.9467 109.498 50.2362 109.704 50.6126C109.91 50.9854 110.013 51.4702 110.013 52.0668V57.5H108.457V56.3814H108.393C108.29 56.5874 108.136 56.7898 107.93 56.9886C107.724 57.1875 107.46 57.3526 107.136 57.484C106.813 57.6154 106.426 57.6811 105.975 57.6811ZM106.321 56.4027C106.762 56.4027 107.138 56.3157 107.451 56.1417C107.767 55.9677 108.006 55.7404 108.17 55.4599C108.337 55.1758 108.42 54.8722 108.42 54.549V53.4943C108.363 53.5511 108.253 53.6044 108.09 53.6541C107.93 53.7003 107.747 53.7411 107.541 53.7766C107.335 53.8086 107.135 53.8388 106.939 53.8672C106.744 53.892 106.581 53.9134 106.449 53.9311C106.14 53.9702 105.858 54.0359 105.602 54.1282C105.35 54.2205 105.148 54.3537 104.995 54.5277C104.846 54.6982 104.771 54.9254 104.771 55.2095C104.771 55.6037 104.917 55.902 105.208 56.1044C105.499 56.3033 105.87 56.4027 106.321 56.4027ZM115.953 49.3182V50.5966H111.484V49.3182H115.953ZM112.683 47.358H114.275V55.0977C114.275 55.4066 114.322 55.6392 114.414 55.7955C114.506 55.9482 114.625 56.0529 114.771 56.1097C114.92 56.163 115.082 56.1896 115.256 56.1896C115.383 56.1896 115.495 56.1808 115.591 56.163C115.687 56.1452 115.762 56.131 115.815 56.1204L116.103 57.4361C116.01 57.4716 115.879 57.5071 115.708 57.5426C115.538 57.5817 115.325 57.603 115.069 57.6065C114.65 57.6136 114.259 57.5391 113.897 57.3828C113.535 57.2266 113.242 56.9851 113.018 56.6584C112.795 56.3317 112.683 55.9215 112.683 55.4279V47.358ZM118.019 46.5909H120.016L123.489 55.071H123.617L127.09 46.5909H129.088V57.5H127.522V49.6058H127.42L124.203 57.484H122.903L119.686 49.6005H119.585V57.5H118.019V46.5909ZM136.536 54.1069V49.3182H138.134V57.5H136.568V56.0831H136.483C136.294 56.5199 135.992 56.8839 135.577 57.1751C135.165 57.4627 134.652 57.6065 134.038 57.6065C133.512 57.6065 133.047 57.4911 132.642 57.2603C132.241 57.0259 131.925 56.6797 131.694 56.2216C131.467 55.7635 131.353 55.1971 131.353 54.5224V49.3182H132.946V54.3306C132.946 54.8881 133.1 55.332 133.409 55.6623C133.718 55.9925 134.119 56.1577 134.613 56.1577C134.911 56.1577 135.208 56.0831 135.502 55.9339C135.801 55.7848 136.047 55.5593 136.243 55.2575C136.442 54.9556 136.539 54.5721 136.536 54.1069ZM141.866 46.5909V57.5H140.274V46.5909H141.866Z" fill="#2A2A2F"/>
<path d="M115.5 21L115.5 39" stroke="#2A2A2F" stroke-width="1.66667" stroke-miterlimit="10" stroke-linecap="round" stroke-dasharray="3.33 3.33"/>
<path d="M32 171.167C32 167.853 34.6863 165.167 38 165.167H129.667C132.98 165.167 135.667 167.853 135.667 171.167V185.833C135.667 189.147 132.98 191.833 129.667 191.833H38C34.6863 191.833 32 189.147 32 185.833V171.167Z" fill="#EABF52" stroke="#2A2A2F" stroke-width="1.66667" stroke-miterlimit="10" stroke-linecap="round" stroke-linejoin="round"/>
<path d="M71.5269 175.457C71.47 174.952 71.2357 174.562 70.8237 174.285C70.4118 174.004 69.8933 173.864 69.2683 173.864C68.8209 173.864 68.4338 173.935 68.1071 174.077C67.7804 174.216 67.5265 174.407 67.3454 174.652C67.1678 174.894 67.0791 175.169 67.0791 175.478C67.0791 175.737 67.1394 175.961 67.2602 176.149C67.3845 176.337 67.546 176.495 67.7449 176.623C67.9473 176.748 68.1639 176.852 68.3948 176.938C68.6256 177.019 68.8475 177.087 69.0606 177.14L70.1259 177.417C70.4739 177.502 70.8308 177.618 71.1966 177.763C71.5624 177.909 71.9015 178.1 72.214 178.338C72.5265 178.576 72.7786 178.871 72.9704 179.223C73.1657 179.574 73.2634 179.995 73.2634 180.485C73.2634 181.103 73.1036 181.652 72.784 182.131C72.4679 182.61 72.008 182.989 71.4043 183.266C70.8042 183.543 70.078 183.681 69.2257 183.681C68.409 183.681 67.7023 183.551 67.1057 183.292C66.5091 183.033 66.0421 182.665 65.7048 182.19C65.3674 181.71 65.181 181.142 65.1455 180.485H66.7967C66.8287 180.879 66.9565 181.208 67.1803 181.471C67.4075 181.73 67.697 181.923 68.0485 182.051C68.4036 182.175 68.7925 182.238 69.2151 182.238C69.6803 182.238 70.094 182.165 70.4562 182.019C70.822 181.87 71.1096 181.664 71.3191 181.401C71.5286 181.135 71.6334 180.824 71.6334 180.469C71.6334 180.146 71.5411 179.881 71.3564 179.675C71.1753 179.469 70.9285 179.299 70.616 179.164C70.307 179.029 69.9573 178.91 69.5666 178.807L68.2776 178.456C67.404 178.218 66.7115 177.868 66.2002 177.406C65.6923 176.945 65.4384 176.334 65.4384 175.574C65.4384 174.945 65.6089 174.397 65.9498 173.928C66.2907 173.459 66.7524 173.095 67.3347 172.836C67.9171 172.573 68.5741 172.442 69.3056 172.442C70.0443 172.442 70.6959 172.571 71.2605 172.831C71.8287 173.09 72.2761 173.447 72.6029 173.901C72.9296 174.352 73.1 174.871 73.1142 175.457H71.5269ZM78.5488 183.665C77.7569 183.665 77.0751 183.486 76.5033 183.127C75.9351 182.765 75.4984 182.266 75.193 181.63C74.8876 180.995 74.7349 180.267 74.7349 179.446C74.7349 178.615 74.8911 177.882 75.2036 177.246C75.5161 176.607 75.9565 176.108 76.5246 175.75C77.0928 175.391 77.7622 175.212 78.5328 175.212C79.1543 175.212 79.7082 175.327 80.1947 175.558C80.6812 175.785 81.0736 176.105 81.3719 176.517C81.6738 176.929 81.8531 177.41 81.9099 177.96H80.3599C80.2746 177.577 80.0793 177.246 79.7739 176.969C79.4721 176.692 79.0672 176.554 78.5594 176.554C78.1155 176.554 77.7267 176.671 77.3929 176.906C77.0626 177.136 76.8052 177.467 76.6205 177.896C76.4359 178.322 76.3435 178.827 76.3435 179.409C76.3435 180.006 76.4341 180.521 76.6152 180.954C76.7963 181.387 77.052 181.723 77.3822 181.961C77.716 182.199 78.1084 182.317 78.5594 182.317C78.8613 182.317 79.1347 182.262 79.3797 182.152C79.6283 182.039 79.8361 181.877 80.003 181.668C80.1734 181.458 80.2924 181.206 80.3599 180.911H81.9099C81.8531 181.44 81.6809 181.913 81.3932 182.328C81.1056 182.744 80.7203 183.07 80.2373 183.308C79.7579 183.546 79.1951 183.665 78.5488 183.665ZM85.9942 183.681C85.4757 183.681 85.007 183.585 84.5879 183.393C84.1689 183.198 83.8369 182.916 83.5918 182.547C83.3504 182.177 83.2296 181.724 83.2296 181.188C83.2296 180.727 83.3184 180.347 83.496 180.048C83.6735 179.75 83.9132 179.514 84.2151 179.34C84.5169 179.166 84.8543 179.034 85.2271 178.946C85.6 178.857 85.98 178.789 86.3671 178.743C86.8571 178.686 87.2548 178.64 87.5602 178.605C87.8656 178.566 88.0876 178.504 88.2261 178.418C88.3646 178.333 88.4338 178.195 88.4338 178.003V177.966C88.4338 177.5 88.3024 177.14 88.0396 176.884C87.7804 176.629 87.3933 176.501 86.8784 176.501C86.3422 176.501 85.9196 176.62 85.6107 176.858C85.3053 177.092 85.094 177.353 84.9768 177.641L83.48 177.3C83.6575 176.803 83.9168 176.401 84.2577 176.096C84.6021 175.787 84.9981 175.563 85.4455 175.425C85.893 175.283 86.3635 175.212 86.8571 175.212C87.1838 175.212 87.5301 175.251 87.8958 175.329C88.2651 175.403 88.6096 175.542 88.9292 175.744C89.2524 175.947 89.5169 176.236 89.7229 176.613C89.9288 176.985 90.0318 177.47 90.0318 178.067V183.5H88.4764V182.381H88.4125C88.3095 182.587 88.1551 182.79 87.9491 182.989C87.7431 183.187 87.4786 183.353 87.1554 183.484C86.8323 183.615 86.4452 183.681 85.9942 183.681ZM86.3404 182.403C86.7808 182.403 87.1572 182.316 87.4697 182.142C87.7857 181.968 88.0254 181.74 88.1888 181.46C88.3557 181.176 88.4391 180.872 88.4391 180.549V179.494C88.3823 179.551 88.2722 179.604 88.1089 179.654C87.9491 179.7 87.7662 179.741 87.5602 179.777C87.3543 179.809 87.1536 179.839 86.9583 179.867C86.763 179.892 86.5997 179.913 86.4683 179.931C86.1593 179.97 85.877 180.036 85.6213 180.128C85.3692 180.221 85.1668 180.354 85.0141 180.528C84.8649 180.698 84.7903 180.925 84.7903 181.21C84.7903 181.604 84.9359 181.902 85.2271 182.104C85.5183 182.303 85.8894 182.403 86.3404 182.403ZM93.7459 172.591V183.5H92.1532V172.591H93.7459ZM99.4148 183.665C98.6087 183.665 97.9145 183.493 97.3321 183.148C96.7532 182.8 96.3058 182.312 95.9897 181.684C95.6772 181.051 95.521 180.311 95.521 179.462C95.521 178.624 95.6772 177.886 95.9897 177.246C96.3058 176.607 96.7461 176.108 97.3108 175.75C97.879 175.391 98.543 175.212 99.303 175.212C99.7646 175.212 100.212 175.288 100.645 175.441C101.079 175.593 101.467 175.833 101.812 176.16C102.156 176.487 102.428 176.911 102.627 177.433C102.826 177.951 102.925 178.582 102.925 179.324V179.888H96.4212V178.695H101.364C101.364 178.276 101.279 177.905 101.109 177.582C100.938 177.255 100.699 176.998 100.39 176.81C100.084 176.621 99.7255 176.527 99.3136 176.527C98.8662 176.527 98.4755 176.637 98.1417 176.858C97.8115 177.074 97.5558 177.358 97.3747 177.71C97.1971 178.058 97.1084 178.436 97.1084 178.844V179.777C97.1084 180.324 97.2042 180.789 97.396 181.172C97.5913 181.556 97.863 181.849 98.211 182.051C98.559 182.25 98.9656 182.349 99.4308 182.349C99.7326 182.349 100.008 182.307 100.256 182.222C100.505 182.133 100.72 182.001 100.901 181.827C101.082 181.653 101.221 181.439 101.316 181.183L102.824 181.455C102.703 181.898 102.487 182.287 102.174 182.621C101.865 182.951 101.476 183.209 101.008 183.393C100.542 183.575 100.011 183.665 99.4148 183.665Z" fill="#2A2A2F"/>
<path d="M83.5 153.5V160.167V165.667M83.5 153.5L81 160.167M83.5 153.5L86 160.167" stroke="#2A2A2F" stroke-width="1.66667" stroke-miterlimit="10" stroke-linejoin="round"/>
<path d="M32 129.167C32 125.853 34.6863 123.167 38 123.167H129.667C132.98 123.167 135.667 125.853 135.667 129.167V143.833C135.667 147.147 132.98 149.833 129.667 149.833H38C34.6863 149.833 32 147.147 32 143.833V129.167Z" fill="#EC7262" stroke="#2A2A2F" stroke-width="1.66667" stroke-miterlimit="10" stroke-linecap="round" stroke-linejoin="round"/>
<path d="M44.3587 130.591H46.3562L49.8292 139.071H49.957L53.43 130.591H55.4276V141.5H53.8615V133.606H53.7603L50.543 141.484H49.2433L46.0259 133.6H45.9247V141.5H44.3587V130.591ZM60.0738 141.681C59.5553 141.681 59.0866 141.585 58.6675 141.393C58.2485 141.198 57.9165 140.916 57.6714 140.547C57.43 140.177 57.3092 139.724 57.3092 139.188C57.3092 138.727 57.398 138.347 57.5756 138.048C57.7531 137.75 57.9928 137.514 58.2947 137.34C58.5965 137.166 58.9339 137.034 59.3067 136.946C59.6796 136.857 60.0596 136.789 60.4466 136.743C60.9367 136.686 61.3344 136.64 61.6398 136.605C61.9452 136.566 62.1672 136.504 62.3057 136.418C62.4442 136.333 62.5134 136.195 62.5134 136.003V135.966C62.5134 135.5 62.382 135.14 62.1192 134.884C61.86 134.629 61.4729 134.501 60.958 134.501C60.4218 134.501 59.9992 134.62 59.6903 134.858C59.3849 135.092 59.1736 135.353 59.0564 135.641L57.5596 135.3C57.7371 134.803 57.9964 134.401 58.3373 134.096C58.6817 133.787 59.0777 133.563 59.5251 133.425C59.9726 133.283 60.4431 133.212 60.9367 133.212C61.2634 133.212 61.6096 133.251 61.9754 133.329C62.3447 133.403 62.6892 133.542 63.0088 133.744C63.3319 133.947 63.5965 134.236 63.8025 134.613C64.0084 134.985 64.1114 135.47 64.1114 136.067V141.5H62.556V140.381H62.4921C62.3891 140.587 62.2346 140.79 62.0287 140.989C61.8227 141.187 61.5581 141.353 61.235 141.484C60.9118 141.615 60.5248 141.681 60.0738 141.681ZM60.42 140.403C60.8604 140.403 61.2368 140.316 61.5493 140.142C61.8653 139.968 62.105 139.74 62.2684 139.46C62.4353 139.176 62.5187 138.872 62.5187 138.549V137.494C62.4619 137.551 62.3518 137.604 62.1885 137.654C62.0287 137.7 61.8458 137.741 61.6398 137.777C61.4339 137.809 61.2332 137.839 61.0379 137.867C60.8426 137.892 60.6792 137.913 60.5479 137.931C60.2389 137.97 59.9566 138.036 59.7009 138.128C59.4488 138.221 59.2464 138.354 59.0937 138.528C58.9445 138.698 58.8699 138.925 58.8699 139.21C58.8699 139.604 59.0155 139.902 59.3067 140.104C59.5979 140.303 59.969 140.403 60.42 140.403ZM72.3638 135.316L70.9203 135.571C70.8599 135.387 70.764 135.211 70.6326 135.044C70.5048 134.877 70.3308 134.74 70.1106 134.634C69.8904 134.527 69.6152 134.474 69.285 134.474C68.834 134.474 68.4576 134.575 68.1557 134.778C67.8539 134.977 67.7029 135.234 67.7029 135.55C67.7029 135.824 67.8042 136.044 68.0066 136.211C68.209 136.377 68.5357 136.514 68.9867 136.621L70.2864 136.919C71.0392 137.093 71.6003 137.361 71.9696 137.723C72.339 138.086 72.5236 138.556 72.5236 139.135C72.5236 139.625 72.3816 140.062 72.0975 140.445C71.8169 140.825 71.4245 141.124 70.9203 141.34C70.4196 141.557 69.839 141.665 69.1784 141.665C68.2623 141.665 67.5147 141.47 66.9359 141.079C66.3571 140.685 66.002 140.126 65.8706 139.401L67.41 139.167C67.5059 139.568 67.7029 139.872 68.0012 140.078C68.2995 140.28 68.6884 140.381 69.1678 140.381C69.6898 140.381 70.1071 140.273 70.4196 140.056C70.7321 139.836 70.8883 139.568 70.8883 139.252C70.8883 138.996 70.7924 138.782 70.6007 138.608C70.4125 138.434 70.123 138.302 69.7324 138.213L68.3475 137.91C67.584 137.736 67.0194 137.459 66.6536 137.079C66.2914 136.699 66.1103 136.218 66.1103 135.635C66.1103 135.152 66.2452 134.73 66.5151 134.368C66.785 134.005 67.1578 133.723 67.6337 133.521C68.1096 133.315 68.6547 133.212 69.269 133.212C70.1532 133.212 70.8493 133.403 71.3571 133.787C71.8649 134.167 72.2005 134.676 72.3638 135.316ZM75.7396 138.725L75.729 136.781H76.0059L79.2659 133.318H81.1729L77.4548 137.26H77.2045L75.7396 138.725ZM74.2748 141.5V130.591H75.8675V141.5H74.2748ZM79.4417 141.5L76.512 137.612L77.6093 136.498L81.3966 141.5H79.4417ZM87.0575 136.972C87.0575 135.637 87.2333 134.408 87.5849 133.286C87.9364 132.164 88.4496 131.129 89.1243 130.181H90.5838C90.321 130.532 90.076 130.964 89.8487 131.475C89.6214 131.987 89.4226 132.548 89.2521 133.158C89.0817 133.766 88.9485 134.396 88.8526 135.049C88.7567 135.699 88.7088 136.34 88.7088 136.972C88.7088 137.817 88.7923 138.673 88.9592 139.54C89.1261 140.406 89.3516 141.211 89.6357 141.953C89.9197 142.695 90.2358 143.3 90.5838 143.769H89.1243C88.4496 142.821 87.9364 141.786 87.5849 140.664C87.2333 139.542 87.0575 138.311 87.0575 136.972ZM95.5629 141.665C94.7959 141.665 94.1265 141.489 93.5548 141.138C92.983 140.786 92.5392 140.294 92.2231 139.662C91.907 139.03 91.749 138.292 91.749 137.446C91.749 136.598 91.907 135.855 92.2231 135.22C92.5392 134.584 92.983 134.091 93.5548 133.739C94.1265 133.387 94.7959 133.212 95.5629 133.212C96.33 133.212 96.9994 133.387 97.5711 133.739C98.1428 134.091 98.5867 134.584 98.9028 135.22C99.2188 135.855 99.3769 136.598 99.3769 137.446C99.3769 138.292 99.2188 139.03 98.9028 139.662C98.5867 140.294 98.1428 140.786 97.5711 141.138C96.9994 141.489 96.33 141.665 95.5629 141.665ZM95.5683 140.328C96.0654 140.328 96.4774 140.197 96.8041 139.934C97.1308 139.671 97.3722 139.321 97.5285 138.885C97.6883 138.448 97.7682 137.967 97.7682 137.441C97.7682 136.919 97.6883 136.44 97.5285 136.003C97.3722 135.562 97.1308 135.209 96.8041 134.943C96.4774 134.676 96.0654 134.543 95.5683 134.543C95.0676 134.543 94.6521 134.676 94.3218 134.943C93.9951 135.209 93.7519 135.562 93.5921 136.003C93.4358 136.44 93.3577 136.919 93.3577 137.441C93.3577 137.967 93.4358 138.448 93.5921 138.885C93.7519 139.321 93.9951 139.671 94.3218 139.934C94.6521 140.197 95.0676 140.328 95.5683 140.328ZM101.155 144.568V133.318H102.71V134.645H102.843C102.936 134.474 103.069 134.277 103.243 134.053C103.417 133.83 103.658 133.634 103.967 133.467C104.276 133.297 104.684 133.212 105.192 133.212C105.853 133.212 106.442 133.379 106.961 133.712C107.479 134.046 107.886 134.527 108.181 135.156C108.479 135.784 108.628 136.541 108.628 137.425C108.628 138.309 108.481 139.067 108.186 139.7C107.891 140.328 107.486 140.813 106.971 141.154C106.456 141.491 105.869 141.66 105.208 141.66C104.711 141.66 104.305 141.576 103.988 141.409C103.676 141.243 103.431 141.047 103.253 140.824C103.076 140.6 102.939 140.401 102.843 140.227H102.747V144.568H101.155ZM102.715 137.409C102.715 137.984 102.799 138.489 102.966 138.922C103.133 139.355 103.374 139.694 103.69 139.939C104.006 140.181 104.393 140.301 104.851 140.301C105.327 140.301 105.725 140.175 106.045 139.923C106.364 139.668 106.606 139.321 106.769 138.885C106.936 138.448 107.019 137.956 107.019 137.409C107.019 136.869 106.938 136.385 106.774 135.955C106.615 135.525 106.373 135.186 106.05 134.938C105.73 134.689 105.331 134.565 104.851 134.565C104.39 134.565 103.999 134.684 103.68 134.922C103.363 135.159 103.124 135.491 102.96 135.918C102.797 136.344 102.715 136.841 102.715 137.409ZM114.232 133.318V134.597H109.763V133.318H114.232ZM110.961 131.358H112.554V139.098C112.554 139.407 112.6 139.639 112.692 139.795C112.785 139.948 112.904 140.053 113.049 140.11C113.198 140.163 113.36 140.19 113.534 140.19C113.662 140.19 113.774 140.181 113.869 140.163C113.965 140.145 114.04 140.131 114.093 140.12L114.381 141.436C114.289 141.472 114.157 141.507 113.987 141.543C113.816 141.582 113.603 141.603 113.347 141.607C112.928 141.614 112.538 141.539 112.176 141.383C111.813 141.227 111.52 140.985 111.297 140.658C111.073 140.332 110.961 139.922 110.961 139.428V131.358ZM117.043 141.601C116.752 141.601 116.501 141.498 116.292 141.292C116.082 141.083 115.978 140.831 115.978 140.536C115.978 140.245 116.082 139.996 116.292 139.79C116.501 139.581 116.752 139.476 117.043 139.476C117.334 139.476 117.584 139.581 117.794 139.79C118.003 139.996 118.108 140.245 118.108 140.536C118.108 140.731 118.059 140.911 117.959 141.074C117.863 141.234 117.735 141.362 117.576 141.457C117.416 141.553 117.238 141.601 117.043 141.601ZM123.304 136.972C123.304 138.311 123.129 139.542 122.777 140.664C122.426 141.786 121.912 142.821 121.238 143.769H119.778C120.041 143.418 120.286 142.986 120.513 142.475C120.741 141.963 120.939 141.404 121.11 140.797C121.28 140.186 121.413 139.554 121.509 138.901C121.605 138.247 121.653 137.604 121.653 136.972C121.653 136.131 121.57 135.277 121.403 134.41C121.236 133.544 121.01 132.739 120.726 131.997C120.442 131.255 120.126 130.65 119.778 130.181H121.238C121.912 131.129 122.426 132.164 122.777 133.286C123.129 134.408 123.304 135.637 123.304 136.972Z" fill="#2A2A2F"/>
<path d="M83.5 111.5V118.167V123.667M83.5 111.5L81 118.167M83.5 111.5L86 118.167" stroke="#2A2A2F" stroke-width="1.66667" stroke-miterlimit="10" stroke-linejoin="round"/>
<path d="M32 87.1667C32 83.853 34.6863 81.1667 38 81.1667H129.667C132.98 81.1667 135.667 83.853 135.667 87.1667V101.833C135.667 105.147 132.98 107.833 129.667 107.833H38C34.6863 107.833 32 105.147 32 101.833V87.1667Z" fill="#6ABC63" stroke="#2A2A2F" stroke-width="1.66667" stroke-miterlimit="10" stroke-linecap="round" stroke-linejoin="round"/>
<path d="M61.2144 91.4567C61.1575 90.9524 60.9232 90.5618 60.5112 90.2848C60.0993 90.0043 59.5808 89.864 58.9558 89.864C58.5084 89.864 58.1213 89.935 57.7946 90.0771C57.4679 90.2156 57.214 90.4073 57.0329 90.6523C56.8553 90.8938 56.7666 91.169 56.7666 91.478C56.7666 91.7372 56.8269 91.9609 56.9477 92.1491C57.072 92.3374 57.2335 92.4954 57.4324 92.6232C57.6348 92.7475 57.8514 92.8523 58.0823 92.9375C58.3131 93.0192 58.535 93.0866 58.7481 93.1399L59.8134 93.4169C60.1614 93.5021 60.5183 93.6175 60.8841 93.7631C61.2499 93.9087 61.589 94.1005 61.9015 94.3384C62.214 94.5763 62.4661 94.8711 62.6579 95.2227C62.8532 95.5742 62.9509 95.995 62.9509 96.4851C62.9509 97.103 62.7911 97.6516 62.4715 98.131C62.1554 98.6104 61.6955 98.9886 61.0918 99.2656C60.4917 99.5426 59.7655 99.6811 58.9132 99.6811C58.0965 99.6811 57.3898 99.5515 56.7932 99.2923C56.1966 99.033 55.7296 98.6655 55.3923 98.1896C55.0549 97.7102 54.8685 97.142 54.833 96.4851H56.4842C56.5162 96.8793 56.644 97.2077 56.8678 97.4705C57.095 97.7298 57.3845 97.9233 57.736 98.0511C58.0911 98.1754 58.48 98.2376 58.9026 98.2376C59.3678 98.2376 59.7815 98.1648 60.1437 98.0192C60.5095 97.87 60.7971 97.6641 61.0066 97.4013C61.2161 97.1349 61.3209 96.8242 61.3209 96.4691C61.3209 96.146 61.2286 95.8814 61.0439 95.6754C60.8628 95.4695 60.616 95.299 60.3035 95.1641C59.9945 95.0291 59.6448 94.9102 59.2541 94.8072L57.9651 94.4556C57.0915 94.2177 56.399 93.8679 55.8877 93.4062C55.3798 92.9446 55.1259 92.3338 55.1259 91.5739C55.1259 90.9453 55.2964 90.3967 55.6373 89.9279C55.9782 89.4592 56.4399 89.0952 57.0222 88.8359C57.6046 88.5732 58.2616 88.4418 58.9931 88.4418C59.7318 88.4418 60.3834 88.5714 60.948 88.8306C61.5162 89.0898 61.9636 89.4467 62.2904 89.9013C62.6171 90.3523 62.7875 90.8707 62.8017 91.4567H61.2144ZM68.2363 99.6651C67.4692 99.6651 66.7998 99.4893 66.2281 99.1378C65.6564 98.7862 65.2125 98.2944 64.8964 97.6623C64.5804 97.0302 64.4224 96.2915 64.4224 95.4464C64.4224 94.5977 64.5804 93.8555 64.8964 93.2198C65.2125 92.5842 65.6564 92.0906 66.2281 91.739C66.7998 91.3874 67.4692 91.2116 68.2363 91.2116C69.0033 91.2116 69.6727 91.3874 70.2445 91.739C70.8162 92.0906 71.2601 92.5842 71.5761 93.2198C71.8922 93.8555 72.0502 94.5977 72.0502 95.4464C72.0502 96.2915 71.8922 97.0302 71.5761 97.6623C71.2601 98.2944 70.8162 98.7862 70.2445 99.1378C69.6727 99.4893 69.0033 99.6651 68.2363 99.6651ZM68.2416 98.3281C68.7388 98.3281 69.1507 98.1967 69.4774 97.9339C69.8041 97.6712 70.0456 97.3214 70.2018 96.8846C70.3616 96.4478 70.4415 95.9666 70.4415 95.4411C70.4415 94.919 70.3616 94.4396 70.2018 94.0028C70.0456 93.5625 69.8041 93.2092 69.4774 92.9428C69.1507 92.6765 68.7388 92.5433 68.2416 92.5433C67.7409 92.5433 67.3254 92.6765 66.9952 92.9428C66.6685 93.2092 66.4252 93.5625 66.2654 94.0028C66.1092 94.4396 66.031 94.919 66.031 95.4411C66.031 95.9666 66.1092 96.4478 66.2654 96.8846C66.4252 97.3214 66.6685 97.6712 66.9952 97.9339C67.3254 98.1967 67.7409 98.3281 68.2416 98.3281ZM77.7218 91.3182V92.5966H73.0982V91.3182H77.7218ZM74.366 99.5V90.37C74.366 89.8587 74.4778 89.4343 74.7016 89.0969C74.9253 88.756 75.2218 88.5021 75.5911 88.3352C75.9604 88.1648 76.3617 88.0795 76.795 88.0795C77.1146 88.0795 77.388 88.1062 77.6153 88.1594C77.8426 88.2092 78.0112 88.2553 78.1213 88.2979L77.7484 89.587C77.6739 89.5657 77.578 89.5408 77.4608 89.5124C77.3436 89.4805 77.2016 89.4645 77.0347 89.4645C76.6476 89.4645 76.3706 89.5604 76.2037 89.7521C76.0403 89.9439 75.9587 90.2209 75.9587 90.5831V99.5H74.366ZM83.1843 91.3182V92.5966H78.7152V91.3182H83.1843ZM79.9138 89.358H81.5064V97.0977C81.5064 97.4066 81.5526 97.6392 81.6449 97.7955C81.7373 97.9482 81.8562 98.0529 82.0018 98.1097C82.151 98.163 82.3125 98.1896 82.4866 98.1896C82.6144 98.1896 82.7263 98.1808 82.8221 98.163C82.918 98.1452 82.9926 98.131 83.0459 98.1204L83.3335 99.4361C83.2412 99.4716 83.1098 99.5071 82.9393 99.5426C82.7689 99.5817 82.5558 99.603 82.3001 99.6065C81.8811 99.6136 81.4905 99.5391 81.1282 99.3828C80.766 99.2266 80.4731 98.9851 80.2493 98.6584C80.0256 98.3317 79.9138 97.9215 79.9138 97.4279V89.358ZM84.9462 99.5V91.3182H86.4749V92.6499H86.5761C86.7466 92.1989 87.0253 91.8473 87.4124 91.5952C87.7995 91.3395 88.2629 91.2116 88.8027 91.2116C89.3496 91.2116 89.8077 91.3395 90.177 91.5952C90.5498 91.8509 90.8251 92.2024 91.0026 92.6499H91.0878C91.2832 92.2131 91.5939 91.8651 92.02 91.6058C92.4462 91.343 92.954 91.2116 93.5435 91.2116C94.2856 91.2116 94.8911 91.4442 95.3599 91.9094C95.8322 92.3746 96.0683 93.076 96.0683 94.0135V99.5H94.4756V94.1626C94.4756 93.6087 94.3247 93.2074 94.0229 92.9588C93.721 92.7102 93.3606 92.5859 92.9415 92.5859C92.4231 92.5859 92.02 92.7457 91.7324 93.0653C91.4447 93.3814 91.3009 93.788 91.3009 94.2852V99.5H89.7136V94.0614C89.7136 93.6175 89.5751 93.2607 89.2981 92.9908C89.0211 92.7209 88.6606 92.5859 88.2168 92.5859C87.9149 92.5859 87.6361 92.6658 87.3805 92.8256C87.1283 92.9819 86.9241 93.2003 86.7679 93.4808C86.6152 93.7614 86.5388 94.0863 86.5388 94.4556V99.5H84.9462ZM100.584 99.6811C100.066 99.6811 99.5968 99.5852 99.1778 99.3935C98.7587 99.1982 98.4267 98.9158 98.1817 98.5465C97.9402 98.1772 97.8195 97.7244 97.8195 97.1882C97.8195 96.7266 97.9082 96.3466 98.0858 96.0483C98.2634 95.75 98.5031 95.5138 98.8049 95.3398C99.1068 95.1658 99.4441 95.0344 99.817 94.9457C100.19 94.8569 100.57 94.7894 100.957 94.7433C101.447 94.6864 101.845 94.6403 102.15 94.6048C102.455 94.5657 102.677 94.5036 102.816 94.4183C102.954 94.3331 103.024 94.1946 103.024 94.0028V93.9656C103.024 93.5004 102.892 93.1399 102.629 92.8842C102.37 92.6286 101.983 92.5007 101.468 92.5007C100.932 92.5007 100.509 92.6197 100.201 92.8576C99.8951 93.092 99.6838 93.353 99.5666 93.6406L98.0698 93.2997C98.2474 92.8026 98.5066 92.4013 98.8475 92.0959C99.192 91.7869 99.5879 91.5632 100.035 91.4247C100.483 91.2827 100.953 91.2116 101.447 91.2116C101.774 91.2116 102.12 91.2507 102.486 91.3288C102.855 91.4034 103.199 91.5419 103.519 91.7443C103.842 91.9467 104.107 92.2362 104.313 92.6126C104.519 92.9854 104.622 93.4702 104.622 94.0668V99.5H103.066V98.3814H103.002C102.899 98.5874 102.745 98.7898 102.539 98.9886C102.333 99.1875 102.068 99.3526 101.745 99.484C101.422 99.6154 101.035 99.6811 100.584 99.6811ZM100.93 98.4027C101.371 98.4027 101.747 98.3157 102.06 98.1417C102.376 97.9677 102.615 97.7404 102.779 97.4599C102.946 97.1758 103.029 96.8722 103.029 96.549V95.4943C102.972 95.5511 102.862 95.6044 102.699 95.6541C102.539 95.7003 102.356 95.7411 102.15 95.7766C101.944 95.8086 101.743 95.8388 101.548 95.8672C101.353 95.892 101.189 95.9134 101.058 95.9311C100.749 95.9702 100.467 96.0359 100.211 96.1282C99.959 96.2205 99.7566 96.3537 99.6039 96.5277C99.4548 96.6982 99.3802 96.9254 99.3802 97.2095C99.3802 97.6037 99.5258 97.902 99.817 98.1044C100.108 98.3033 100.479 98.4027 100.93 98.4027ZM108 91.3182L109.806 94.5036L111.628 91.3182H113.369L110.818 95.4091L113.391 99.5H111.649L109.806 96.4425L107.968 99.5H106.221L108.767 95.4091L106.253 91.3182H108Z" fill="#2A2A2F"/>
<path d="M78.5 69.5V76.1667V81.6667M78.5 69.5L76 76.1667M78.5 69.5L81 76.1667" stroke="#2A2A2F" stroke-width="1.66667" stroke-miterlimit="10" stroke-linejoin="round"/>
<path d="M150.5 69.5V76.1667V258.5M150.5 69.5L148 76.1667M150.5 69.5L153 76.1667" stroke="#2A2A2F" stroke-width="1.66667" stroke-miterlimit="10" stroke-linecap="round" stroke-linejoin="round"/>
</svg>
