<svg width="300" height="500" viewBox="0 0 300 500" fill="none" xmlns="http://www.w3.org/2000/svg">
<rect width="300" height="500" rx="7" fill="#F8F3EA"/>
<path d="M93.7186 53.1667H228.073C235.437 53.1667 241.406 59.1406 241.406 66.5V418.833C241.406 426.198 235.437 432.167 228.073 432.167H93.7186C86.354 432.167 80.3853 426.198 80.3853 418.833V66.5C80.3853 59.1406 86.354 53.1667 93.7186 53.1667Z" stroke="#2A2A2F" stroke-width="1.66667" stroke-miterlimit="10" stroke-linecap="round" stroke-linejoin="round" stroke-dasharray="6.67 6.67"/>
<path d="M104.078 229.62C104.078 226.306 106.764 223.62 110.078 223.62H201.74C205.053 223.62 207.74 226.306 207.74 229.62V261.292C207.74 264.605 205.053 267.292 201.74 267.292H110.078C106.764 267.292 104.078 264.605 104.078 261.292V229.62Z" fill="#EABF52" stroke="#2A2A2F" stroke-width="1.66667" stroke-miterlimit="10" stroke-linecap="round" stroke-linejoin="round"/>
<path d="M104.078 186.109C104.078 182.796 106.764 180.109 110.078 180.109H201.74C205.053 180.109 207.74 182.796 207.74 186.109V200.776C207.74 204.09 205.053 206.776 201.74 206.776H110.078C106.764 206.776 104.078 204.09 104.078 200.776V186.109Z" fill="#EA9252" stroke="#2A2A2F" stroke-width="1.66667" stroke-miterlimit="10" stroke-linecap="round" stroke-linejoin="round"/>
<path d="M155.912 223.62V216.604" stroke="#2A2A2F" stroke-width="1.66667" stroke-miterlimit="10" stroke-linecap="round" stroke-linejoin="round"/>
<path d="M155.912 209.938V216.604M155.912 209.938L153.412 216.604M155.912 209.938L158.412 216.604" stroke="#2A2A2F" stroke-width="1.66667" stroke-miterlimit="10" stroke-linejoin="round"/>
<path d="M103.745 117.115C103.745 113.801 106.431 111.115 109.745 111.115H201.411C204.725 111.115 207.411 113.801 207.411 117.115V148.776C207.411 152.09 204.725 154.776 201.411 154.776H109.745C106.431 154.776 103.745 152.09 103.745 148.776V117.115Z" fill="#70A8DB" stroke="#2A2A2F" stroke-width="1.66667" stroke-miterlimit="10" stroke-linecap="round" stroke-linejoin="round"/>
<path d="M103.484 73.1406C103.484 69.8269 106.171 67.1406 109.484 67.1406H201.151C204.465 67.1406 207.151 69.8269 207.151 73.1406V87.8073C207.151 91.121 204.465 93.8073 201.151 93.8073H109.484C106.171 93.8073 103.484 91.121 103.484 87.8073V73.1406Z" fill="#EA9252" stroke="#2A2A2F" stroke-width="1.66667" stroke-miterlimit="10" stroke-linecap="round" stroke-linejoin="round"/>
<path d="M155.833 180.109L155.75 164.615" stroke="#2A2A2F" stroke-width="1.66667" stroke-miterlimit="10" stroke-linecap="round" stroke-linejoin="round"/>
<path d="M155.719 157.948L155.75 164.615M155.719 157.948L153.25 164.625M155.719 157.948L158.25 164.594" stroke="#2A2A2F" stroke-width="1.66667" stroke-miterlimit="10" stroke-linejoin="round"/>
<path d="M155.469 111.115L155.432 103.635" stroke="#2A2A2F" stroke-width="1.66667" stroke-miterlimit="10" stroke-linecap="round" stroke-linejoin="round"/>
<path d="M155.396 96.9688L155.432 103.635M155.396 96.9688L152.932 103.651M155.396 96.9688L157.932 103.625" stroke="#2A2A2F" stroke-width="1.66667" stroke-miterlimit="10" stroke-linejoin="round"/>
<path d="M59 284.573L70 284.573L120 284.573C123.682 284.573 128.817 281.589 128.817 277.906V277.323M115.5 284.573H149.089C152.688 284.552 155.417 281.474 155.505 277.87L155.521 277.104" stroke="#2A2A2F" stroke-width="1.66667" stroke-miterlimit="10" stroke-linecap="round" stroke-linejoin="round"/>
<path d="M33 284.573L53 284.573" stroke="#2A2A2F" stroke-width="1.66667" stroke-miterlimit="10" stroke-linecap="round" stroke-linejoin="round" stroke-dasharray="3.33 3.33"/>
<path d="M128.818 270.656V277.323M128.818 270.656L126.318 277.323M128.818 270.656L131.318 277.323" stroke="#2A2A2F" stroke-width="1.66667" stroke-miterlimit="10" stroke-linejoin="round"/>
<path d="M103.484 345.776C103.484 342.462 106.171 339.776 109.484 339.776H201.151C204.465 339.776 207.151 342.462 207.151 345.776V394.146C207.151 397.46 204.465 400.146 201.151 400.146H109.484C106.171 400.146 103.484 397.46 103.484 394.146V345.776Z" fill="#EABF52" stroke="#2A2A2F" stroke-width="1.66667" stroke-miterlimit="10" stroke-linecap="round" stroke-linejoin="round"/>
<path d="M103.484 303.781C103.484 300.468 106.171 297.781 109.484 297.781H201.151C204.465 297.781 207.151 300.468 207.151 303.781V318.448C207.151 321.762 204.465 324.448 201.151 324.448H109.484C106.171 324.448 103.484 321.762 103.484 318.448V303.781Z" fill="#EA9252" stroke="#2A2A2F" stroke-width="1.66667" stroke-miterlimit="10" stroke-linecap="round" stroke-linejoin="round"/>
<path d="M155.323 452.667V409.979" stroke="#2A2A2F" stroke-width="1.66667" stroke-miterlimit="10" stroke-linecap="round" stroke-linejoin="round"/>
<path d="M155.323 479V459" stroke="#2A2A2F" stroke-width="1.66667" stroke-miterlimit="10" stroke-linecap="round" stroke-linejoin="round" stroke-dasharray="3.33 3.33"/>
<path d="M155.323 403.312V409.979M155.323 403.312L152.823 409.979M155.323 403.312L157.823 409.979" stroke="#2A2A2F" stroke-width="1.66667" stroke-miterlimit="10" stroke-linejoin="round"/>
<path d="M155.323 339.776V334.276" stroke="#2A2A2F" stroke-width="1.66667" stroke-miterlimit="10" stroke-linecap="round" stroke-linejoin="round"/>
<path d="M155.323 327.609V334.276M155.323 327.609L152.823 334.276M155.323 327.609L157.823 334.276" stroke="#2A2A2F" stroke-width="1.66667" stroke-miterlimit="10" stroke-linejoin="round"/>
<path d="M170.583 418.458H218.938C222.615 418.458 225.589 415.495 225.604 411.823L226.016 316.411C226.037 312.734 223.063 309.729 219.386 309.719C219.323 309.719 219.266 309.719 219.208 309.719L216.99 309.766" stroke="#2A2A2F" stroke-width="1.66667" stroke-miterlimit="10" stroke-linecap="round" stroke-linejoin="round"/>
<path d="M210.323 309.917L216.989 309.766M210.323 309.917L217.042 312.266M210.323 309.917L216.927 307.271" stroke="#2A2A2F" stroke-width="1.66667" stroke-miterlimit="10" stroke-linejoin="round"/>
<path d="M155.656 418.458H175.656C179.344 418.458 182.323 415.474 182.323 411.792V409.979" stroke="#2A2A2F" stroke-width="1.66667" stroke-miterlimit="10" stroke-linecap="round" stroke-linejoin="round"/>
<path d="M182.323 403.312V409.979M182.323 403.312L179.823 409.979M182.323 403.312L184.823 409.979" stroke="#2A2A2F" stroke-width="1.66667" stroke-miterlimit="10" stroke-linejoin="round"/>
<path d="M155.656 418.458H135.495C131.813 418.458 128.828 415.474 128.828 411.792V409.979" stroke="#2A2A2F" stroke-width="1.66667" stroke-miterlimit="10" stroke-linecap="round" stroke-linejoin="round"/>
<path d="M128.828 403.312V409.979M128.828 403.312L126.328 409.979M128.828 403.312L131.328 409.979" stroke="#2A2A2F" stroke-width="1.66667" stroke-miterlimit="10" stroke-linejoin="round"/>
<path d="M155.49 297.781L155.589 290.188C155.625 287.448 157.854 285.25 160.589 285.25H176.943C179.656 285.25 181.875 283.083 181.943 280.365L182.011 277.12" stroke="#2A2A2F" stroke-width="1.66667" stroke-miterlimit="10" stroke-linecap="round" stroke-linejoin="round"/>
<path d="M182.167 270.453L182.01 277.12M182.167 270.453L179.51 277.063M182.167 270.453L184.51 277.177" stroke="#2A2A2F" stroke-width="1.66667" stroke-miterlimit="10" stroke-linejoin="round"/>
<path d="M155.667 270.453L155.5 277.12M155.667 270.453L153 277.057M155.667 270.453L158 277.177" stroke="#2A2A2F" stroke-width="1.66667" stroke-miterlimit="10" stroke-linejoin="round"/>
<path d="M160.588 285.25L219.161 284.812C222.828 284.776 225.781 281.797 225.776 278.13L225.677 197.693C225.672 194.016 222.682 191.031 219 191.042C218.922 191.042 218.833 191.042 218.75 191.042L217.568 191.083" stroke="#2A2A2F" stroke-width="1.66667" stroke-miterlimit="10" stroke-linecap="round" stroke-linejoin="round"/>
<path d="M210.906 191.339L217.568 191.083M210.906 191.339L217.667 193.583M210.906 191.339L217.474 188.583" stroke="#2A2A2F" stroke-width="1.66667" stroke-miterlimit="10" stroke-linejoin="round"/>
<path d="M156.578 169.917H218.5C222.182 169.917 225.167 166.927 225.167 163.25V81.6406C225.167 77.9531 222.182 74.974 218.5 74.974C218.307 74.974 218.115 74.9792 217.917 75L216.948 75.0833" stroke="#2A2A2F" stroke-width="1.66667" stroke-miterlimit="10" stroke-linecap="round" stroke-linejoin="round"/>
<path d="M210.307 75.6615L216.948 75.0833M210.307 75.6615L217.166 77.5729M210.307 75.6615L216.734 72.5886" stroke="#2A2A2F" stroke-width="1.66667" stroke-miterlimit="10" stroke-linejoin="round"/>
<path d="M155.463 67.1406V48" stroke="#2A2A2F" stroke-width="1.66667" stroke-miterlimit="10" stroke-linecap="round" stroke-linejoin="round"/>
<path d="M155.463 41.1406V22" stroke="#2A2A2F" stroke-width="1.66667" stroke-miterlimit="10" stroke-linecap="round" stroke-linejoin="round" stroke-dasharray="3.33 3.33"/>
<path d="M111.089 128.833V117.924H114.978C115.826 117.924 116.529 118.079 117.087 118.388C117.645 118.697 118.062 119.119 118.339 119.655C118.616 120.188 118.754 120.788 118.754 121.456C118.754 122.127 118.614 122.731 118.333 123.267C118.056 123.8 117.637 124.222 117.076 124.535C116.519 124.844 115.817 124.998 114.972 124.998H112.298V123.603H114.823C115.359 123.603 115.794 123.51 116.128 123.326C116.462 123.137 116.707 122.882 116.863 122.559C117.02 122.235 117.098 121.868 117.098 121.456C117.098 121.044 117.02 120.678 116.863 120.359C116.707 120.039 116.46 119.789 116.123 119.608C115.789 119.426 115.349 119.336 114.802 119.336H112.735V128.833H111.089ZM123.9 128.998C123.133 128.998 122.463 128.823 121.892 128.471C121.32 128.12 120.876 127.628 120.56 126.996C120.244 126.364 120.086 125.625 120.086 124.78C120.086 123.931 120.244 123.189 120.56 122.553C120.876 121.918 121.32 121.424 121.892 121.072C122.463 120.721 123.133 120.545 123.9 120.545C124.667 120.545 125.336 120.721 125.908 121.072C126.48 121.424 126.924 121.918 127.24 122.553C127.556 123.189 127.714 123.931 127.714 124.78C127.714 125.625 127.556 126.364 127.24 126.996C126.924 127.628 126.48 128.12 125.908 128.471C125.336 128.823 124.667 128.998 123.9 128.998ZM123.905 127.661C124.402 127.661 124.814 127.53 125.141 127.267C125.468 127.005 125.709 126.655 125.865 126.218C126.025 125.781 126.105 125.3 126.105 124.774C126.105 124.252 126.025 123.773 125.865 123.336C125.709 122.896 125.468 122.543 125.141 122.276C124.814 122.01 124.402 121.877 123.905 121.877C123.404 121.877 122.989 122.01 122.659 122.276C122.332 122.543 122.089 122.896 121.929 123.336C121.773 123.773 121.695 124.252 121.695 124.774C121.695 125.3 121.773 125.781 121.929 126.218C122.089 126.655 122.332 127.005 122.659 127.267C122.989 127.53 123.404 127.661 123.905 127.661ZM135.623 122.649L134.179 122.905C134.119 122.72 134.023 122.544 133.891 122.377C133.764 122.21 133.59 122.074 133.369 121.967C133.149 121.861 132.874 121.807 132.544 121.807C132.093 121.807 131.716 121.909 131.415 122.111C131.113 122.31 130.962 122.567 130.962 122.883C130.962 123.157 131.063 123.377 131.265 123.544C131.468 123.711 131.794 123.848 132.245 123.954L133.545 124.252C134.298 124.426 134.859 124.695 135.228 125.057C135.598 125.419 135.782 125.889 135.782 126.468C135.782 126.958 135.64 127.395 135.356 127.779C135.076 128.159 134.683 128.457 134.179 128.674C133.678 128.89 133.098 128.998 132.437 128.998C131.521 128.998 130.774 128.803 130.195 128.413C129.616 128.018 129.261 127.459 129.129 126.735L130.669 126.5C130.765 126.902 130.962 127.205 131.26 127.411C131.558 127.614 131.947 127.715 132.427 127.715C132.949 127.715 133.366 127.606 133.678 127.39C133.991 127.17 134.147 126.902 134.147 126.585C134.147 126.33 134.051 126.115 133.859 125.941C133.671 125.767 133.382 125.636 132.991 125.547L131.606 125.243C130.843 125.069 130.278 124.792 129.912 124.412C129.55 124.032 129.369 123.551 129.369 122.969C129.369 122.486 129.504 122.063 129.774 121.701C130.044 121.339 130.417 121.056 130.892 120.854C131.368 120.648 131.913 120.545 132.528 120.545C133.412 120.545 134.108 120.737 134.616 121.12C135.124 121.5 135.459 122.01 135.623 122.649ZM137.534 128.833V120.652H139.126V128.833H137.534ZM138.338 119.389C138.061 119.389 137.823 119.297 137.624 119.112C137.429 118.924 137.331 118.7 137.331 118.441C137.331 118.178 137.429 117.954 137.624 117.77C137.823 117.582 138.061 117.487 138.338 117.487C138.615 117.487 138.851 117.582 139.046 117.77C139.245 117.954 139.345 118.178 139.345 118.441C139.345 118.7 139.245 118.924 139.046 119.112C138.851 119.297 138.615 119.389 138.338 119.389ZM145.088 120.652V121.93H140.619V120.652H145.088ZM141.818 118.691H143.41V126.431C143.41 126.74 143.456 126.973 143.549 127.129C143.641 127.282 143.76 127.386 143.906 127.443C144.055 127.496 144.216 127.523 144.39 127.523C144.518 127.523 144.63 127.514 144.726 127.496C144.822 127.479 144.896 127.464 144.95 127.454L145.237 128.769C145.145 128.805 145.014 128.84 144.843 128.876C144.673 128.915 144.46 128.936 144.204 128.94C143.785 128.947 143.394 128.872 143.032 128.716C142.67 128.56 142.377 128.318 142.153 127.992C141.929 127.665 141.818 127.255 141.818 126.761V118.691ZM146.85 128.833V120.652H148.443V128.833H146.85ZM147.654 119.389C147.377 119.389 147.139 119.297 146.941 119.112C146.745 118.924 146.648 118.7 146.648 118.441C146.648 118.178 146.745 117.954 146.941 117.77C147.139 117.582 147.377 117.487 147.654 117.487C147.931 117.487 148.167 117.582 148.363 117.77C148.562 117.954 148.661 118.178 148.661 118.441C148.661 118.7 148.562 118.924 148.363 119.112C148.167 119.297 147.931 119.389 147.654 119.389ZM154.032 128.998C153.265 128.998 152.595 128.823 152.024 128.471C151.452 128.12 151.008 127.628 150.692 126.996C150.376 126.364 150.218 125.625 150.218 124.78C150.218 123.931 150.376 123.189 150.692 122.553C151.008 121.918 151.452 121.424 152.024 121.072C152.595 120.721 153.265 120.545 154.032 120.545C154.799 120.545 155.468 120.721 156.04 121.072C156.612 121.424 157.055 121.918 157.372 122.553C157.688 123.189 157.846 123.931 157.846 124.78C157.846 125.625 157.688 126.364 157.372 126.996C157.055 127.628 156.612 128.12 156.04 128.471C155.468 128.823 154.799 128.998 154.032 128.998ZM154.037 127.661C154.534 127.661 154.946 127.53 155.273 127.267C155.6 127.005 155.841 126.655 155.997 126.218C156.157 125.781 156.237 125.3 156.237 124.774C156.237 124.252 156.157 123.773 155.997 123.336C155.841 122.896 155.6 122.543 155.273 122.276C154.946 122.01 154.534 121.877 154.037 121.877C153.536 121.877 153.121 122.01 152.791 122.276C152.464 122.543 152.221 122.896 152.061 123.336C151.905 123.773 151.826 124.252 151.826 124.774C151.826 125.3 151.905 125.781 152.061 126.218C152.221 126.655 152.464 127.005 152.791 127.267C153.121 127.53 153.536 127.661 154.037 127.661ZM161.216 123.975V128.833H159.623V120.652H161.152V121.983H161.253C161.442 121.55 161.736 121.202 162.138 120.939C162.542 120.676 163.052 120.545 163.666 120.545C164.224 120.545 164.712 120.662 165.131 120.897C165.55 121.127 165.875 121.472 166.106 121.93C166.337 122.388 166.452 122.954 166.452 123.629V128.833H164.86V123.821C164.86 123.228 164.705 122.764 164.396 122.431C164.087 122.093 163.663 121.925 163.123 121.925C162.754 121.925 162.425 122.005 162.138 122.164C161.854 122.324 161.628 122.559 161.461 122.867C161.298 123.173 161.216 123.542 161.216 123.975ZM170.362 128.833L167.954 120.652H169.6L171.204 126.66H171.284L172.892 120.652H174.538L176.136 126.633H176.216L177.809 120.652H179.455L177.052 128.833H175.428L173.766 122.926H173.643L171.981 128.833H170.362ZM180.966 128.833V120.652H182.559V128.833H180.966ZM181.771 119.389C181.494 119.389 181.256 119.297 181.057 119.112C180.861 118.924 180.764 118.7 180.764 118.441C180.764 118.178 180.861 117.954 181.057 117.77C181.256 117.582 181.494 117.487 181.771 117.487C182.047 117.487 182.284 117.582 182.479 117.77C182.678 117.954 182.777 118.178 182.777 118.441C182.777 118.7 182.678 118.924 182.479 119.112C182.284 119.297 182.047 119.389 181.771 119.389ZM190.833 122.649L189.389 122.905C189.329 122.72 189.233 122.544 189.101 122.377C188.974 122.21 188.8 122.074 188.579 121.967C188.359 121.861 188.084 121.807 187.754 121.807C187.303 121.807 186.926 121.909 186.624 122.111C186.323 122.31 186.172 122.567 186.172 122.883C186.172 123.157 186.273 123.377 186.475 123.544C186.678 123.711 187.004 123.848 187.455 123.954L188.755 124.252C189.508 124.426 190.069 124.695 190.438 125.057C190.808 125.419 190.992 125.889 190.992 126.468C190.992 126.958 190.85 127.395 190.566 127.779C190.286 128.159 189.893 128.457 189.389 128.674C188.888 128.89 188.308 128.998 187.647 128.998C186.731 128.998 185.983 128.803 185.405 128.413C184.826 128.018 184.471 127.459 184.339 126.735L185.879 126.5C185.975 126.902 186.172 127.205 186.47 127.411C186.768 127.614 187.157 127.715 187.637 127.715C188.159 127.715 188.576 127.606 188.888 127.39C189.201 127.17 189.357 126.902 189.357 126.585C189.357 126.33 189.261 126.115 189.069 125.941C188.881 125.767 188.592 125.636 188.201 125.547L186.816 125.243C186.053 125.069 185.488 124.792 185.122 124.412C184.76 124.032 184.579 123.551 184.579 122.969C184.579 122.486 184.714 122.063 184.984 121.701C185.254 121.339 185.627 121.056 186.102 120.854C186.578 120.648 187.123 120.545 187.738 120.545C188.622 120.545 189.318 120.737 189.826 121.12C190.334 121.5 190.669 122.01 190.833 122.649ZM196.27 128.998C195.464 128.998 194.769 128.826 194.187 128.482C193.608 128.134 193.161 127.646 192.845 127.017C192.532 126.385 192.376 125.644 192.376 124.796C192.376 123.958 192.532 123.219 192.845 122.58C193.161 121.941 193.601 121.442 194.166 121.083C194.734 120.724 195.398 120.545 196.158 120.545C196.62 120.545 197.067 120.621 197.5 120.774C197.934 120.927 198.322 121.166 198.667 121.493C199.011 121.82 199.283 122.244 199.482 122.766C199.681 123.285 199.78 123.915 199.78 124.657V125.222H193.276V124.029H198.219C198.219 123.61 198.134 123.239 197.964 122.915C197.793 122.589 197.554 122.331 197.245 122.143C196.939 121.955 196.581 121.861 196.169 121.861C195.721 121.861 195.331 121.971 194.997 122.191C194.666 122.408 194.411 122.692 194.23 123.043C194.052 123.391 193.963 123.769 193.963 124.178V125.11C193.963 125.657 194.059 126.122 194.251 126.506C194.446 126.889 194.718 127.182 195.066 127.384C195.414 127.583 195.821 127.683 196.286 127.683C196.588 127.683 196.863 127.64 197.111 127.555C197.36 127.466 197.575 127.335 197.756 127.161C197.937 126.987 198.076 126.772 198.171 126.516L199.679 126.788C199.558 127.232 199.342 127.621 199.029 127.954C198.72 128.285 198.331 128.542 197.862 128.727C197.397 128.908 196.866 128.998 196.27 128.998ZM141.99 146.833V135.924H148.755V137.341H143.636V140.665H148.27V142.077H143.636V146.833H141.99ZM150.779 146.833V135.924H157.544V137.341H152.425V140.665H157.059V142.077H152.425V146.833H150.779ZM168.373 135.924V146.833H166.86L161.315 138.833H161.214V146.833H159.568V135.924H161.092L166.642 143.936H166.743V135.924H168.373Z" fill="#2A2A2F"/>
<path d="M115.804 85.8334H114.056L117.982 74.9243H119.884L123.81 85.8334H122.062L118.978 76.9058H118.893L115.804 85.8334ZM116.097 81.5614H121.764V82.9463H116.097V81.5614ZM128.188 85.9932C127.528 85.9932 126.938 85.8245 126.42 85.4871C125.905 85.1462 125.5 84.6615 125.205 84.0329C124.914 83.4008 124.768 82.6427 124.768 81.7584C124.768 80.8742 124.916 80.1178 125.211 79.4893C125.509 78.8607 125.917 78.3795 126.436 78.0457C126.954 77.7119 127.542 77.545 128.199 77.545C128.707 77.545 129.115 77.6302 129.424 77.8007C129.737 77.9676 129.978 78.1629 130.148 78.3866C130.322 78.6104 130.457 78.8075 130.553 78.9779H130.649V74.9243H132.242V85.8334H130.686V84.5603H130.553C130.457 84.7343 130.319 84.9332 130.138 85.1569C129.96 85.3806 129.715 85.5759 129.403 85.7428C129.09 85.9097 128.685 85.9932 128.188 85.9932ZM128.54 84.6349C128.998 84.6349 129.385 84.5141 129.701 84.2726C130.021 84.0276 130.262 83.6885 130.425 83.2552C130.592 82.822 130.676 82.3177 130.676 81.7425C130.676 81.1743 130.594 80.6771 130.431 80.251C130.267 79.8249 130.028 79.4928 129.712 79.2549C129.396 79.017 129.005 78.898 128.54 78.898C128.06 78.898 127.661 79.0223 127.341 79.2709C127.022 79.5195 126.78 79.8586 126.617 80.2883C126.457 80.718 126.377 81.2027 126.377 81.7425C126.377 82.2893 126.459 82.7812 126.622 83.218C126.786 83.6548 127.027 84.001 127.347 84.2567C127.67 84.5088 128.067 84.6349 128.54 84.6349ZM137.578 85.9932C136.917 85.9932 136.328 85.8245 135.809 85.4871C135.294 85.1462 134.89 84.6615 134.595 84.0329C134.304 83.4008 134.158 82.6427 134.158 81.7584C134.158 80.8742 134.305 80.1178 134.6 79.4893C134.899 78.8607 135.307 78.3795 135.825 78.0457C136.344 77.7119 136.932 77.545 137.589 77.545C138.096 77.545 138.505 77.6302 138.814 77.8007C139.126 77.9676 139.368 78.1629 139.538 78.3866C139.712 78.6104 139.847 78.8075 139.943 78.9779H140.039V74.9243H141.631V85.8334H140.076V84.5603H139.943C139.847 84.7343 139.709 84.9332 139.527 85.1569C139.35 85.3806 139.105 85.5759 138.792 85.7428C138.48 85.9097 138.075 85.9932 137.578 85.9932ZM137.929 84.6349C138.388 84.6349 138.775 84.5141 139.091 84.2726C139.41 84.0276 139.652 83.6885 139.815 83.2552C139.982 82.822 140.065 82.3177 140.065 81.7425C140.065 81.1743 139.984 80.6771 139.82 80.251C139.657 79.8249 139.417 79.4928 139.101 79.2549C138.785 79.017 138.395 78.898 137.929 78.898C137.45 78.898 137.051 79.0223 136.731 79.2709C136.411 79.5195 136.17 79.8586 136.006 80.2883C135.847 80.718 135.767 81.2027 135.767 81.7425C135.767 82.2893 135.848 82.7812 136.012 83.218C136.175 83.6548 136.417 84.001 136.736 84.2567C137.059 84.5088 137.457 84.6349 137.929 84.6349ZM151.049 85.9878C150.318 85.9878 149.687 85.8547 149.158 85.5883C148.633 85.322 148.228 84.9598 147.944 84.5017C147.66 84.0401 147.517 83.518 147.517 82.9356C147.517 82.4918 147.61 82.0976 147.794 81.7531C147.979 81.4051 148.237 81.0837 148.567 80.789C148.897 80.4942 149.279 80.1977 149.712 79.8994L151.47 78.6583C151.768 78.463 152.001 78.257 152.168 78.0404C152.335 77.8202 152.418 77.5486 152.418 77.2254C152.418 76.9697 152.308 76.7247 152.088 76.4903C151.868 76.256 151.573 76.1388 151.204 76.1388C150.948 76.1388 150.722 76.2009 150.527 76.3252C150.335 76.4495 150.184 76.6093 150.074 76.8046C149.968 76.9964 149.915 77.1988 149.915 77.4119C149.915 77.6604 149.982 77.9108 150.117 78.1629C150.255 78.415 150.433 78.6761 150.65 78.9459C150.866 79.2123 151.093 79.4893 151.331 79.7769L156.397 85.8334H154.597L150.405 80.9062C150.053 80.4907 149.726 80.1001 149.424 79.7343C149.123 79.365 148.878 78.9921 148.689 78.6157C148.505 78.2357 148.412 77.8256 148.412 77.3852C148.412 76.8845 148.526 76.4406 148.753 76.0535C148.984 75.6629 149.305 75.3575 149.717 75.1374C150.129 74.9172 150.612 74.8071 151.166 74.8071C151.727 74.8071 152.209 74.9172 152.61 75.1374C153.015 75.354 153.325 75.6434 153.542 76.0056C153.762 76.3643 153.872 76.7567 153.872 77.1828C153.872 77.7013 153.743 78.1594 153.483 78.5571C153.228 78.9513 152.874 79.3135 152.423 79.6437L150.234 81.2577C149.808 81.5702 149.511 81.8792 149.345 82.1846C149.181 82.4864 149.1 82.7226 149.1 82.893C149.1 83.2055 149.179 83.495 149.339 83.7613C149.503 84.0276 149.73 84.2407 150.021 84.4005C150.316 84.5603 150.66 84.6402 151.054 84.6402C151.459 84.6402 151.853 84.5532 152.237 84.3792C152.624 84.2016 152.974 83.9477 153.286 83.6175C153.602 83.2872 153.853 82.8913 154.037 82.4296C154.222 81.968 154.314 81.4513 154.314 80.8795H155.753C155.753 81.5827 155.673 82.1775 155.513 82.664C155.353 83.1469 155.16 83.5411 154.932 83.8465C154.709 84.1484 154.497 84.3845 154.298 84.555C154.234 84.6118 154.174 84.6686 154.117 84.7254C154.06 84.7822 154 84.8391 153.936 84.8959C153.567 85.2687 153.119 85.544 152.594 85.7215C152.072 85.8991 151.557 85.9878 151.049 85.9878ZM163.207 80.9754V85.8334H161.615V77.6516H163.143V78.9832H163.245C163.433 78.55 163.728 78.202 164.129 77.9392C164.534 77.6764 165.043 77.545 165.658 77.545C166.215 77.545 166.703 77.6622 167.122 77.8966C167.541 78.1274 167.866 78.4719 168.097 78.93C168.328 79.3881 168.443 79.9545 168.443 80.6292V85.8334H166.851V80.8209C166.851 80.2279 166.696 79.7645 166.387 79.4307C166.078 79.0933 165.654 78.9246 165.114 78.9246C164.745 78.9246 164.416 79.0045 164.129 79.1643C163.845 79.3241 163.619 79.5585 163.452 79.8675C163.289 80.1729 163.207 80.5422 163.207 80.9754ZM174.026 85.9985C173.259 85.9985 172.589 85.8227 172.018 85.4712C171.446 85.1196 171.002 84.6278 170.686 83.9957C170.37 83.3636 170.212 82.6249 170.212 81.7798C170.212 80.931 170.37 80.1888 170.686 79.5532C171.002 78.9175 171.446 78.4239 172.018 78.0724C172.589 77.7208 173.259 77.545 174.026 77.545C174.793 77.545 175.462 77.7208 176.034 78.0724C176.606 78.4239 177.05 78.9175 177.366 79.5532C177.682 80.1888 177.84 80.931 177.84 81.7798C177.84 82.6249 177.682 83.3636 177.366 83.9957C177.05 84.6278 176.606 85.1196 176.034 85.4712C175.462 85.8227 174.793 85.9985 174.026 85.9985ZM174.031 84.6615C174.528 84.6615 174.94 84.5301 175.267 84.2673C175.594 84.0045 175.835 83.6548 175.991 83.218C176.151 82.7812 176.231 82.3 176.231 81.7744C176.231 81.2524 176.151 80.773 175.991 80.3362C175.835 79.8959 175.594 79.5425 175.267 79.2762C174.94 79.0099 174.528 78.8767 174.031 78.8767C173.53 78.8767 173.115 79.0099 172.785 79.2762C172.458 79.5425 172.215 79.8959 172.055 80.3362C171.899 80.773 171.821 81.2524 171.821 81.7744C171.821 82.3 171.899 82.7812 172.055 83.218C172.215 83.6548 172.458 84.0045 172.785 84.2673C173.115 84.5301 173.53 84.6615 174.031 84.6615ZM179.618 85.8334V77.6516H181.157V78.9513H181.242C181.391 78.5109 181.654 78.1647 182.031 77.9126C182.411 77.6569 182.84 77.529 183.32 77.529C183.419 77.529 183.536 77.5326 183.671 77.5397C183.81 77.5468 183.918 77.5557 183.996 77.5663V79.0898C183.932 79.072 183.819 79.0525 183.655 79.0312C183.492 79.0063 183.328 78.9939 183.165 78.9939C182.789 78.9939 182.453 79.0738 182.158 79.2336C181.867 79.3898 181.636 79.6082 181.466 79.8888C181.295 80.1658 181.21 80.4818 181.21 80.8369V85.8334H179.618ZM185.374 85.8334V77.6516H186.903V78.9832H187.004C187.175 78.5322 187.454 78.1807 187.841 77.9285C188.228 77.6729 188.691 77.545 189.231 77.545C189.778 77.545 190.236 77.6729 190.605 77.9285C190.978 78.1842 191.253 78.5358 191.431 78.9832H191.516C191.711 78.5464 192.022 78.1984 192.448 77.9392C192.874 77.6764 193.382 77.545 193.972 77.545C194.714 77.545 195.319 77.7776 195.788 78.2428C196.26 78.708 196.497 79.4094 196.497 80.3469V85.8334H194.904V80.496C194.904 79.942 194.753 79.5408 194.451 79.2922C194.149 79.0436 193.789 78.9193 193.37 78.9193C192.851 78.9193 192.448 79.0791 192.161 79.3987C191.873 79.7148 191.729 80.1214 191.729 80.6185V85.8334H190.142V80.3948C190.142 79.9509 190.003 79.594 189.726 79.3241C189.449 79.0543 189.089 78.9193 188.645 78.9193C188.343 78.9193 188.064 78.9992 187.809 79.159C187.557 79.3153 187.352 79.5337 187.196 79.8142C187.043 80.0947 186.967 80.4197 186.967 80.789V85.8334H185.374Z" fill="#2A2A2F"/>
<path d="M115.804 198.833H114.056L117.982 187.924H119.884L123.81 198.833H122.062L118.978 189.906H118.893L115.804 198.833ZM116.097 194.561H121.764V195.946H116.097V194.561ZM128.188 198.993C127.528 198.993 126.938 198.824 126.42 198.487C125.905 198.146 125.5 197.661 125.205 197.033C124.914 196.401 124.768 195.643 124.768 194.758C124.768 193.874 124.916 193.118 125.211 192.489C125.509 191.861 125.917 191.38 126.436 191.046C126.954 190.712 127.542 190.545 128.199 190.545C128.707 190.545 129.115 190.63 129.424 190.801C129.737 190.968 129.978 191.163 130.148 191.387C130.322 191.61 130.457 191.807 130.553 191.978H130.649V187.924H132.242V198.833H130.686V197.56H130.553C130.457 197.734 130.319 197.933 130.138 198.157C129.96 198.381 129.715 198.576 129.403 198.743C129.09 198.91 128.685 198.993 128.188 198.993ZM128.54 197.635C128.998 197.635 129.385 197.514 129.701 197.273C130.021 197.028 130.262 196.688 130.425 196.255C130.592 195.822 130.676 195.318 130.676 194.742C130.676 194.174 130.594 193.677 130.431 193.251C130.267 192.825 130.028 192.493 129.712 192.255C129.396 192.017 129.005 191.898 128.54 191.898C128.06 191.898 127.661 192.022 127.341 192.271C127.022 192.519 126.78 192.859 126.617 193.288C126.457 193.718 126.377 194.203 126.377 194.742C126.377 195.289 126.459 195.781 126.622 196.218C126.786 196.655 127.027 197.001 127.347 197.257C127.67 197.509 128.067 197.635 128.54 197.635ZM137.578 198.993C136.917 198.993 136.328 198.824 135.809 198.487C135.294 198.146 134.89 197.661 134.595 197.033C134.304 196.401 134.158 195.643 134.158 194.758C134.158 193.874 134.305 193.118 134.6 192.489C134.899 191.861 135.307 191.38 135.825 191.046C136.344 190.712 136.932 190.545 137.589 190.545C138.096 190.545 138.505 190.63 138.814 190.801C139.126 190.968 139.368 191.163 139.538 191.387C139.712 191.61 139.847 191.807 139.943 191.978H140.039V187.924H141.631V198.833H140.076V197.56H139.943C139.847 197.734 139.709 197.933 139.527 198.157C139.35 198.381 139.105 198.576 138.792 198.743C138.48 198.91 138.075 198.993 137.578 198.993ZM137.929 197.635C138.388 197.635 138.775 197.514 139.091 197.273C139.41 197.028 139.652 196.688 139.815 196.255C139.982 195.822 140.065 195.318 140.065 194.742C140.065 194.174 139.984 193.677 139.82 193.251C139.657 192.825 139.417 192.493 139.101 192.255C138.785 192.017 138.395 191.898 137.929 191.898C137.45 191.898 137.051 192.022 136.731 192.271C136.411 192.519 136.17 192.859 136.006 193.288C135.847 193.718 135.767 194.203 135.767 194.742C135.767 195.289 135.848 195.781 136.012 196.218C136.175 196.655 136.417 197.001 136.736 197.257C137.059 197.509 137.457 197.635 137.929 197.635ZM151.049 198.988C150.318 198.988 149.687 198.855 149.158 198.588C148.633 198.322 148.228 197.96 147.944 197.502C147.66 197.04 147.517 196.518 147.517 195.936C147.517 195.492 147.61 195.098 147.794 194.753C147.979 194.405 148.237 194.084 148.567 193.789C148.897 193.494 149.279 193.198 149.712 192.899L151.47 191.658C151.768 191.463 152.001 191.257 152.168 191.04C152.335 190.82 152.418 190.549 152.418 190.225C152.418 189.97 152.308 189.725 152.088 189.49C151.868 189.256 151.573 189.139 151.204 189.139C150.948 189.139 150.722 189.201 150.527 189.325C150.335 189.449 150.184 189.609 150.074 189.805C149.968 189.996 149.915 190.199 149.915 190.412C149.915 190.66 149.982 190.911 150.117 191.163C150.255 191.415 150.433 191.676 150.65 191.946C150.866 192.212 151.093 192.489 151.331 192.777L156.397 198.833H154.597L150.405 193.906C150.053 193.491 149.726 193.1 149.424 192.734C149.123 192.365 148.878 191.992 148.689 191.616C148.505 191.236 148.412 190.826 148.412 190.385C148.412 189.884 148.526 189.441 148.753 189.054C148.984 188.663 149.305 188.358 149.717 188.137C150.129 187.917 150.612 187.807 151.166 187.807C151.727 187.807 152.209 187.917 152.61 188.137C153.015 188.354 153.325 188.643 153.542 189.006C153.762 189.364 153.872 189.757 153.872 190.183C153.872 190.701 153.743 191.159 153.483 191.557C153.228 191.951 152.874 192.313 152.423 192.644L150.234 194.258C149.808 194.57 149.511 194.879 149.345 195.185C149.181 195.486 149.1 195.723 149.1 195.893C149.1 196.206 149.179 196.495 149.339 196.761C149.503 197.028 149.73 197.241 150.021 197.4C150.316 197.56 150.66 197.64 151.054 197.64C151.459 197.64 151.853 197.553 152.237 197.379C152.624 197.202 152.974 196.948 153.286 196.617C153.602 196.287 153.853 195.891 154.037 195.43C154.222 194.968 154.314 194.451 154.314 193.88H155.753C155.753 194.583 155.673 195.177 155.513 195.664C155.353 196.147 155.16 196.541 154.932 196.846C154.709 197.148 154.497 197.384 154.298 197.555C154.234 197.612 154.174 197.669 154.117 197.725C154.06 197.782 154 197.839 153.936 197.896C153.567 198.269 153.119 198.544 152.594 198.721C152.072 198.899 151.557 198.988 151.049 198.988ZM163.207 193.975V198.833H161.615V190.652H163.143V191.983H163.245C163.433 191.55 163.728 191.202 164.129 190.939C164.534 190.676 165.043 190.545 165.658 190.545C166.215 190.545 166.703 190.662 167.122 190.897C167.541 191.127 167.866 191.472 168.097 191.93C168.328 192.388 168.443 192.954 168.443 193.629V198.833H166.851V193.821C166.851 193.228 166.696 192.764 166.387 192.431C166.078 192.093 165.654 191.925 165.114 191.925C164.745 191.925 164.416 192.005 164.129 192.164C163.845 192.324 163.619 192.559 163.452 192.867C163.289 193.173 163.207 193.542 163.207 193.975ZM174.026 198.998C173.259 198.998 172.589 198.823 172.018 198.471C171.446 198.12 171.002 197.628 170.686 196.996C170.37 196.364 170.212 195.625 170.212 194.78C170.212 193.931 170.37 193.189 170.686 192.553C171.002 191.918 171.446 191.424 172.018 191.072C172.589 190.721 173.259 190.545 174.026 190.545C174.793 190.545 175.462 190.721 176.034 191.072C176.606 191.424 177.05 191.918 177.366 192.553C177.682 193.189 177.84 193.931 177.84 194.78C177.84 195.625 177.682 196.364 177.366 196.996C177.05 197.628 176.606 198.12 176.034 198.471C175.462 198.823 174.793 198.998 174.026 198.998ZM174.031 197.661C174.528 197.661 174.94 197.53 175.267 197.267C175.594 197.005 175.835 196.655 175.991 196.218C176.151 195.781 176.231 195.3 176.231 194.774C176.231 194.252 176.151 193.773 175.991 193.336C175.835 192.896 175.594 192.543 175.267 192.276C174.94 192.01 174.528 191.877 174.031 191.877C173.53 191.877 173.115 192.01 172.785 192.276C172.458 192.543 172.215 192.896 172.055 193.336C171.899 193.773 171.821 194.252 171.821 194.774C171.821 195.3 171.899 195.781 172.055 196.218C172.215 196.655 172.458 197.005 172.785 197.267C173.115 197.53 173.53 197.661 174.031 197.661ZM179.618 198.833V190.652H181.157V191.951H181.242C181.391 191.511 181.654 191.165 182.031 190.913C182.411 190.657 182.84 190.529 183.32 190.529C183.419 190.529 183.536 190.533 183.671 190.54C183.81 190.547 183.918 190.556 183.996 190.566V192.09C183.932 192.072 183.819 192.052 183.655 192.031C183.492 192.006 183.328 191.994 183.165 191.994C182.789 191.994 182.453 192.074 182.158 192.234C181.867 192.39 181.636 192.608 181.466 192.889C181.295 193.166 181.21 193.482 181.21 193.837V198.833H179.618ZM185.374 198.833V190.652H186.903V191.983H187.004C187.175 191.532 187.454 191.181 187.841 190.929C188.228 190.673 188.691 190.545 189.231 190.545C189.778 190.545 190.236 190.673 190.605 190.929C190.978 191.184 191.253 191.536 191.431 191.983H191.516C191.711 191.546 192.022 191.198 192.448 190.939C192.874 190.676 193.382 190.545 193.972 190.545C194.714 190.545 195.319 190.778 195.788 191.243C196.26 191.708 196.497 192.409 196.497 193.347V198.833H194.904V193.496C194.904 192.942 194.753 192.541 194.451 192.292C194.149 192.044 193.789 191.919 193.37 191.919C192.851 191.919 192.448 192.079 192.161 192.399C191.873 192.715 191.729 193.121 191.729 193.619V198.833H190.142V193.395C190.142 192.951 190.003 192.594 189.726 192.324C189.449 192.054 189.089 191.919 188.645 191.919C188.343 191.919 188.064 191.999 187.809 192.159C187.557 192.315 187.352 192.534 187.196 192.814C187.043 193.095 186.967 193.42 186.967 193.789V198.833H185.374Z" fill="#2A2A2F"/>
<path d="M115.804 315.833H114.056L117.982 304.924H119.884L123.81 315.833H122.062L118.978 306.906H118.893L115.804 315.833ZM116.097 311.561H121.764V312.946H116.097V311.561ZM128.188 315.993C127.528 315.993 126.938 315.824 126.42 315.487C125.905 315.146 125.5 314.661 125.205 314.033C124.914 313.401 124.768 312.643 124.768 311.758C124.768 310.874 124.916 310.118 125.211 309.489C125.509 308.861 125.917 308.38 126.436 308.046C126.954 307.712 127.542 307.545 128.199 307.545C128.707 307.545 129.115 307.63 129.424 307.801C129.737 307.968 129.978 308.163 130.148 308.387C130.322 308.61 130.457 308.807 130.553 308.978H130.649V304.924H132.242V315.833H130.686V314.56H130.553C130.457 314.734 130.319 314.933 130.138 315.157C129.96 315.381 129.715 315.576 129.403 315.743C129.09 315.91 128.685 315.993 128.188 315.993ZM128.54 314.635C128.998 314.635 129.385 314.514 129.701 314.273C130.021 314.028 130.262 313.688 130.425 313.255C130.592 312.822 130.676 312.318 130.676 311.742C130.676 311.174 130.594 310.677 130.431 310.251C130.267 309.825 130.028 309.493 129.712 309.255C129.396 309.017 129.005 308.898 128.54 308.898C128.06 308.898 127.661 309.022 127.341 309.271C127.022 309.519 126.78 309.859 126.617 310.288C126.457 310.718 126.377 311.203 126.377 311.742C126.377 312.289 126.459 312.781 126.622 313.218C126.786 313.655 127.027 314.001 127.347 314.257C127.67 314.509 128.067 314.635 128.54 314.635ZM137.578 315.993C136.917 315.993 136.328 315.824 135.809 315.487C135.294 315.146 134.89 314.661 134.595 314.033C134.304 313.401 134.158 312.643 134.158 311.758C134.158 310.874 134.305 310.118 134.6 309.489C134.899 308.861 135.307 308.38 135.825 308.046C136.344 307.712 136.932 307.545 137.589 307.545C138.096 307.545 138.505 307.63 138.814 307.801C139.126 307.968 139.368 308.163 139.538 308.387C139.712 308.61 139.847 308.807 139.943 308.978H140.039V304.924H141.631V315.833H140.076V314.56H139.943C139.847 314.734 139.709 314.933 139.527 315.157C139.35 315.381 139.105 315.576 138.792 315.743C138.48 315.91 138.075 315.993 137.578 315.993ZM137.929 314.635C138.388 314.635 138.775 314.514 139.091 314.273C139.41 314.028 139.652 313.688 139.815 313.255C139.982 312.822 140.065 312.318 140.065 311.742C140.065 311.174 139.984 310.677 139.82 310.251C139.657 309.825 139.417 309.493 139.101 309.255C138.785 309.017 138.395 308.898 137.929 308.898C137.45 308.898 137.051 309.022 136.731 309.271C136.411 309.519 136.17 309.859 136.006 310.288C135.847 310.718 135.767 311.203 135.767 311.742C135.767 312.289 135.848 312.781 136.012 313.218C136.175 313.655 136.417 314.001 136.736 314.257C137.059 314.509 137.457 314.635 137.929 314.635ZM151.049 315.988C150.318 315.988 149.687 315.855 149.158 315.588C148.633 315.322 148.228 314.96 147.944 314.502C147.66 314.04 147.517 313.518 147.517 312.936C147.517 312.492 147.61 312.098 147.794 311.753C147.979 311.405 148.237 311.084 148.567 310.789C148.897 310.494 149.279 310.198 149.712 309.899L151.47 308.658C151.768 308.463 152.001 308.257 152.168 308.04C152.335 307.82 152.418 307.549 152.418 307.225C152.418 306.97 152.308 306.725 152.088 306.49C151.868 306.256 151.573 306.139 151.204 306.139C150.948 306.139 150.722 306.201 150.527 306.325C150.335 306.449 150.184 306.609 150.074 306.805C149.968 306.996 149.915 307.199 149.915 307.412C149.915 307.66 149.982 307.911 150.117 308.163C150.255 308.415 150.433 308.676 150.65 308.946C150.866 309.212 151.093 309.489 151.331 309.777L156.397 315.833H154.597L150.405 310.906C150.053 310.491 149.726 310.1 149.424 309.734C149.123 309.365 148.878 308.992 148.689 308.616C148.505 308.236 148.412 307.826 148.412 307.385C148.412 306.885 148.526 306.441 148.753 306.054C148.984 305.663 149.305 305.358 149.717 305.137C150.129 304.917 150.612 304.807 151.166 304.807C151.727 304.807 152.209 304.917 152.61 305.137C153.015 305.354 153.325 305.643 153.542 306.006C153.762 306.364 153.872 306.757 153.872 307.183C153.872 307.701 153.743 308.159 153.483 308.557C153.228 308.951 152.874 309.313 152.423 309.644L150.234 311.258C149.808 311.57 149.511 311.879 149.345 312.185C149.181 312.486 149.1 312.723 149.1 312.893C149.1 313.206 149.179 313.495 149.339 313.761C149.503 314.028 149.73 314.241 150.021 314.4C150.316 314.56 150.66 314.64 151.054 314.64C151.459 314.64 151.853 314.553 152.237 314.379C152.624 314.202 152.974 313.948 153.286 313.617C153.602 313.287 153.853 312.891 154.037 312.43C154.222 311.968 154.314 311.451 154.314 310.88H155.753C155.753 311.583 155.673 312.177 155.513 312.664C155.353 313.147 155.16 313.541 154.932 313.847C154.709 314.148 154.497 314.385 154.298 314.555C154.234 314.612 154.174 314.669 154.117 314.725C154.06 314.782 154 314.839 153.936 314.896C153.567 315.269 153.119 315.544 152.594 315.722C152.072 315.899 151.557 315.988 151.049 315.988ZM163.207 310.975V315.833H161.615V307.652H163.143V308.983H163.245C163.433 308.55 163.728 308.202 164.129 307.939C164.534 307.676 165.043 307.545 165.658 307.545C166.215 307.545 166.703 307.662 167.122 307.897C167.541 308.127 167.866 308.472 168.097 308.93C168.328 309.388 168.443 309.954 168.443 310.629V315.833H166.851V310.821C166.851 310.228 166.696 309.764 166.387 309.431C166.078 309.093 165.654 308.925 165.114 308.925C164.745 308.925 164.416 309.005 164.129 309.164C163.845 309.324 163.619 309.559 163.452 309.867C163.289 310.173 163.207 310.542 163.207 310.975ZM174.026 315.999C173.259 315.999 172.589 315.823 172.018 315.471C171.446 315.12 171.002 314.628 170.686 313.996C170.37 313.364 170.212 312.625 170.212 311.78C170.212 310.931 170.37 310.189 170.686 309.553C171.002 308.918 171.446 308.424 172.018 308.072C172.589 307.721 173.259 307.545 174.026 307.545C174.793 307.545 175.462 307.721 176.034 308.072C176.606 308.424 177.05 308.918 177.366 309.553C177.682 310.189 177.84 310.931 177.84 311.78C177.84 312.625 177.682 313.364 177.366 313.996C177.05 314.628 176.606 315.12 176.034 315.471C175.462 315.823 174.793 315.999 174.026 315.999ZM174.031 314.661C174.528 314.661 174.94 314.53 175.267 314.267C175.594 314.005 175.835 313.655 175.991 313.218C176.151 312.781 176.231 312.3 176.231 311.774C176.231 311.252 176.151 310.773 175.991 310.336C175.835 309.896 175.594 309.543 175.267 309.276C174.94 309.01 174.528 308.877 174.031 308.877C173.53 308.877 173.115 309.01 172.785 309.276C172.458 309.543 172.215 309.896 172.055 310.336C171.899 310.773 171.821 311.252 171.821 311.774C171.821 312.3 171.899 312.781 172.055 313.218C172.215 313.655 172.458 314.005 172.785 314.267C173.115 314.53 173.53 314.661 174.031 314.661ZM179.618 315.833V307.652H181.157V308.951H181.242C181.391 308.511 181.654 308.165 182.031 307.913C182.411 307.657 182.84 307.529 183.32 307.529C183.419 307.529 183.536 307.533 183.671 307.54C183.81 307.547 183.918 307.556 183.996 307.566V309.09C183.932 309.072 183.819 309.052 183.655 309.031C183.492 309.006 183.328 308.994 183.165 308.994C182.789 308.994 182.453 309.074 182.158 309.234C181.867 309.39 181.636 309.608 181.466 309.889C181.295 310.166 181.21 310.482 181.21 310.837V315.833H179.618ZM185.374 315.833V307.652H186.903V308.983H187.004C187.175 308.532 187.454 308.181 187.841 307.929C188.228 307.673 188.691 307.545 189.231 307.545C189.778 307.545 190.236 307.673 190.605 307.929C190.978 308.184 191.253 308.536 191.431 308.983H191.516C191.711 308.546 192.022 308.198 192.448 307.939C192.874 307.676 193.382 307.545 193.972 307.545C194.714 307.545 195.319 307.778 195.788 308.243C196.26 308.708 196.497 309.409 196.497 310.347V315.833H194.904V310.496C194.904 309.942 194.753 309.541 194.451 309.292C194.149 309.044 193.789 308.919 193.37 308.919C192.851 308.919 192.448 309.079 192.161 309.399C191.873 309.715 191.729 310.121 191.729 310.619V315.833H190.142V310.395C190.142 309.951 190.003 309.594 189.726 309.324C189.449 309.054 189.089 308.919 188.645 308.919C188.343 308.919 188.064 308.999 187.809 309.159C187.557 309.315 187.352 309.534 187.196 309.814C187.043 310.095 186.967 310.42 186.967 310.789V315.833H185.374Z" fill="#2A2A2F"/>
<path d="M128.757 345.924H130.755L134.228 354.404H134.355L137.828 345.924H139.826V356.833H138.26V348.939H138.159L134.941 356.817H133.642L130.424 348.934H130.323V356.833H128.757V345.924ZM144.472 357.014C143.954 357.014 143.485 356.919 143.066 356.727C142.647 356.532 142.315 356.249 142.07 355.88C141.828 355.511 141.708 355.058 141.708 354.522C141.708 354.06 141.796 353.68 141.974 353.382C142.152 353.083 142.391 352.847 142.693 352.673C142.995 352.499 143.332 352.368 143.705 352.279C144.078 352.19 144.458 352.123 144.845 352.077C145.335 352.02 145.733 351.974 146.038 351.938C146.344 351.899 146.566 351.837 146.704 351.752C146.843 351.666 146.912 351.528 146.912 351.336V351.299C146.912 350.834 146.78 350.473 146.518 350.218C146.258 349.962 145.871 349.834 145.356 349.834C144.82 349.834 144.398 349.953 144.089 350.191C143.783 350.425 143.572 350.686 143.455 350.974L141.958 350.633C142.136 350.136 142.395 349.735 142.736 349.429C143.08 349.12 143.476 348.897 143.924 348.758C144.371 348.616 144.842 348.545 145.335 348.545C145.662 348.545 146.008 348.584 146.374 348.662C146.743 348.737 147.088 348.875 147.407 349.078C147.73 349.28 147.995 349.57 148.201 349.946C148.407 350.319 148.51 350.804 148.51 351.4V356.833H146.954V355.715H146.891C146.788 355.921 146.633 356.123 146.427 356.322C146.221 356.521 145.957 356.686 145.633 356.817C145.31 356.949 144.923 357.014 144.472 357.014ZM144.818 355.736C145.259 355.736 145.635 355.649 145.948 355.475C146.264 355.301 146.503 355.074 146.667 354.793C146.834 354.509 146.917 354.206 146.917 353.882V352.828C146.86 352.885 146.75 352.938 146.587 352.987C146.427 353.034 146.244 353.074 146.038 353.11C145.832 353.142 145.632 353.172 145.436 353.201C145.241 353.225 145.078 353.247 144.946 353.264C144.637 353.304 144.355 353.369 144.099 353.462C143.847 353.554 143.645 353.687 143.492 353.861C143.343 354.032 143.268 354.259 143.268 354.543C143.268 354.937 143.414 355.235 143.705 355.438C143.996 355.637 144.367 355.736 144.818 355.736ZM156.762 350.649L155.319 350.905C155.258 350.72 155.162 350.544 155.031 350.377C154.903 350.211 154.729 350.074 154.509 349.967C154.289 349.861 154.014 349.807 153.683 349.807C153.232 349.807 152.856 349.909 152.554 350.111C152.252 350.31 152.101 350.567 152.101 350.883C152.101 351.157 152.203 351.377 152.405 351.544C152.607 351.711 152.934 351.848 153.385 351.954L154.685 352.252C155.438 352.426 155.999 352.695 156.368 353.057C156.737 353.419 156.922 353.889 156.922 354.468C156.922 354.958 156.78 355.395 156.496 355.779C156.215 356.159 155.823 356.457 155.319 356.674C154.818 356.89 154.237 356.999 153.577 356.999C152.661 356.999 151.913 356.803 151.334 356.413C150.756 356.018 150.4 355.459 150.269 354.735L151.808 354.5C151.904 354.902 152.101 355.205 152.4 355.411C152.698 355.614 153.087 355.715 153.566 355.715C154.088 355.715 154.506 355.606 154.818 355.39C155.131 355.17 155.287 354.902 155.287 354.586C155.287 354.33 155.191 354.115 154.999 353.941C154.811 353.767 154.521 353.636 154.131 353.547L152.746 353.243C151.982 353.069 151.418 352.792 151.052 352.412C150.69 352.032 150.509 351.551 150.509 350.969C150.509 350.486 150.644 350.063 150.914 349.701C151.183 349.339 151.556 349.056 152.032 348.854C152.508 348.648 153.053 348.545 153.667 348.545C154.552 348.545 155.248 348.737 155.756 349.12C156.263 349.5 156.599 350.01 156.762 350.649ZM160.138 354.058L160.127 352.114H160.404L163.664 348.652H165.571L161.853 352.593H161.603L160.138 354.058ZM158.673 356.833V345.924H160.266V356.833H158.673ZM163.84 356.833L160.91 352.945L162.008 351.832L165.795 356.833H163.84ZM170.212 356.999C169.406 356.999 168.712 356.826 168.129 356.482C167.551 356.134 167.103 355.646 166.787 355.017C166.475 354.385 166.318 353.644 166.318 352.796C166.318 351.958 166.475 351.219 166.787 350.58C167.103 349.941 167.544 349.442 168.108 349.083C168.676 348.724 169.34 348.545 170.1 348.545C170.562 348.545 171.009 348.621 171.443 348.774C171.876 348.927 172.265 349.166 172.609 349.493C172.954 349.82 173.225 350.244 173.424 350.766C173.623 351.285 173.722 351.915 173.722 352.657V353.222H167.219V352.029H172.162C172.162 351.61 172.077 351.239 171.906 350.915C171.736 350.589 171.496 350.331 171.187 350.143C170.882 349.955 170.523 349.861 170.111 349.861C169.664 349.861 169.273 349.971 168.939 350.191C168.609 350.408 168.353 350.692 168.172 351.043C167.994 351.391 167.906 351.769 167.906 352.178V353.11C167.906 353.657 168.002 354.122 168.193 354.506C168.389 354.889 168.66 355.182 169.008 355.385C169.356 355.583 169.763 355.683 170.228 355.683C170.53 355.683 170.805 355.64 171.054 355.555C171.302 355.466 171.517 355.335 171.698 355.161C171.879 354.987 172.018 354.772 172.114 354.516L173.621 354.788C173.501 355.232 173.284 355.621 172.971 355.954C172.662 356.285 172.274 356.542 171.805 356.727C171.34 356.908 170.809 356.999 170.212 356.999ZM178.552 356.993C177.892 356.993 177.302 356.824 176.784 356.487C176.269 356.146 175.864 355.661 175.57 355.033C175.278 354.401 175.133 353.643 175.133 352.758C175.133 351.874 175.28 351.118 175.575 350.489C175.873 349.861 176.282 349.38 176.8 349.046C177.318 348.712 177.906 348.545 178.563 348.545C179.071 348.545 179.479 348.63 179.788 348.801C180.101 348.968 180.342 349.163 180.513 349.387C180.687 349.61 180.822 349.807 180.918 349.978H181.013V345.924H182.606V356.833H181.051V355.56H180.918C180.822 355.734 180.683 355.933 180.502 356.157C180.324 356.381 180.079 356.576 179.767 356.743C179.454 356.91 179.05 356.993 178.552 356.993ZM178.904 355.635C179.362 355.635 179.749 355.514 180.065 355.273C180.385 355.028 180.626 354.688 180.79 354.255C180.957 353.822 181.04 353.318 181.04 352.742C181.04 352.174 180.958 351.677 180.795 351.251C180.632 350.825 180.392 350.493 180.076 350.255C179.76 350.017 179.369 349.898 178.904 349.898C178.425 349.898 178.025 350.022 177.706 350.271C177.386 350.519 177.144 350.859 176.981 351.288C176.821 351.718 176.741 352.203 176.741 352.742C176.741 353.289 176.823 353.781 176.986 354.218C177.15 354.655 177.391 355.001 177.711 355.257C178.034 355.509 178.432 355.635 178.904 355.635ZM117.789 374.833V366.652H119.318V367.983H119.419C119.59 367.532 119.869 367.181 120.256 366.929C120.643 366.673 121.106 366.545 121.646 366.545C122.193 366.545 122.651 366.673 123.02 366.929C123.393 367.184 123.668 367.536 123.846 367.983H123.931C124.126 367.546 124.437 367.198 124.863 366.939C125.289 366.676 125.797 366.545 126.387 366.545C127.129 366.545 127.734 366.778 128.203 367.243C128.675 367.708 128.912 368.409 128.912 369.347V374.833H127.319V369.496C127.319 368.942 127.168 368.541 126.866 368.292C126.564 368.044 126.204 367.919 125.785 367.919C125.266 367.919 124.863 368.079 124.576 368.399C124.288 368.715 124.144 369.121 124.144 369.619V374.833H122.557V369.395C122.557 368.951 122.418 368.594 122.141 368.324C121.864 368.054 121.504 367.919 121.06 367.919C120.758 367.919 120.479 367.999 120.224 368.159C119.972 368.315 119.767 368.534 119.611 368.814C119.458 369.095 119.382 369.42 119.382 369.789V374.833H117.789ZM136.229 371.44V366.652H137.827V374.833H136.261V373.416H136.176C135.988 373.853 135.686 374.217 135.27 374.508C134.858 374.796 134.345 374.94 133.731 374.94C133.205 374.94 132.74 374.824 132.335 374.594C131.934 374.359 131.618 374.013 131.387 373.555C131.16 373.097 131.046 372.53 131.046 371.856V366.652H132.639V371.664C132.639 372.222 132.793 372.665 133.102 372.996C133.411 373.326 133.813 373.491 134.306 373.491C134.604 373.491 134.901 373.416 135.196 373.267C135.494 373.118 135.741 372.893 135.936 372.591C136.135 372.289 136.233 371.905 136.229 371.44ZM141.56 363.924V374.833H139.967V363.924H141.56ZM147.522 366.652V367.93H143.053V366.652H147.522ZM144.251 364.691H145.844V372.431C145.844 372.74 145.89 372.973 145.982 373.129C146.075 373.282 146.194 373.386 146.339 373.443C146.488 373.496 146.65 373.523 146.824 373.523C146.952 373.523 147.064 373.514 147.16 373.496C147.255 373.479 147.33 373.464 147.383 373.454L147.671 374.769C147.579 374.805 147.447 374.84 147.277 374.876C147.106 374.915 146.893 374.936 146.638 374.94C146.218 374.947 145.828 374.872 145.466 374.716C145.103 374.56 144.81 374.318 144.587 373.992C144.363 373.665 144.251 373.255 144.251 372.761V364.691ZM149.284 374.833V366.652H150.876V374.833H149.284ZM150.088 365.389C149.811 365.389 149.573 365.297 149.374 365.112C149.179 364.924 149.081 364.7 149.081 364.441C149.081 364.178 149.179 363.954 149.374 363.77C149.573 363.582 149.811 363.487 150.088 363.487C150.365 363.487 150.601 363.582 150.796 363.77C150.995 363.954 151.095 364.178 151.095 364.441C151.095 364.7 150.995 364.924 150.796 365.112C150.601 365.297 150.365 365.389 150.088 365.389ZM157.84 369.533V370.913H153.003V369.533H157.84ZM161.555 369.975V374.833H159.962V363.924H161.534V367.983H161.635C161.827 367.543 162.12 367.193 162.514 366.934C162.908 366.675 163.423 366.545 164.059 366.545C164.62 366.545 165.11 366.66 165.529 366.891C165.951 367.122 166.278 367.467 166.509 367.925C166.743 368.379 166.86 368.947 166.86 369.629V374.833H165.268V369.821C165.268 369.221 165.113 368.756 164.804 368.425C164.495 368.092 164.066 367.925 163.515 367.925C163.139 367.925 162.801 368.005 162.503 368.164C162.208 368.324 161.976 368.559 161.805 368.867C161.638 369.173 161.555 369.542 161.555 369.975ZM172.512 374.999C171.706 374.999 171.012 374.826 170.429 374.482C169.85 374.134 169.403 373.646 169.087 373.017C168.774 372.385 168.618 371.644 168.618 370.796C168.618 369.958 168.774 369.219 169.087 368.58C169.403 367.941 169.843 367.442 170.408 367.083C170.976 366.724 171.64 366.545 172.4 366.545C172.862 366.545 173.309 366.621 173.742 366.774C174.176 366.927 174.565 367.166 174.909 367.493C175.253 367.82 175.525 368.244 175.724 368.766C175.923 369.285 176.022 369.915 176.022 370.657V371.222H169.518V370.029H174.462C174.462 369.61 174.376 369.239 174.206 368.915C174.035 368.589 173.796 368.331 173.487 368.143C173.181 367.955 172.823 367.861 172.411 367.861C171.963 367.861 171.573 367.971 171.239 368.191C170.909 368.408 170.653 368.692 170.472 369.043C170.294 369.391 170.206 369.769 170.206 370.178V371.11C170.206 371.657 170.301 372.122 170.493 372.506C170.688 372.889 170.96 373.182 171.308 373.385C171.656 373.583 172.063 373.683 172.528 373.683C172.83 373.683 173.105 373.64 173.354 373.555C173.602 373.466 173.817 373.335 173.998 373.161C174.179 372.987 174.318 372.772 174.414 372.516L175.921 372.788C175.8 373.232 175.584 373.621 175.271 373.954C174.962 374.285 174.573 374.542 174.105 374.727C173.639 374.908 173.109 374.999 172.512 374.999ZM180.17 375.014C179.652 375.014 179.183 374.919 178.764 374.727C178.345 374.532 178.013 374.249 177.768 373.88C177.527 373.511 177.406 373.058 177.406 372.522C177.406 372.06 177.495 371.68 177.672 371.382C177.85 371.083 178.089 370.847 178.391 370.673C178.693 370.499 179.031 370.368 179.403 370.279C179.776 370.19 180.156 370.123 180.543 370.077C181.033 370.02 181.431 369.974 181.737 369.938C182.042 369.899 182.264 369.837 182.402 369.752C182.541 369.666 182.61 369.528 182.61 369.336V369.299C182.61 368.834 182.479 368.473 182.216 368.218C181.957 367.962 181.57 367.834 181.055 367.834C180.518 367.834 180.096 367.953 179.787 368.191C179.482 368.425 179.27 368.686 179.153 368.974L177.656 368.633C177.834 368.136 178.093 367.735 178.434 367.429C178.778 367.12 179.174 366.897 179.622 366.758C180.069 366.616 180.54 366.545 181.033 366.545C181.36 366.545 181.706 366.584 182.072 366.662C182.441 366.737 182.786 366.875 183.105 367.078C183.429 367.28 183.693 367.57 183.899 367.946C184.105 368.319 184.208 368.804 184.208 369.4V374.833H182.653V373.715H182.589C182.486 373.921 182.331 374.123 182.125 374.322C181.919 374.521 181.655 374.686 181.332 374.817C181.009 374.949 180.621 375.014 180.17 375.014ZM180.517 373.736C180.957 373.736 181.333 373.649 181.646 373.475C181.962 373.301 182.202 373.074 182.365 372.793C182.532 372.509 182.615 372.206 182.615 371.882V370.828C182.559 370.885 182.449 370.938 182.285 370.987C182.125 371.034 181.942 371.074 181.737 371.11C181.531 371.142 181.33 371.172 181.135 371.201C180.939 371.225 180.776 371.247 180.645 371.264C180.336 371.304 180.053 371.369 179.798 371.462C179.545 371.554 179.343 371.687 179.19 371.861C179.041 372.032 178.967 372.259 178.967 372.543C178.967 372.937 179.112 373.235 179.403 373.438C179.695 373.637 180.066 373.736 180.517 373.736ZM189.392 374.993C188.732 374.993 188.142 374.824 187.624 374.487C187.109 374.146 186.704 373.661 186.409 373.033C186.118 372.401 185.973 371.643 185.973 370.758C185.973 369.874 186.12 369.118 186.415 368.489C186.713 367.861 187.121 367.38 187.64 367.046C188.158 366.712 188.746 366.545 189.403 366.545C189.911 366.545 190.319 366.63 190.628 366.801C190.941 366.968 191.182 367.163 191.353 367.387C191.527 367.61 191.661 367.807 191.757 367.978H191.853V363.924H193.446V374.833H191.891V373.56H191.757C191.661 373.734 191.523 373.933 191.342 374.157C191.164 374.381 190.919 374.576 190.607 374.743C190.294 374.91 189.889 374.993 189.392 374.993ZM189.744 373.635C190.202 373.635 190.589 373.514 190.905 373.273C191.225 373.028 191.466 372.688 191.63 372.255C191.796 371.822 191.88 371.318 191.88 370.742C191.88 370.174 191.798 369.677 191.635 369.251C191.472 368.825 191.232 368.493 190.916 368.255C190.6 368.017 190.209 367.898 189.744 367.898C189.264 367.898 188.865 368.022 188.545 368.271C188.226 368.519 187.984 368.859 187.821 369.288C187.661 369.718 187.581 370.203 187.581 370.742C187.581 371.289 187.663 371.781 187.826 372.218C187.99 372.655 188.231 373.001 188.551 373.257C188.874 373.509 189.272 373.635 189.744 373.635ZM126.784 393.014C126.266 393.014 125.797 392.919 125.378 392.727C124.959 392.532 124.627 392.249 124.382 391.88C124.14 391.511 124.02 391.058 124.02 390.522C124.02 390.06 124.108 389.68 124.286 389.382C124.464 389.083 124.703 388.847 125.005 388.673C125.307 388.499 125.644 388.368 126.017 388.279C126.39 388.19 126.77 388.123 127.157 388.077C127.647 388.02 128.045 387.974 128.35 387.938C128.656 387.899 128.878 387.837 129.016 387.752C129.155 387.666 129.224 387.528 129.224 387.336V387.299C129.224 386.834 129.092 386.473 128.83 386.218C128.57 385.962 128.183 385.834 127.668 385.834C127.132 385.834 126.71 385.953 126.401 386.191C126.095 386.425 125.884 386.686 125.767 386.974L124.27 386.633C124.448 386.136 124.707 385.735 125.048 385.429C125.392 385.12 125.788 384.897 126.236 384.758C126.683 384.616 127.154 384.545 127.647 384.545C127.974 384.545 128.32 384.584 128.686 384.662C129.055 384.737 129.4 384.875 129.719 385.078C130.042 385.28 130.307 385.57 130.513 385.946C130.719 386.319 130.822 386.804 130.822 387.4V392.833H129.266V391.715H129.203C129.1 391.921 128.945 392.123 128.739 392.322C128.533 392.521 128.269 392.686 127.945 392.817C127.622 392.949 127.235 393.014 126.784 393.014ZM127.13 391.736C127.571 391.736 127.947 391.649 128.26 391.475C128.576 391.301 128.815 391.074 128.979 390.793C129.146 390.509 129.229 390.206 129.229 389.882V388.828C129.172 388.885 129.062 388.938 128.899 388.987C128.739 389.034 128.556 389.074 128.35 389.11C128.144 389.142 127.944 389.172 127.748 389.201C127.553 389.225 127.39 389.247 127.258 389.264C126.949 389.304 126.667 389.369 126.411 389.462C126.159 389.554 125.957 389.687 125.804 389.861C125.655 390.032 125.58 390.259 125.58 390.543C125.58 390.937 125.726 391.235 126.017 391.438C126.308 391.637 126.679 391.736 127.13 391.736ZM136.762 384.652V385.93H132.293V384.652H136.762ZM133.492 382.691H135.085V390.431C135.085 390.74 135.131 390.973 135.223 391.129C135.315 391.282 135.434 391.386 135.58 391.443C135.729 391.496 135.891 391.523 136.065 391.523C136.193 391.523 136.304 391.514 136.4 391.496C136.496 391.479 136.571 391.464 136.624 391.454L136.912 392.769C136.819 392.805 136.688 392.84 136.517 392.876C136.347 392.915 136.134 392.936 135.878 392.94C135.459 392.947 135.069 392.872 134.706 392.716C134.344 392.56 134.051 392.318 133.827 391.992C133.604 391.665 133.492 391.255 133.492 390.761V382.691ZM142.344 384.652V385.93H137.874V384.652H142.344ZM139.073 382.691H140.666V390.431C140.666 390.74 140.712 390.973 140.804 391.129C140.896 391.282 141.015 391.386 141.161 391.443C141.31 391.496 141.472 391.523 141.646 391.523C141.774 391.523 141.885 391.514 141.981 391.496C142.077 391.479 142.152 391.464 142.205 391.454L142.493 392.769C142.4 392.805 142.269 392.84 142.098 392.876C141.928 392.915 141.715 392.936 141.459 392.94C141.04 392.947 140.65 392.872 140.287 392.716C139.925 392.56 139.632 392.318 139.409 391.992C139.185 391.665 139.073 391.255 139.073 390.761V382.691ZM147.544 392.999C146.738 392.999 146.043 392.826 145.461 392.482C144.882 392.134 144.435 391.646 144.119 391.017C143.806 390.385 143.65 389.644 143.65 388.796C143.65 387.958 143.806 387.219 144.119 386.58C144.435 385.941 144.875 385.442 145.44 385.083C146.008 384.724 146.672 384.545 147.432 384.545C147.894 384.545 148.341 384.621 148.774 384.774C149.207 384.927 149.596 385.166 149.941 385.493C150.285 385.82 150.557 386.244 150.756 386.766C150.955 387.285 151.054 387.915 151.054 388.657V389.222H144.55V388.029H149.493C149.493 387.61 149.408 387.239 149.238 386.915C149.067 386.589 148.827 386.331 148.519 386.143C148.213 385.955 147.854 385.861 147.443 385.861C146.995 385.861 146.604 385.971 146.271 386.191C145.94 386.408 145.685 386.692 145.504 387.043C145.326 387.391 145.237 387.769 145.237 388.178V389.11C145.237 389.657 145.333 390.122 145.525 390.506C145.72 390.889 145.992 391.182 146.34 391.385C146.688 391.583 147.095 391.683 147.56 391.683C147.862 391.683 148.137 391.64 148.385 391.555C148.634 391.466 148.849 391.335 149.03 391.161C149.211 390.987 149.349 390.772 149.445 390.516L150.953 390.788C150.832 391.232 150.615 391.621 150.303 391.954C149.994 392.285 149.605 392.542 149.136 392.727C148.671 392.908 148.14 392.999 147.544 392.999ZM154.414 387.975V392.833H152.821V384.652H154.35V385.983H154.451C154.639 385.55 154.934 385.202 155.335 384.939C155.74 384.676 156.25 384.545 156.864 384.545C157.422 384.545 157.91 384.662 158.329 384.897C158.748 385.127 159.073 385.472 159.304 385.93C159.535 386.388 159.65 386.954 159.65 387.629V392.833H158.057V387.821C158.057 387.228 157.903 386.764 157.594 386.431C157.285 386.093 156.861 385.925 156.321 385.925C155.951 385.925 155.623 386.005 155.335 386.164C155.051 386.324 154.826 386.559 154.659 386.867C154.496 387.173 154.414 387.542 154.414 387.975ZM165.605 384.652V385.93H161.136V384.652H165.605ZM162.335 382.691H163.927V390.431C163.927 390.74 163.973 390.973 164.066 391.129C164.158 391.282 164.277 391.386 164.423 391.443C164.572 391.496 164.733 391.523 164.907 391.523C165.035 391.523 165.147 391.514 165.243 391.496C165.339 391.479 165.413 391.464 165.467 391.454L165.754 392.769C165.662 392.805 165.531 392.84 165.36 392.876C165.19 392.915 164.977 392.936 164.721 392.94C164.302 392.947 163.911 392.872 163.549 392.716C163.187 392.56 162.894 392.318 162.67 391.992C162.447 391.665 162.335 391.255 162.335 390.761V382.691ZM167.367 392.833V384.652H168.96V392.833H167.367ZM168.171 383.389C167.894 383.389 167.656 383.297 167.458 383.112C167.262 382.924 167.165 382.7 167.165 382.441C167.165 382.178 167.262 381.954 167.458 381.77C167.656 381.582 167.894 381.487 168.171 381.487C168.448 381.487 168.685 381.582 168.88 381.77C169.079 381.954 169.178 382.178 169.178 382.441C169.178 382.7 169.079 382.924 168.88 383.112C168.685 383.297 168.448 383.389 168.171 383.389ZM174.549 392.999C173.782 392.999 173.112 392.823 172.541 392.471C171.969 392.12 171.525 391.628 171.209 390.996C170.893 390.364 170.735 389.625 170.735 388.78C170.735 387.931 170.893 387.189 171.209 386.553C171.525 385.918 171.969 385.424 172.541 385.072C173.112 384.721 173.782 384.545 174.549 384.545C175.316 384.545 175.985 384.721 176.557 385.072C177.129 385.424 177.573 385.918 177.889 386.553C178.205 387.189 178.363 387.931 178.363 388.78C178.363 389.625 178.205 390.364 177.889 390.996C177.573 391.628 177.129 392.12 176.557 392.471C175.985 392.823 175.316 392.999 174.549 392.999ZM174.554 391.661C175.051 391.661 175.463 391.53 175.79 391.267C176.117 391.005 176.358 390.655 176.514 390.218C176.674 389.781 176.754 389.3 176.754 388.774C176.754 388.252 176.674 387.773 176.514 387.336C176.358 386.896 176.117 386.543 175.79 386.276C175.463 386.01 175.051 385.877 174.554 385.877C174.053 385.877 173.638 386.01 173.308 386.276C172.981 386.543 172.738 386.896 172.578 387.336C172.422 387.773 172.344 388.252 172.344 388.774C172.344 389.3 172.422 389.781 172.578 390.218C172.738 390.655 172.981 391.005 173.308 391.267C173.638 391.53 174.053 391.661 174.554 391.661ZM181.733 387.975V392.833H180.14V384.652H181.669V385.983H181.77C181.959 385.55 182.253 385.202 182.655 384.939C183.06 384.676 183.569 384.545 184.183 384.545C184.741 384.545 185.229 384.662 185.648 384.897C186.067 385.127 186.392 385.472 186.623 385.93C186.854 386.388 186.969 386.954 186.969 387.629V392.833H185.377V387.821C185.377 387.228 185.222 386.764 184.913 386.431C184.604 386.093 184.18 385.925 183.64 385.925C183.271 385.925 182.942 386.005 182.655 386.164C182.371 386.324 182.145 386.559 181.978 386.867C181.815 387.173 181.733 387.542 181.733 387.975Z" fill="#2A2A2F"/>
<path d="M117.315 230.924H119.312L122.785 239.404H122.913L126.386 230.924H128.384V241.833H126.818V233.939H126.716L123.499 241.817H122.199L118.982 233.934H118.881V241.833H117.315V230.924ZM135.832 238.44V233.652H137.43V241.833H135.864V240.416H135.778C135.59 240.853 135.288 241.217 134.873 241.508C134.461 241.796 133.948 241.94 133.333 241.94C132.808 241.94 132.343 241.824 131.938 241.594C131.537 241.359 131.221 241.013 130.99 240.555C130.762 240.097 130.649 239.53 130.649 238.856V233.652H132.241V238.664C132.241 239.221 132.396 239.665 132.705 239.996C133.014 240.326 133.415 240.491 133.909 240.491C134.207 240.491 134.504 240.416 134.798 240.267C135.097 240.118 135.343 239.893 135.539 239.591C135.738 239.289 135.835 238.905 135.832 238.44ZM141.162 230.924V241.833H139.57V230.924H141.162ZM147.124 233.652V234.93H142.655V233.652H147.124ZM143.854 231.691H145.446V239.431C145.446 239.74 145.493 239.973 145.585 240.129C145.677 240.282 145.796 240.386 145.942 240.443C146.091 240.496 146.252 240.523 146.426 240.523C146.554 240.523 146.666 240.514 146.762 240.496C146.858 240.479 146.933 240.464 146.986 240.454L147.273 241.769C147.181 241.805 147.05 241.84 146.879 241.876C146.709 241.915 146.496 241.936 146.24 241.94C145.821 241.947 145.43 241.872 145.068 241.716C144.706 241.56 144.413 241.318 144.189 240.992C143.966 240.665 143.854 240.255 143.854 239.761V231.691ZM148.886 241.833V233.652H150.479V241.833H148.886ZM149.69 232.389C149.413 232.389 149.176 232.297 148.977 232.112C148.781 231.924 148.684 231.7 148.684 231.441C148.684 231.178 148.781 230.954 148.977 230.77C149.176 230.582 149.413 230.487 149.69 230.487C149.967 230.487 150.204 230.582 150.399 230.77C150.598 230.954 150.697 231.178 150.697 231.441C150.697 231.7 150.598 231.924 150.399 232.112C150.204 232.297 149.967 232.389 149.69 232.389ZM157.442 236.533V237.913H152.605V236.533H157.442ZM161.157 236.975V241.833H159.565V230.924H161.136V234.983H161.237C161.429 234.543 161.722 234.193 162.116 233.934C162.51 233.675 163.025 233.545 163.661 233.545C164.222 233.545 164.712 233.66 165.131 233.891C165.554 234.122 165.881 234.467 166.111 234.925C166.346 235.379 166.463 235.947 166.463 236.629V241.833H164.87V236.821C164.87 236.221 164.716 235.756 164.407 235.425C164.098 235.092 163.668 234.925 163.118 234.925C162.741 234.925 162.404 235.005 162.106 235.164C161.811 235.324 161.578 235.559 161.408 235.867C161.241 236.173 161.157 236.542 161.157 236.975ZM172.115 241.998C171.308 241.998 170.614 241.826 170.032 241.482C169.453 241.134 169.006 240.646 168.689 240.017C168.377 239.385 168.221 238.644 168.221 237.796C168.221 236.958 168.377 236.219 168.689 235.58C169.006 234.941 169.446 234.442 170.01 234.083C170.579 233.724 171.243 233.545 172.003 233.545C172.464 233.545 172.912 233.621 173.345 233.774C173.778 233.927 174.167 234.166 174.512 234.493C174.856 234.82 175.128 235.244 175.327 235.766C175.525 236.285 175.625 236.915 175.625 237.657V238.222H169.121V237.029H174.064C174.064 236.61 173.979 236.239 173.808 235.915C173.638 235.589 173.398 235.331 173.089 235.143C172.784 234.955 172.425 234.861 172.013 234.861C171.566 234.861 171.175 234.971 170.841 235.191C170.511 235.408 170.256 235.692 170.074 236.043C169.897 236.391 169.808 236.769 169.808 237.178V238.11C169.808 238.657 169.904 239.122 170.096 239.506C170.291 239.889 170.563 240.182 170.911 240.384C171.259 240.583 171.665 240.683 172.131 240.683C172.432 240.683 172.708 240.64 172.956 240.555C173.205 240.466 173.42 240.335 173.601 240.161C173.782 239.987 173.92 239.772 174.016 239.516L175.524 239.788C175.403 240.232 175.186 240.621 174.874 240.954C174.565 241.285 174.176 241.542 173.707 241.727C173.242 241.908 172.711 241.998 172.115 241.998ZM179.773 242.014C179.255 242.014 178.786 241.919 178.367 241.727C177.948 241.532 177.616 241.249 177.371 240.88C177.129 240.511 177.008 240.058 177.008 239.522C177.008 239.06 177.097 238.68 177.275 238.382C177.452 238.083 177.692 237.847 177.994 237.673C178.296 237.499 178.633 237.368 179.006 237.279C179.379 237.19 179.759 237.123 180.146 237.077C180.636 237.02 181.034 236.974 181.339 236.938C181.644 236.899 181.866 236.837 182.005 236.752C182.143 236.666 182.213 236.528 182.213 236.336V236.299C182.213 235.834 182.081 235.473 181.818 235.218C181.559 234.962 181.172 234.834 180.657 234.834C180.121 234.834 179.698 234.953 179.389 235.191C179.084 235.425 178.873 235.686 178.756 235.974L177.259 235.633C177.436 235.136 177.696 234.735 178.036 234.429C178.381 234.12 178.777 233.897 179.224 233.758C179.672 233.616 180.142 233.545 180.636 233.545C180.963 233.545 181.309 233.584 181.675 233.662C182.044 233.737 182.388 233.875 182.708 234.078C183.031 234.28 183.296 234.57 183.502 234.946C183.708 235.319 183.811 235.804 183.811 236.4V241.833H182.255V240.715H182.191C182.088 240.921 181.934 241.123 181.728 241.322C181.522 241.521 181.257 241.686 180.934 241.817C180.611 241.949 180.224 242.014 179.773 242.014ZM180.119 240.736C180.56 240.736 180.936 240.649 181.248 240.475C181.565 240.301 181.804 240.074 181.968 239.793C182.134 239.509 182.218 239.206 182.218 238.882V237.828C182.161 237.884 182.051 237.938 181.888 237.987C181.728 238.034 181.545 238.074 181.339 238.11C181.133 238.142 180.932 238.172 180.737 238.201C180.542 238.225 180.378 238.247 180.247 238.264C179.938 238.304 179.656 238.369 179.4 238.462C179.148 238.554 178.946 238.687 178.793 238.861C178.644 239.032 178.569 239.259 178.569 239.543C178.569 239.937 178.715 240.235 179.006 240.438C179.297 240.637 179.668 240.736 180.119 240.736ZM188.995 241.993C188.334 241.993 187.745 241.824 187.226 241.487C186.711 241.146 186.307 240.661 186.012 240.033C185.721 239.401 185.575 238.643 185.575 237.758C185.575 236.874 185.722 236.118 186.017 235.489C186.316 234.861 186.724 234.38 187.242 234.046C187.761 233.712 188.349 233.545 189.006 233.545C189.513 233.545 189.922 233.63 190.231 233.801C190.543 233.968 190.785 234.163 190.955 234.387C191.129 234.61 191.264 234.807 191.36 234.978H191.456V230.924H193.048V241.833H191.493V240.56H191.36C191.264 240.734 191.126 240.933 190.944 241.157C190.767 241.381 190.522 241.576 190.209 241.743C189.897 241.91 189.492 241.993 188.995 241.993ZM189.346 240.635C189.805 240.635 190.192 240.514 190.508 240.273C190.827 240.028 191.069 239.688 191.232 239.255C191.399 238.822 191.482 238.318 191.482 237.742C191.482 237.174 191.401 236.677 191.237 236.251C191.074 235.825 190.834 235.493 190.518 235.255C190.202 235.017 189.812 234.898 189.346 234.898C188.867 234.898 188.468 235.022 188.148 235.271C187.828 235.519 187.587 235.859 187.423 236.288C187.264 236.718 187.184 237.203 187.184 237.742C187.184 238.289 187.265 238.781 187.429 239.218C187.592 239.655 187.834 240.001 188.153 240.257C188.476 240.509 188.874 240.635 189.346 240.635ZM126.284 260.014C125.766 260.014 125.297 259.919 124.878 259.727C124.459 259.532 124.127 259.249 123.882 258.88C123.64 258.511 123.52 258.058 123.52 257.522C123.52 257.06 123.608 256.68 123.786 256.382C123.964 256.083 124.203 255.847 124.505 255.673C124.807 255.499 125.144 255.368 125.517 255.279C125.89 255.19 126.27 255.123 126.657 255.077C127.147 255.02 127.545 254.974 127.85 254.938C128.156 254.899 128.378 254.837 128.516 254.752C128.655 254.666 128.724 254.528 128.724 254.336V254.299C128.724 253.834 128.592 253.473 128.33 253.218C128.07 252.962 127.683 252.834 127.168 252.834C126.632 252.834 126.21 252.953 125.901 253.191C125.595 253.425 125.384 253.686 125.267 253.974L123.77 253.633C123.948 253.136 124.207 252.735 124.548 252.429C124.892 252.12 125.288 251.897 125.736 251.758C126.183 251.616 126.654 251.545 127.147 251.545C127.474 251.545 127.82 251.584 128.186 251.662C128.555 251.737 128.9 251.875 129.219 252.078C129.542 252.28 129.807 252.57 130.013 252.946C130.219 253.319 130.322 253.804 130.322 254.4V259.833H128.766V258.715H128.703C128.6 258.921 128.445 259.123 128.239 259.322C128.033 259.521 127.769 259.686 127.445 259.817C127.122 259.949 126.735 260.014 126.284 260.014ZM126.63 258.736C127.071 258.736 127.447 258.649 127.76 258.475C128.076 258.301 128.315 258.074 128.479 257.793C128.646 257.509 128.729 257.206 128.729 256.882V255.828C128.672 255.884 128.562 255.938 128.399 255.987C128.239 256.034 128.056 256.074 127.85 256.11C127.644 256.142 127.444 256.172 127.248 256.201C127.053 256.225 126.89 256.247 126.758 256.264C126.449 256.304 126.167 256.369 125.911 256.462C125.659 256.554 125.457 256.687 125.304 256.861C125.155 257.032 125.08 257.259 125.08 257.543C125.08 257.937 125.226 258.235 125.517 258.438C125.808 258.637 126.179 258.736 126.63 258.736ZM136.262 251.652V252.93H131.793V251.652H136.262ZM132.992 249.691H134.585V257.431C134.585 257.74 134.631 257.973 134.723 258.129C134.815 258.282 134.934 258.386 135.08 258.443C135.229 258.496 135.391 258.523 135.565 258.523C135.693 258.523 135.804 258.514 135.9 258.496C135.996 258.479 136.071 258.464 136.124 258.454L136.412 259.769C136.319 259.805 136.188 259.84 136.017 259.876C135.847 259.915 135.634 259.936 135.378 259.94C134.959 259.947 134.569 259.872 134.206 259.716C133.844 259.56 133.551 259.318 133.327 258.992C133.104 258.665 132.992 258.255 132.992 257.761V249.691ZM141.844 251.652V252.93H137.374V251.652H141.844ZM138.573 249.691H140.166V257.431C140.166 257.74 140.212 257.973 140.304 258.129C140.396 258.282 140.515 258.386 140.661 258.443C140.81 258.496 140.972 258.523 141.146 258.523C141.274 258.523 141.385 258.514 141.481 258.496C141.577 258.479 141.652 258.464 141.705 258.454L141.993 259.769C141.9 259.805 141.769 259.84 141.598 259.876C141.428 259.915 141.215 259.936 140.959 259.94C140.54 259.947 140.15 259.872 139.787 259.716C139.425 259.56 139.132 259.318 138.909 258.992C138.685 258.665 138.573 258.255 138.573 257.761V249.691ZM147.044 259.998C146.238 259.998 145.543 259.826 144.961 259.482C144.382 259.134 143.935 258.646 143.619 258.017C143.306 257.385 143.15 256.644 143.15 255.796C143.15 254.958 143.306 254.219 143.619 253.58C143.935 252.941 144.375 252.442 144.94 252.083C145.508 251.724 146.172 251.545 146.932 251.545C147.394 251.545 147.841 251.621 148.274 251.774C148.707 251.927 149.096 252.166 149.441 252.493C149.785 252.82 150.057 253.244 150.256 253.766C150.455 254.285 150.554 254.915 150.554 255.657V256.222H144.05V255.029H148.993C148.993 254.61 148.908 254.239 148.738 253.915C148.567 253.589 148.327 253.331 148.019 253.143C147.713 252.955 147.354 252.861 146.943 252.861C146.495 252.861 146.104 252.971 145.771 253.191C145.44 253.408 145.185 253.692 145.004 254.043C144.826 254.391 144.737 254.769 144.737 255.178V256.11C144.737 256.657 144.833 257.122 145.025 257.506C145.22 257.889 145.492 258.182 145.84 258.384C146.188 258.583 146.595 258.683 147.06 258.683C147.362 258.683 147.637 258.64 147.885 258.555C148.134 258.466 148.349 258.335 148.53 258.161C148.711 257.987 148.849 257.772 148.945 257.516L150.453 257.788C150.332 258.232 150.115 258.621 149.803 258.954C149.494 259.285 149.105 259.542 148.636 259.727C148.171 259.908 147.64 259.998 147.044 259.998ZM153.914 254.975V259.833H152.321V251.652H153.85V252.983H153.951C154.139 252.55 154.434 252.202 154.835 251.939C155.24 251.676 155.75 251.545 156.364 251.545C156.922 251.545 157.41 251.662 157.829 251.897C158.248 252.127 158.573 252.472 158.804 252.93C159.035 253.388 159.15 253.954 159.15 254.629V259.833H157.557V254.821C157.557 254.228 157.403 253.764 157.094 253.431C156.785 253.093 156.361 252.925 155.821 252.925C155.451 252.925 155.123 253.005 154.835 253.164C154.551 253.324 154.326 253.559 154.159 253.867C153.996 254.173 153.914 254.542 153.914 254.975ZM165.105 251.652V252.93H160.636V251.652H165.105ZM161.835 249.691H163.427V257.431C163.427 257.74 163.473 257.973 163.566 258.129C163.658 258.282 163.777 258.386 163.923 258.443C164.072 258.496 164.233 258.523 164.407 258.523C164.535 258.523 164.647 258.514 164.743 258.496C164.839 258.479 164.913 258.464 164.967 258.454L165.254 259.769C165.162 259.805 165.031 259.84 164.86 259.876C164.69 259.915 164.477 259.936 164.221 259.94C163.802 259.947 163.411 259.872 163.049 259.716C162.687 259.56 162.394 259.318 162.17 258.992C161.947 258.665 161.835 258.255 161.835 257.761V249.691ZM166.867 259.833V251.652H168.46V259.833H166.867ZM167.671 250.389C167.394 250.389 167.156 250.297 166.958 250.112C166.762 249.924 166.665 249.7 166.665 249.441C166.665 249.178 166.762 248.954 166.958 248.77C167.156 248.582 167.394 248.487 167.671 248.487C167.948 248.487 168.185 248.582 168.38 248.77C168.579 248.954 168.678 249.178 168.678 249.441C168.678 249.7 168.579 249.924 168.38 250.112C168.185 250.297 167.948 250.389 167.671 250.389ZM174.049 259.998C173.282 259.998 172.612 259.823 172.041 259.471C171.469 259.12 171.025 258.628 170.709 257.996C170.393 257.364 170.235 256.625 170.235 255.78C170.235 254.931 170.393 254.189 170.709 253.553C171.025 252.918 171.469 252.424 172.041 252.072C172.612 251.721 173.282 251.545 174.049 251.545C174.816 251.545 175.485 251.721 176.057 252.072C176.629 252.424 177.073 252.918 177.389 253.553C177.705 254.189 177.863 254.931 177.863 255.78C177.863 256.625 177.705 257.364 177.389 257.996C177.073 258.628 176.629 259.12 176.057 259.471C175.485 259.823 174.816 259.998 174.049 259.998ZM174.054 258.661C174.551 258.661 174.963 258.53 175.29 258.267C175.617 258.005 175.858 257.655 176.014 257.218C176.174 256.781 176.254 256.3 176.254 255.774C176.254 255.252 176.174 254.773 176.014 254.336C175.858 253.896 175.617 253.543 175.29 253.276C174.963 253.01 174.551 252.877 174.054 252.877C173.553 252.877 173.138 253.01 172.808 253.276C172.481 253.543 172.238 253.896 172.078 254.336C171.922 254.773 171.844 255.252 171.844 255.774C171.844 256.3 171.922 256.781 172.078 257.218C172.238 257.655 172.481 258.005 172.808 258.267C173.138 258.53 173.553 258.661 174.054 258.661ZM181.233 254.975V259.833H179.64V251.652H181.169V252.983H181.27C181.459 252.55 181.753 252.202 182.155 251.939C182.56 251.676 183.069 251.545 183.683 251.545C184.241 251.545 184.729 251.662 185.148 251.897C185.567 252.127 185.892 252.472 186.123 252.93C186.354 253.388 186.469 253.954 186.469 254.629V259.833H184.877V254.821C184.877 254.228 184.722 253.764 184.413 253.431C184.104 253.093 183.68 252.925 183.14 252.925C182.771 252.925 182.442 253.005 182.155 253.164C181.871 253.324 181.645 253.559 181.478 253.867C181.315 254.173 181.233 254.542 181.233 254.975Z" fill="#2A2A2F"/>
</svg>
