<svg width="300" height="500" viewBox="0 0 300 500" fill="none" xmlns="http://www.w3.org/2000/svg">
<rect width="300" height="500" rx="7" fill="#F8F3EA"/>
<path d="M101.573 69H235.932C243.297 69 249.265 74.9688 249.265 82.3333V297C249.265 304.365 243.297 310.333 235.932 310.333H101.573C94.208 310.333 88.2393 304.365 88.2393 297V82.3333C88.2393 74.9688 94.208 69 101.573 69Z" stroke="#2A2A2F" stroke-width="1.66667" stroke-miterlimit="10" stroke-linecap="round" stroke-linejoin="round" stroke-dasharray="6.67 6.67"/>
<path d="M123.334 241.333C123.334 238.02 126.02 235.333 129.334 235.333H221.001C224.314 235.333 227.001 238.02 227.001 241.333V273C227.001 276.314 224.314 279 221.001 279H129.334C126.02 279 123.334 276.314 123.334 273V241.333Z" fill="#EABF52" stroke="#2A2A2F" stroke-width="1.66667" stroke-miterlimit="10" stroke-linecap="round" stroke-linejoin="round"/>
<path d="M123.334 199.333C123.334 196.02 126.02 193.333 129.334 193.333H221.001C224.314 193.333 227.001 196.02 227.001 199.333V214C227.001 217.314 224.314 220 221.001 220H129.334C126.02 220 123.334 217.314 123.334 214V199.333Z" fill="#EA9252" stroke="#2A2A2F" stroke-width="1.66667" stroke-miterlimit="10" stroke-linecap="round" stroke-linejoin="round"/>
<path d="M123.334 384C123.334 380.686 126.02 378 129.334 378H221.001C224.314 378 227.001 380.686 227.001 384V398.667C227.001 401.98 224.314 404.667 221.001 404.667H129.334C126.02 404.667 123.334 401.98 123.334 398.667V384Z" fill="#A36DB6" stroke="#2A2A2F" stroke-width="1.66667" stroke-miterlimit="10" stroke-linecap="round" stroke-linejoin="round"/>
<path d="M123.334 130.339C123.334 127.025 126.02 124.339 129.334 124.339H221.001C224.314 124.339 227.001 127.025 227.001 130.339V162C227.001 165.314 224.314 168 221.001 168H129.334C126.02 168 123.334 165.314 123.334 162V130.339Z" fill="#70A8DB" stroke="#2A2A2F" stroke-width="1.66667" stroke-miterlimit="10" stroke-linecap="round" stroke-linejoin="round"/>
<path d="M123.334 87.3333C123.334 84.0196 126.02 81.3333 129.334 81.3333H221.001C224.314 81.3333 227.001 84.0196 227.001 87.3333V102C227.001 105.314 224.314 108 221.001 108H129.334C126.02 108 123.334 105.314 123.334 102V87.3333Z" fill="#EA9252" stroke="#2A2A2F" stroke-width="1.66667" stroke-miterlimit="10" stroke-linecap="round" stroke-linejoin="round"/>
<path d="M175.166 378V367.333" stroke="#2A2A2F" stroke-width="1.66667" stroke-miterlimit="10" stroke-linecap="round" stroke-linejoin="round"/>
<path d="M175.166 360.667V367.333M175.166 360.667L172.666 367.333M175.166 360.667L177.666 367.333" stroke="#2A2A2F" stroke-width="1.66667" stroke-miterlimit="10" stroke-linejoin="round"/>
<path d="M175.166 330.833V288.833" stroke="#2A2A2F" stroke-width="1.66667" stroke-miterlimit="10" stroke-linecap="round" stroke-linejoin="round"/>
<path d="M175.166 282.167V288.833M175.166 282.167L172.666 288.833M175.166 282.167L177.666 288.833" stroke="#2A2A2F" stroke-width="1.66667" stroke-miterlimit="10" stroke-linejoin="round"/>
<path d="M175.166 235.333V229.833" stroke="#2A2A2F" stroke-width="1.66667" stroke-miterlimit="10" stroke-linecap="round" stroke-linejoin="round"/>
<path d="M175.166 223.167V229.833M175.166 223.167L172.666 229.833M175.166 223.167L177.666 229.833" stroke="#2A2A2F" stroke-width="1.66667" stroke-miterlimit="10" stroke-linejoin="round"/>
<path d="M175.166 193.333V177.833" stroke="#2A2A2F" stroke-width="1.66667" stroke-miterlimit="10" stroke-linecap="round" stroke-linejoin="round"/>
<path d="M175.166 171.167V177.833M175.166 171.167L172.666 177.833M175.166 171.167L177.666 177.833" stroke="#2A2A2F" stroke-width="1.66667" stroke-miterlimit="10" stroke-linejoin="round"/>
<path d="M175.166 124.339V117.833" stroke="#2A2A2F" stroke-width="1.66667" stroke-miterlimit="10" stroke-linecap="round" stroke-linejoin="round"/>
<path d="M175.166 111.167V117.833M175.166 111.167L172.666 117.833M175.166 111.167L177.666 117.833" stroke="#2A2A2F" stroke-width="1.66667" stroke-miterlimit="10" stroke-linejoin="round"/>
<path d="M175.166 423.333V414.5" stroke="#2A2A2F" stroke-width="1.66667" stroke-miterlimit="10" stroke-linecap="round" stroke-linejoin="round"/>
<path d="M175.166 407.833V414.5M175.166 407.833L172.666 414.5M175.166 407.833L177.666 414.5" stroke="#2A2A2F" stroke-width="1.66667" stroke-miterlimit="10" stroke-linejoin="round"/>
<path d="M159.875 297.312H110.526C106.844 297.312 103.859 294.333 103.859 290.646C103.859 290.641 103.859 290.635 103.859 290.62L104.12 213.687C104.135 210.031 107.094 207.062 110.75 207.047L113.5 207.026" stroke="#2A2A2F" stroke-width="1.66667" stroke-miterlimit="10" stroke-linecap="round" stroke-linejoin="round"/>
<path d="M120.167 206.99L113.501 207.026M120.167 206.99L113.49 204.526M120.167 206.99L113.516 209.526" stroke="#2A2A2F" stroke-width="1.66667" stroke-miterlimit="10" stroke-linejoin="round"/>
<path d="M175.167 183.979L111.693 184.026C108.032 184.031 105.058 181.083 105.026 177.422L104.313 101.396C104.276 97.7187 107.24 94.7031 110.917 94.6666C110.938 94.6666 110.959 94.6666 110.979 94.6666H113.5" stroke="#2A2A2F" stroke-width="1.66667" stroke-miterlimit="10" stroke-linecap="round" stroke-linejoin="round"/>
<path d="M120.167 94.6666H113.5M120.167 94.6666L113.5 92.1666M120.167 94.6666L113.5 97.1666" stroke="#2A2A2F" stroke-width="1.66667" stroke-miterlimit="10" stroke-linejoin="round"/>
<path d="M175.5 297.313H195.5C199.188 297.313 202.167 294.333 202.167 290.646V288.833" stroke="#2A2A2F" stroke-width="1.66667" stroke-miterlimit="10" stroke-linecap="round" stroke-linejoin="round"/>
<path d="M202.166 282.167V288.833M202.166 282.167L199.666 288.833M202.166 282.167L204.666 288.833" stroke="#2A2A2F" stroke-width="1.66667" stroke-miterlimit="10" stroke-linejoin="round"/>
<path d="M175.499 297.313H155.333C151.65 297.313 148.666 294.333 148.666 290.646V288.833" stroke="#2A2A2F" stroke-width="1.66667" stroke-miterlimit="10" stroke-linecap="round" stroke-linejoin="round"/>
<path d="M148.666 282.167V288.833M148.666 282.167L146.166 288.833M148.666 282.167L151.166 288.833" stroke="#2A2A2F" stroke-width="1.66667" stroke-miterlimit="10" stroke-linejoin="round"/>
<path d="M72.0625 189.646L75.0312 186.677C75.1875 186.495 75.2396 186.469 75.2396 186.365C75.2396 186.182 75.0833 186.052 74.9271 186.052C74.8229 186.052 74.7448 186.104 74.6146 186.26L71.6198 189.229L68.625 186.26C68.4687 186.078 68.4167 186.052 68.3125 186.052C68.1563 186.052 68 186.182 68 186.365C68 186.469 68.0781 186.547 68.2083 186.677L71.1771 189.646L68.2083 192.641C68.0521 192.771 68 192.875 68 192.953C68 193.135 68.1563 193.266 68.3125 193.266C68.4167 193.266 68.4687 193.24 68.625 193.057L71.6198 190.089L74.6146 193.057C74.7448 193.214 74.849 193.266 74.9271 193.266C75.1094 193.266 75.2396 193.135 75.2396 192.953C75.2396 192.849 75.1875 192.823 75.0312 192.641L72.0625 189.646Z" fill="#2A2A2F"/>
<path d="M60.5312 185.93L59.4922 189.484C60.4661 188.031 61.2109 187.076 61.7266 186.617C62.2474 186.159 62.7474 185.93 63.2266 185.93C63.487 185.93 63.7005 186.016 63.8672 186.188C64.0391 186.359 64.125 186.583 64.125 186.859C64.125 187.172 64.0495 187.589 63.8984 188.109L62.9453 191.398C62.8359 191.779 62.7812 192.01 62.7812 192.094C62.7812 192.167 62.8021 192.229 62.8438 192.281C62.8854 192.328 62.9297 192.352 62.9766 192.352C63.0391 192.352 63.1146 192.318 63.2031 192.25C63.4792 192.031 63.7812 191.698 64.1094 191.25L64.3516 191.398C63.8672 192.091 63.4089 192.586 62.9766 192.883C62.6745 193.086 62.4036 193.188 62.1641 193.188C61.9714 193.188 61.8177 193.128 61.7031 193.008C61.5885 192.893 61.5312 192.737 61.5312 192.539C61.5312 192.289 61.6198 191.859 61.7969 191.25L62.7031 188.109C62.8177 187.719 62.875 187.414 62.875 187.195C62.875 187.091 62.8411 187.008 62.7734 186.945C62.7057 186.878 62.6224 186.844 62.5234 186.844C62.3776 186.844 62.2031 186.906 62 187.031C61.6146 187.266 61.2135 187.654 60.7969 188.195C60.3802 188.732 59.9401 189.419 59.4766 190.258C59.2318 190.701 59.0286 191.185 58.8672 191.711L58.4766 193H57.3047L58.7266 188.109C58.8932 187.521 58.9766 187.167 58.9766 187.047C58.9766 186.932 58.9297 186.833 58.8359 186.75C58.7474 186.661 58.6354 186.617 58.5 186.617C58.4375 186.617 58.3281 186.628 58.1719 186.648L57.875 186.695L57.8281 186.414L60.5312 185.93Z" fill="#2A2A2F"/>
<path d="M184.594 334.74C189.803 339.943 189.803 348.385 184.594 353.594C179.386 358.802 170.943 358.802 165.74 353.594C160.532 348.385 160.532 339.943 165.74 334.74C170.943 329.531 179.386 329.531 184.594 334.74Z" stroke="#2A2A2F" stroke-width="1.66667" stroke-miterlimit="10" stroke-linecap="round" stroke-linejoin="round"/>
<path d="M179.562 345.026V344.036H175.656V340.13H174.666V344.036H170.76V345.026H174.666V348.958H175.656V345.026H179.562Z" fill="#2A2A2F"/>
<path d="M39 328.333C39 325.02 41.6863 322.333 45 322.333H136.667C139.98 322.333 142.667 325.02 142.667 328.333V360C142.667 363.314 139.98 366 136.667 366H45C41.6863 366 39 363.314 39 360V328.333Z" stroke="#2A2A2F" stroke-width="1.66667" stroke-miterlimit="10" stroke-linecap="round" stroke-linejoin="round"/>
<path d="M142.666 344.167H151.999" stroke="#2A2A2F" stroke-width="1.66667" stroke-miterlimit="10" stroke-linecap="round" stroke-linejoin="round"/>
<path d="M158.667 344.167H152M158.667 344.167L152 341.667M158.667 344.167L152 346.667" stroke="#2A2A2F" stroke-width="1.66667" stroke-miterlimit="10" stroke-linejoin="round"/>
<path d="M193.053 54L214.053 54" stroke="#2A2A2F" stroke-width="1.66667" stroke-miterlimit="10" stroke-linecap="round" stroke-linejoin="round" stroke-dasharray="3.33 3.33"/>
<path d="M175 81.193L175.167 60.6148C175.193 56.9325 178.198 53.969 181.885 54.0002M181.885 54.0002C181.885 54.0002 181.885 54.0002 181.891 54.0002M181.885 54.0002H190.052" stroke="#2A2A2F" stroke-width="1.66667" stroke-miterlimit="10" stroke-linecap="round" stroke-linejoin="round"/>
<path d="M152.432 434.29C152.375 433.786 152.141 433.395 151.729 433.118C151.317 432.838 150.799 432.697 150.174 432.697C149.726 432.697 149.339 432.768 149.012 432.91C148.686 433.049 148.432 433.241 148.251 433.486C148.073 433.727 147.984 434.002 147.984 434.311C147.984 434.571 148.045 434.794 148.165 434.982C148.29 435.171 148.451 435.329 148.65 435.457C148.853 435.581 149.069 435.686 149.3 435.771C149.531 435.852 149.753 435.92 149.966 435.973L151.031 436.25C151.379 436.335 151.736 436.451 152.102 436.596C152.468 436.742 152.807 436.934 153.119 437.172C153.432 437.41 153.684 437.704 153.876 438.056C154.071 438.408 154.169 438.828 154.169 439.318C154.169 439.936 154.009 440.485 153.689 440.964C153.373 441.444 152.913 441.822 152.31 442.099C151.709 442.376 150.983 442.514 150.131 442.514C149.314 442.514 148.608 442.385 148.011 442.126C147.414 441.866 146.947 441.499 146.61 441.023C146.273 440.544 146.086 439.975 146.051 439.318H147.702C147.734 439.713 147.862 440.041 148.086 440.304C148.313 440.563 148.602 440.757 148.954 440.884C149.309 441.009 149.698 441.071 150.12 441.071C150.586 441.071 150.999 440.998 151.361 440.852C151.727 440.703 152.015 440.497 152.224 440.235C152.434 439.968 152.539 439.658 152.539 439.302C152.539 438.979 152.446 438.715 152.262 438.509C152.081 438.303 151.834 438.132 151.521 437.997C151.212 437.862 150.863 437.743 150.472 437.64L149.183 437.289C148.309 437.051 147.617 436.701 147.105 436.24C146.598 435.778 146.344 435.167 146.344 434.407C146.344 433.779 146.514 433.23 146.855 432.761C147.196 432.292 147.658 431.928 148.24 431.669C148.822 431.406 149.479 431.275 150.211 431.275C150.95 431.275 151.601 431.405 152.166 431.664C152.734 431.923 153.181 432.28 153.508 432.735C153.835 433.186 154.005 433.704 154.019 434.29H152.432ZM159.454 442.498C158.687 442.498 158.018 442.323 157.446 441.971C156.874 441.62 156.43 441.128 156.114 440.496C155.798 439.863 155.64 439.125 155.64 438.28C155.64 437.431 155.798 436.689 156.114 436.053C156.43 435.417 156.874 434.924 157.446 434.572C158.018 434.221 158.687 434.045 159.454 434.045C160.221 434.045 160.89 434.221 161.462 434.572C162.034 434.924 162.478 435.417 162.794 436.053C163.11 436.689 163.268 437.431 163.268 438.28C163.268 439.125 163.11 439.863 162.794 440.496C162.478 441.128 162.034 441.62 161.462 441.971C160.89 442.323 160.221 442.498 159.454 442.498ZM159.459 441.161C159.957 441.161 160.368 441.03 160.695 440.767C161.022 440.504 161.263 440.155 161.42 439.718C161.579 439.281 161.659 438.8 161.659 438.274C161.659 437.752 161.579 437.273 161.42 436.836C161.263 436.396 161.022 436.042 160.695 435.776C160.368 435.51 159.957 435.377 159.459 435.377C158.959 435.377 158.543 435.51 158.213 435.776C157.886 436.042 157.643 436.396 157.483 436.836C157.327 437.273 157.249 437.752 157.249 438.274C157.249 438.8 157.327 439.281 157.483 439.718C157.643 440.155 157.886 440.504 158.213 440.767C158.543 441.03 158.959 441.161 159.459 441.161ZM170.229 438.94V434.151H171.827V442.333H170.261V440.916H170.175C169.987 441.353 169.685 441.717 169.27 442.008C168.858 442.296 168.345 442.44 167.73 442.44C167.205 442.44 166.74 442.324 166.335 442.094C165.934 441.859 165.617 441.513 165.387 441.055C165.159 440.597 165.046 440.03 165.046 439.356V434.151H166.638V439.164C166.638 439.721 166.793 440.165 167.102 440.496C167.411 440.826 167.812 440.991 168.306 440.991C168.604 440.991 168.901 440.916 169.195 440.767C169.494 440.618 169.74 440.393 169.936 440.091C170.135 439.789 170.232 439.405 170.229 438.94ZM173.967 442.333V434.151H175.506V435.451H175.591C175.74 435.011 176.003 434.665 176.38 434.413C176.76 434.157 177.189 434.029 177.669 434.029C177.768 434.029 177.885 434.033 178.02 434.04C178.159 434.047 178.267 434.056 178.345 434.066V435.59C178.281 435.572 178.168 435.552 178.004 435.531C177.841 435.506 177.678 435.494 177.514 435.494C177.138 435.494 176.802 435.574 176.508 435.734C176.216 435.89 175.985 436.108 175.815 436.389C175.645 436.666 175.559 436.982 175.559 437.337V442.333H173.967ZM182.877 442.498C182.085 442.498 181.403 442.319 180.831 441.96C180.263 441.598 179.826 441.099 179.521 440.464C179.216 439.828 179.063 439.1 179.063 438.28C179.063 437.449 179.219 436.715 179.532 436.08C179.844 435.441 180.285 434.942 180.853 434.583C181.421 434.224 182.09 434.045 182.861 434.045C183.482 434.045 184.036 434.16 184.523 434.391C185.009 434.618 185.402 434.938 185.7 435.35C186.002 435.762 186.181 436.243 186.238 436.794H184.688C184.603 436.41 184.407 436.08 184.102 435.803C183.8 435.526 183.395 435.387 182.888 435.387C182.444 435.387 182.055 435.504 181.721 435.739C181.391 435.97 181.133 436.3 180.949 436.73C180.764 437.156 180.672 437.66 180.672 438.242C180.672 438.839 180.762 439.354 180.943 439.787C181.124 440.22 181.38 440.556 181.71 440.794C182.044 441.032 182.437 441.151 182.888 441.151C183.189 441.151 183.463 441.096 183.708 440.986C183.956 440.872 184.164 440.71 184.331 440.501C184.502 440.291 184.621 440.039 184.688 439.745H186.238C186.181 440.274 186.009 440.746 185.721 441.161C185.434 441.577 185.048 441.904 184.565 442.142C184.086 442.379 183.523 442.498 182.877 442.498ZM191.468 442.498C190.661 442.498 189.967 442.326 189.385 441.982C188.806 441.634 188.359 441.145 188.042 440.517C187.73 439.885 187.574 439.144 187.574 438.296C187.574 437.458 187.73 436.719 188.042 436.08C188.359 435.441 188.799 434.942 189.364 434.583C189.932 434.224 190.596 434.045 191.356 434.045C191.817 434.045 192.265 434.121 192.698 434.274C193.131 434.427 193.52 434.666 193.865 434.993C194.209 435.32 194.481 435.744 194.68 436.266C194.878 436.785 194.978 437.415 194.978 438.157V438.722H188.474V437.529H193.417C193.417 437.11 193.332 436.738 193.161 436.415C192.991 436.089 192.751 435.831 192.442 435.643C192.137 435.455 191.778 435.361 191.366 435.361C190.919 435.361 190.528 435.471 190.194 435.691C189.864 435.908 189.609 436.192 189.427 436.543C189.25 436.891 189.161 437.269 189.161 437.678V438.61C189.161 439.157 189.257 439.622 189.449 440.006C189.644 440.389 189.916 440.682 190.264 440.884C190.612 441.083 191.018 441.183 191.484 441.183C191.785 441.183 192.061 441.14 192.309 441.055C192.558 440.966 192.773 440.835 192.954 440.661C193.135 440.487 193.273 440.272 193.369 440.016L194.877 440.288C194.756 440.732 194.539 441.121 194.227 441.454C193.918 441.785 193.529 442.042 193.06 442.227C192.595 442.408 192.064 442.498 191.468 442.498ZM202.876 436.149L201.432 436.405C201.372 436.22 201.276 436.044 201.145 435.877C201.017 435.71 200.843 435.574 200.623 435.467C200.403 435.361 200.127 435.307 199.797 435.307C199.346 435.307 198.97 435.409 198.668 435.611C198.366 435.81 198.215 436.067 198.215 436.383C198.215 436.657 198.316 436.877 198.519 437.044C198.721 437.211 199.048 437.348 199.499 437.454L200.799 437.752C201.551 437.926 202.113 438.194 202.482 438.557C202.851 438.919 203.036 439.389 203.036 439.968C203.036 440.458 202.894 440.895 202.61 441.279C202.329 441.659 201.937 441.957 201.432 442.174C200.932 442.39 200.351 442.498 199.691 442.498C198.774 442.498 198.027 442.303 197.448 441.913C196.869 441.518 196.514 440.959 196.383 440.235L197.922 440C198.018 440.401 198.215 440.705 198.513 440.911C198.812 441.113 199.201 441.215 199.68 441.215C200.202 441.215 200.619 441.106 200.932 440.89C201.244 440.67 201.401 440.401 201.401 440.085C201.401 439.83 201.305 439.615 201.113 439.441C200.925 439.267 200.635 439.136 200.245 439.047L198.86 438.743C198.096 438.569 197.532 438.292 197.166 437.912C196.804 437.532 196.622 437.051 196.622 436.469C196.622 435.986 196.757 435.563 197.027 435.201C197.297 434.839 197.67 434.556 198.146 434.354C198.622 434.148 199.167 434.045 199.781 434.045C200.665 434.045 201.361 434.237 201.869 434.62C202.377 435 202.713 435.51 202.876 436.149Z" fill="#2A2A2F"/>
<path d="M57.2473 340V329.091H61.1358C61.9846 329.091 62.6877 329.245 63.2452 329.554C63.8027 329.863 64.22 330.286 64.497 330.822C64.774 331.355 64.9125 331.955 64.9125 332.623C64.9125 333.294 64.7722 333.897 64.4917 334.434C64.2147 334.966 63.7956 335.389 63.2346 335.701C62.677 336.01 61.9757 336.165 61.1305 336.165H58.4565V334.769H60.9814C61.5176 334.769 61.9526 334.677 62.2864 334.492C62.6202 334.304 62.8652 334.048 63.0215 333.725C63.1777 333.402 63.2559 333.034 63.2559 332.623C63.2559 332.211 63.1777 331.845 63.0215 331.525C62.8652 331.206 62.6184 330.955 62.2811 330.774C61.9473 330.593 61.5069 330.502 60.96 330.502H58.8933V340H57.2473ZM70.0581 340.165C69.291 340.165 68.6216 339.989 68.0499 339.638C67.4782 339.286 67.0343 338.794 66.7182 338.162C66.4022 337.53 66.2441 336.792 66.2441 335.946C66.2441 335.098 66.4022 334.355 66.7182 333.72C67.0343 333.084 67.4782 332.591 68.0499 332.239C68.6216 331.887 69.291 331.712 70.0581 331.712C70.8251 331.712 71.4945 331.887 72.0662 332.239C72.638 332.591 73.0819 333.084 73.3979 333.72C73.714 334.355 73.872 335.098 73.872 335.946C73.872 336.792 73.714 337.53 73.3979 338.162C73.0819 338.794 72.638 339.286 72.0662 339.638C71.4945 339.989 70.8251 340.165 70.0581 340.165ZM70.0634 338.828C70.5605 338.828 70.9725 338.697 71.2992 338.434C71.6259 338.171 71.8674 337.821 72.0236 337.385C72.1834 336.948 72.2633 336.467 72.2633 335.941C72.2633 335.419 72.1834 334.94 72.0236 334.503C71.8674 334.062 71.6259 333.709 71.2992 333.443C70.9725 333.176 70.5605 333.043 70.0634 333.043C69.5627 333.043 69.1472 333.176 68.8169 333.443C68.4902 333.709 68.247 334.062 68.0872 334.503C67.9309 334.94 67.8528 335.419 67.8528 335.941C67.8528 336.467 67.9309 336.948 68.0872 337.385C68.247 337.821 68.4902 338.171 68.8169 338.434C69.1472 338.697 69.5627 338.828 70.0634 338.828ZM81.7808 333.816L80.3373 334.071C80.2769 333.887 80.181 333.711 80.0496 333.544C79.9218 333.377 79.7478 333.24 79.5276 333.134C79.3074 333.027 79.0322 332.974 78.702 332.974C78.251 332.974 77.8746 333.075 77.5727 333.278C77.2709 333.477 77.1199 333.734 77.1199 334.05C77.1199 334.324 77.2211 334.544 77.4236 334.711C77.626 334.877 77.9527 335.014 78.4037 335.121L79.7034 335.419C80.4562 335.593 81.0173 335.861 81.3866 336.223C81.7559 336.586 81.9406 337.056 81.9406 337.635C81.9406 338.125 81.7986 338.562 81.5145 338.945C81.2339 339.325 80.8415 339.624 80.3373 339.84C79.8366 340.057 79.2559 340.165 78.5954 340.165C77.6792 340.165 76.9317 339.97 76.3529 339.579C75.7741 339.185 75.4189 338.626 75.2876 337.901L76.827 337.667C76.9229 338.068 77.1199 338.372 77.4182 338.578C77.7165 338.78 78.1054 338.881 78.5848 338.881C79.1068 338.881 79.5241 338.773 79.8366 338.556C80.1491 338.336 80.3053 338.068 80.3053 337.752C80.3053 337.496 80.2094 337.282 80.0177 337.108C79.8295 336.934 79.54 336.802 79.1494 336.713L77.7645 336.41C77.001 336.236 76.4363 335.959 76.0706 335.579C75.7084 335.199 75.5273 334.718 75.5273 334.135C75.5273 333.652 75.6622 333.23 75.9321 332.868C76.202 332.505 76.5748 332.223 77.0507 332.021C77.5265 331.815 78.0716 331.712 78.686 331.712C79.5702 331.712 80.2662 331.903 80.7741 332.287C81.2819 332.667 81.6175 333.176 81.7808 333.816ZM83.6918 340V331.818H85.2844V340H83.6918ZM84.4961 330.556C84.2191 330.556 83.9812 330.463 83.7823 330.279C83.587 330.091 83.4893 329.867 83.4893 329.608C83.4893 329.345 83.587 329.121 83.7823 328.936C83.9812 328.748 84.2191 328.654 84.4961 328.654C84.7731 328.654 85.0092 328.748 85.2045 328.936C85.4034 329.121 85.5028 329.345 85.5028 329.608C85.5028 329.867 85.4034 330.091 85.2045 330.279C85.0092 330.463 84.7731 330.556 84.4961 330.556ZM91.2464 331.818V333.097H86.7773V331.818H91.2464ZM87.9758 329.858H89.5684V337.598C89.5684 337.907 89.6146 338.139 89.7069 338.295C89.7993 338.448 89.9182 338.553 90.0638 338.61C90.213 338.663 90.3746 338.69 90.5486 338.69C90.6764 338.69 90.7883 338.681 90.8841 338.663C90.98 338.645 91.0546 338.631 91.1079 338.62L91.3955 339.936C91.3032 339.972 91.1718 340.007 91.0013 340.043C90.8309 340.082 90.6178 340.103 90.3621 340.107C89.9431 340.114 89.5525 340.039 89.1903 339.883C88.828 339.727 88.5351 339.485 88.3113 339.158C88.0876 338.832 87.9758 338.422 87.9758 337.928V329.858ZM93.0082 340V331.818H94.6009V340H93.0082ZM93.8125 330.556C93.5355 330.556 93.2976 330.463 93.0987 330.279C92.9034 330.091 92.8058 329.867 92.8058 329.608C92.8058 329.345 92.9034 329.121 93.0987 328.936C93.2976 328.748 93.5355 328.654 93.8125 328.654C94.0895 328.654 94.3256 328.748 94.521 328.936C94.7198 329.121 94.8192 329.345 94.8192 329.608C94.8192 329.867 94.7198 330.091 94.521 330.279C94.3256 330.463 94.0895 330.556 93.8125 330.556ZM100.19 340.165C99.4229 340.165 98.7535 339.989 98.1817 339.638C97.61 339.286 97.1661 338.794 96.8501 338.162C96.534 337.53 96.376 336.792 96.376 335.946C96.376 335.098 96.534 334.355 96.8501 333.72C97.1661 333.084 97.61 332.591 98.1817 332.239C98.7535 331.887 99.4229 331.712 100.19 331.712C100.957 331.712 101.626 331.887 102.198 332.239C102.77 332.591 103.214 333.084 103.53 333.72C103.846 334.355 104.004 335.098 104.004 335.946C104.004 336.792 103.846 337.53 103.53 338.162C103.214 338.794 102.77 339.286 102.198 339.638C101.626 339.989 100.957 340.165 100.19 340.165ZM100.195 338.828C100.692 338.828 101.104 338.697 101.431 338.434C101.758 338.171 101.999 337.821 102.155 337.385C102.315 336.948 102.395 336.467 102.395 335.941C102.395 335.419 102.315 334.94 102.155 334.503C101.999 334.062 101.758 333.709 101.431 333.443C101.104 333.176 100.692 333.043 100.195 333.043C99.6945 333.043 99.279 333.176 98.9488 333.443C98.6221 333.709 98.3788 334.062 98.219 334.503C98.0628 334.94 97.9846 335.419 97.9846 335.941C97.9846 336.467 98.0628 336.948 98.219 337.385C98.3788 337.821 98.6221 338.171 98.9488 338.434C99.279 338.697 99.6945 338.828 100.195 338.828ZM107.374 335.142V340H105.782V331.818H107.31V333.15H107.412C107.6 332.717 107.895 332.369 108.296 332.106C108.701 331.843 109.21 331.712 109.825 331.712C110.382 331.712 110.87 331.829 111.289 332.063C111.708 332.294 112.033 332.638 112.264 333.097C112.495 333.555 112.61 334.121 112.61 334.796V340H111.018V334.988C111.018 334.395 110.863 333.931 110.554 333.597C110.245 333.26 109.821 333.091 109.281 333.091C108.912 333.091 108.583 333.171 108.296 333.331C108.012 333.491 107.786 333.725 107.619 334.034C107.456 334.339 107.374 334.709 107.374 335.142ZM117.127 340.181C116.609 340.181 116.14 340.085 115.721 339.893C115.302 339.698 114.97 339.416 114.725 339.047C114.484 338.677 114.363 338.224 114.363 337.688C114.363 337.227 114.452 336.847 114.629 336.548C114.807 336.25 115.047 336.014 115.348 335.84C115.65 335.666 115.988 335.534 116.36 335.446C116.733 335.357 117.113 335.289 117.5 335.243C117.99 335.186 118.388 335.14 118.694 335.105C118.999 335.066 119.221 335.004 119.359 334.918C119.498 334.833 119.567 334.695 119.567 334.503V334.466C119.567 334 119.436 333.64 119.173 333.384C118.914 333.129 118.527 333.001 118.012 333.001C117.475 333.001 117.053 333.12 116.744 333.358C116.439 333.592 116.227 333.853 116.11 334.141L114.613 333.8C114.791 333.303 115.05 332.901 115.391 332.596C115.735 332.287 116.131 332.063 116.579 331.925C117.026 331.783 117.497 331.712 117.99 331.712C118.317 331.712 118.663 331.751 119.029 331.829C119.398 331.903 119.743 332.042 120.062 332.244C120.386 332.447 120.65 332.736 120.856 333.113C121.062 333.485 121.165 333.97 121.165 334.567V340H119.61V338.881H119.546C119.443 339.087 119.288 339.29 119.082 339.489C118.876 339.687 118.612 339.853 118.289 339.984C117.966 340.115 117.578 340.181 117.127 340.181ZM117.474 338.903C117.914 338.903 118.29 338.816 118.603 338.642C118.919 338.468 119.159 338.24 119.322 337.96C119.489 337.676 119.572 337.372 119.572 337.049V335.994C119.516 336.051 119.406 336.104 119.242 336.154C119.082 336.2 118.9 336.241 118.694 336.277C118.488 336.309 118.287 336.339 118.092 336.367C117.896 336.392 117.733 336.413 117.602 336.431C117.293 336.47 117.01 336.536 116.755 336.628C116.502 336.721 116.3 336.854 116.147 337.028C115.998 337.198 115.924 337.425 115.924 337.71C115.924 338.104 116.069 338.402 116.36 338.604C116.652 338.803 117.023 338.903 117.474 338.903ZM124.879 329.091V340H123.286V329.091H124.879ZM62.2644 358.165C61.4583 358.165 60.7641 357.993 60.1817 357.648C59.6028 357.3 59.1554 356.812 58.8394 356.184C58.5269 355.551 58.3706 354.811 58.3706 353.962C58.3706 353.124 58.5269 352.386 58.8394 351.746C59.1554 351.107 59.5957 350.608 60.1604 350.25C60.7286 349.891 61.3926 349.712 62.1526 349.712C62.6142 349.712 63.0617 349.788 63.4949 349.941C63.9281 350.093 64.317 350.333 64.6614 350.66C65.0059 350.987 65.2776 351.411 65.4764 351.933C65.6753 352.451 65.7747 353.082 65.7747 353.824V354.388H59.2708V353.195H64.214C64.214 352.776 64.1288 352.405 63.9583 352.082C63.7879 351.755 63.5482 351.498 63.2392 351.31C62.9338 351.121 62.5752 351.027 62.1632 351.027C61.7158 351.027 61.3252 351.137 60.9913 351.358C60.6611 351.574 60.4054 351.858 60.2243 352.21C60.0467 352.558 59.958 352.936 59.958 353.344V354.277C59.958 354.824 60.0538 355.289 60.2456 355.672C60.4409 356.056 60.7126 356.349 61.0606 356.551C61.4086 356.75 61.8152 356.849 62.2804 356.849C62.5823 356.849 62.8575 356.807 63.106 356.722C63.3546 356.633 63.5695 356.501 63.7506 356.327C63.9317 356.153 64.0702 355.939 64.1661 355.683L65.6735 355.955C65.5528 356.398 65.3362 356.787 65.0237 357.121C64.7147 357.451 64.3259 357.709 63.8571 357.893C63.3919 358.075 62.861 358.165 62.2644 358.165ZM69.1345 353.142V358H67.5419V349.818H69.0706V351.15H69.1718C69.36 350.717 69.6548 350.369 70.0561 350.106C70.4609 349.843 70.9705 349.712 71.5848 349.712C72.1424 349.712 72.6306 349.829 73.0497 350.063C73.4687 350.294 73.7936 350.638 74.0245 351.097C74.2553 351.555 74.3707 352.121 74.3707 352.796V358H72.778V352.988C72.778 352.395 72.6235 351.931 72.3146 351.597C72.0056 351.26 71.5813 351.091 71.0415 351.091C70.6722 351.091 70.3437 351.171 70.0561 351.331C69.772 351.491 69.5465 351.725 69.3796 352.034C69.2162 352.339 69.1345 352.709 69.1345 353.142ZM79.9531 358.165C79.1612 358.165 78.4794 357.986 77.9076 357.627C77.3394 357.265 76.9027 356.766 76.5973 356.13C76.2919 355.495 76.1392 354.767 76.1392 353.946C76.1392 353.115 76.2954 352.382 76.6079 351.746C76.9204 351.107 77.3608 350.608 77.9289 350.25C78.4971 349.891 79.1665 349.712 79.9371 349.712C80.5585 349.712 81.1125 349.827 81.599 350.058C82.0855 350.285 82.4779 350.605 82.7762 351.017C83.0781 351.429 83.2574 351.91 83.3142 352.46H81.7642C81.6789 352.077 81.4836 351.746 81.1782 351.469C80.8764 351.192 80.4715 351.054 79.9637 351.054C79.5198 351.054 79.131 351.171 78.7972 351.406C78.4669 351.636 78.2095 351.967 78.0248 352.396C77.8402 352.822 77.7478 353.327 77.7478 353.909C77.7478 354.506 77.8384 355.021 78.0195 355.454C78.2006 355.887 78.4563 356.223 78.7865 356.461C79.1203 356.699 79.5127 356.817 79.9637 356.817C80.2656 356.817 80.539 356.762 80.784 356.652C81.0326 356.539 81.2404 356.377 81.4073 356.168C81.5777 355.958 81.6967 355.706 81.7642 355.411H83.3142C83.2574 355.94 83.0852 356.413 82.7975 356.828C82.5099 357.244 82.1246 357.57 81.6416 357.808C81.1622 358.046 80.5994 358.165 79.9531 358.165ZM88.4638 358.165C87.6968 358.165 87.0274 357.989 86.4557 357.638C85.8839 357.286 85.44 356.794 85.124 356.162C84.8079 355.53 84.6499 354.792 84.6499 353.946C84.6499 353.098 84.8079 352.355 85.124 351.72C85.44 351.084 85.8839 350.591 86.4557 350.239C87.0274 349.887 87.6968 349.712 88.4638 349.712C89.2309 349.712 89.9003 349.887 90.472 350.239C91.0437 350.591 91.4876 351.084 91.8037 351.72C92.1197 352.355 92.2777 353.098 92.2777 353.946C92.2777 354.792 92.1197 355.53 91.8037 356.162C91.4876 356.794 91.0437 357.286 90.472 357.638C89.9003 357.989 89.2309 358.165 88.4638 358.165ZM88.4691 356.828C88.9663 356.828 89.3782 356.697 89.7049 356.434C90.0316 356.171 90.2731 355.821 90.4294 355.385C90.5892 354.948 90.6691 354.467 90.6691 353.941C90.6691 353.419 90.5892 352.94 90.4294 352.503C90.2731 352.062 90.0316 351.709 89.7049 351.443C89.3782 351.176 88.9663 351.043 88.4691 351.043C87.9684 351.043 87.553 351.176 87.2227 351.443C86.896 351.709 86.6527 352.062 86.4929 352.503C86.3367 352.94 86.2586 353.419 86.2586 353.941C86.2586 354.467 86.3367 354.948 86.4929 355.385C86.6527 355.821 86.896 356.171 87.2227 356.434C87.553 356.697 87.9684 356.828 88.4691 356.828ZM97.1184 358.16C96.4579 358.16 95.8684 357.991 95.3499 357.654C94.835 357.313 94.4302 356.828 94.1354 356.2C93.8442 355.567 93.6986 354.809 93.6986 353.925C93.6986 353.041 93.846 352.284 94.1408 351.656C94.4391 351.027 94.8474 350.546 95.3659 350.212C95.8844 349.879 96.4721 349.712 97.129 349.712C97.6369 349.712 98.0452 349.797 98.3542 349.967C98.6667 350.134 98.9082 350.33 99.0786 350.553C99.2526 350.777 99.3876 350.974 99.4834 351.145H99.5793V347.091H101.172V358H99.6166V356.727H99.4834C99.3876 356.901 99.2491 357.1 99.068 357.324C98.8904 357.547 98.6454 357.743 98.3329 357.909C98.0204 358.076 97.6155 358.16 97.1184 358.16ZM97.4699 356.801C97.928 356.801 98.3151 356.681 98.6312 356.439C98.9508 356.194 99.1922 355.855 99.3556 355.422C99.5225 354.989 99.606 354.484 99.606 353.909C99.606 353.341 99.5243 352.844 99.3609 352.418C99.1976 351.991 98.9579 351.659 98.6418 351.422C98.3258 351.184 97.9351 351.065 97.4699 351.065C96.9905 351.065 96.591 351.189 96.2714 351.438C95.9518 351.686 95.7104 352.025 95.547 352.455C95.3872 352.885 95.3073 353.369 95.3073 353.909C95.3073 354.456 95.389 354.948 95.5523 355.385C95.7157 355.821 95.9572 356.168 96.2768 356.423C96.5999 356.675 96.9976 356.801 97.4699 356.801ZM103.445 358V349.818H105.038V358H103.445ZM104.25 348.556C103.973 348.556 103.735 348.463 103.536 348.279C103.34 348.091 103.243 347.867 103.243 347.608C103.243 347.345 103.34 347.121 103.536 346.936C103.735 346.748 103.973 346.654 104.25 346.654C104.527 346.654 104.763 346.748 104.958 346.936C105.157 347.121 105.256 347.345 105.256 347.608C105.256 347.867 105.157 348.091 104.958 348.279C104.763 348.463 104.527 348.556 104.25 348.556ZM108.773 353.142V358H107.181V349.818H108.709V351.15H108.811C108.999 350.717 109.293 350.369 109.695 350.106C110.1 349.843 110.609 349.712 111.223 349.712C111.781 349.712 112.269 349.829 112.688 350.063C113.107 350.294 113.432 350.638 113.663 351.097C113.894 351.555 114.009 352.121 114.009 352.796V358H112.417V352.988C112.417 352.395 112.262 351.931 111.953 351.597C111.644 351.26 111.22 351.091 110.68 351.091C110.311 351.091 109.982 351.171 109.695 351.331C109.411 351.491 109.185 351.725 109.018 352.034C108.855 352.339 108.773 352.709 108.773 353.142ZM119.576 361.239C118.926 361.239 118.367 361.153 117.898 360.983C117.433 360.813 117.053 360.587 116.758 360.306C116.463 360.026 116.243 359.719 116.097 359.385L117.466 358.82C117.562 358.977 117.69 359.142 117.85 359.316C118.013 359.493 118.233 359.644 118.51 359.768C118.791 359.893 119.151 359.955 119.592 359.955C120.195 359.955 120.694 359.808 121.089 359.513C121.483 359.222 121.68 358.756 121.68 358.117V356.509H121.579C121.483 356.683 121.344 356.876 121.163 357.089C120.986 357.302 120.741 357.487 120.428 357.643C120.116 357.799 119.709 357.877 119.208 357.877C118.562 357.877 117.98 357.727 117.461 357.425C116.946 357.119 116.538 356.67 116.236 356.077C115.938 355.48 115.788 354.747 115.788 353.877C115.788 353.007 115.936 352.261 116.231 351.64C116.529 351.018 116.937 350.543 117.456 350.212C117.974 349.879 118.562 349.712 119.219 349.712C119.727 349.712 120.137 349.797 120.449 349.967C120.762 350.134 121.005 350.33 121.179 350.553C121.357 350.777 121.493 350.974 121.589 351.145H121.706V349.818H123.267V358.181C123.267 358.884 123.104 359.461 122.777 359.912C122.45 360.363 122.008 360.697 121.451 360.914C120.897 361.13 120.272 361.239 119.576 361.239ZM119.56 356.556C120.018 356.556 120.405 356.45 120.721 356.237C121.041 356.02 121.282 355.711 121.445 355.31C121.612 354.905 121.696 354.42 121.696 353.856C121.696 353.305 121.614 352.821 121.451 352.402C121.287 351.983 121.048 351.656 120.732 351.422C120.416 351.184 120.025 351.065 119.56 351.065C119.08 351.065 118.681 351.189 118.361 351.438C118.042 351.683 117.8 352.016 117.637 352.439C117.477 352.862 117.397 353.334 117.397 353.856C117.397 354.392 117.479 354.863 117.642 355.267C117.806 355.672 118.047 355.988 118.367 356.216C118.69 356.443 119.087 356.556 119.56 356.556Z" fill="#2A2A2F"/>
<path d="M135.586 396V385.091H142.425V386.508H137.232V389.832H142.068V391.243H137.232V394.583H142.489V396H135.586ZM144.496 396V387.818H146.025V389.15H146.126C146.296 388.699 146.575 388.347 146.962 388.095C147.349 387.839 147.813 387.712 148.352 387.712C148.899 387.712 149.357 387.839 149.727 388.095C150.1 388.351 150.375 388.702 150.552 389.15H150.638C150.833 388.713 151.144 388.365 151.57 388.106C151.996 387.843 152.504 387.712 153.093 387.712C153.835 387.712 154.441 387.944 154.91 388.409C155.382 388.875 155.618 389.576 155.618 390.513V396H154.025V390.663C154.025 390.109 153.875 389.707 153.573 389.459C153.271 389.21 152.91 389.086 152.491 389.086C151.973 389.086 151.57 389.246 151.282 389.565C150.995 389.881 150.851 390.288 150.851 390.785V396H149.263V390.561C149.263 390.118 149.125 389.761 148.848 389.491C148.571 389.221 148.21 389.086 147.767 389.086C147.465 389.086 147.186 389.166 146.93 389.326C146.678 389.482 146.474 389.7 146.318 389.981C146.165 390.261 146.089 390.586 146.089 390.956V396H144.496ZM157.881 396V385.091H159.473V389.145H159.569C159.662 388.974 159.795 388.777 159.969 388.553C160.143 388.33 160.384 388.134 160.693 387.967C161.002 387.797 161.41 387.712 161.918 387.712C162.579 387.712 163.168 387.879 163.687 388.212C164.205 388.546 164.612 389.027 164.907 389.656C165.205 390.284 165.354 391.041 165.354 391.925C165.354 392.809 165.207 393.567 164.912 394.2C164.617 394.828 164.212 395.313 163.697 395.654C163.182 395.991 162.595 396.16 161.934 396.16C161.437 396.16 161.03 396.076 160.714 395.909C160.402 395.743 160.157 395.547 159.979 395.324C159.802 395.1 159.665 394.901 159.569 394.727H159.436V396H157.881ZM159.441 391.909C159.441 392.484 159.525 392.989 159.692 393.422C159.859 393.855 160.1 394.194 160.416 394.439C160.732 394.681 161.119 394.801 161.577 394.801C162.053 394.801 162.451 394.675 162.771 394.423C163.09 394.168 163.332 393.821 163.495 393.385C163.662 392.948 163.745 392.456 163.745 391.909C163.745 391.369 163.664 390.885 163.5 390.455C163.341 390.025 163.099 389.686 162.776 389.438C162.456 389.189 162.057 389.065 161.577 389.065C161.116 389.065 160.725 389.184 160.405 389.422C160.089 389.659 159.85 389.991 159.686 390.418C159.523 390.844 159.441 391.341 159.441 391.909ZM170.669 396.165C169.863 396.165 169.168 395.993 168.586 395.648C168.007 395.3 167.56 394.812 167.244 394.184C166.931 393.551 166.775 392.811 166.775 391.962C166.775 391.124 166.931 390.386 167.244 389.746C167.56 389.107 168 388.608 168.565 388.25C169.133 387.891 169.797 387.712 170.557 387.712C171.019 387.712 171.466 387.788 171.899 387.941C172.332 388.093 172.721 388.333 173.066 388.66C173.41 388.987 173.682 389.411 173.881 389.933C174.08 390.451 174.179 391.082 174.179 391.824V392.388H167.675V391.195H172.618C172.618 390.776 172.533 390.405 172.363 390.082C172.192 389.755 171.952 389.498 171.644 389.31C171.338 389.121 170.979 389.027 170.568 389.027C170.12 389.027 169.729 389.137 169.396 389.358C169.065 389.574 168.81 389.858 168.629 390.21C168.451 390.558 168.362 390.936 168.362 391.344V392.277C168.362 392.824 168.458 393.289 168.65 393.672C168.845 394.056 169.117 394.349 169.465 394.551C169.813 394.75 170.22 394.849 170.685 394.849C170.987 394.849 171.262 394.807 171.51 394.722C171.759 394.633 171.974 394.501 172.155 394.327C172.336 394.153 172.474 393.939 172.57 393.683L174.078 393.955C173.957 394.398 173.74 394.787 173.428 395.121C173.119 395.451 172.73 395.709 172.261 395.893C171.796 396.075 171.265 396.165 170.669 396.165ZM179.009 396.16C178.348 396.16 177.759 395.991 177.241 395.654C176.726 395.313 176.321 394.828 176.026 394.2C175.735 393.567 175.589 392.809 175.589 391.925C175.589 391.041 175.737 390.284 176.031 389.656C176.33 389.027 176.738 388.546 177.257 388.212C177.775 387.879 178.363 387.712 179.02 387.712C179.527 387.712 179.936 387.797 180.245 387.967C180.557 388.134 180.799 388.33 180.969 388.553C181.143 388.777 181.278 388.974 181.374 389.145H181.47V385.091H183.063V396H181.507V394.727H181.374C181.278 394.901 181.14 395.1 180.959 395.324C180.781 395.547 180.536 395.743 180.223 395.909C179.911 396.076 179.506 396.16 179.009 396.16ZM179.361 394.801C179.819 394.801 180.206 394.681 180.522 394.439C180.841 394.194 181.083 393.855 181.246 393.422C181.413 392.989 181.497 392.484 181.497 391.909C181.497 391.341 181.415 390.844 181.252 390.418C181.088 389.991 180.848 389.659 180.532 389.422C180.216 389.184 179.826 389.065 179.361 389.065C178.881 389.065 178.482 389.189 178.162 389.438C177.842 389.686 177.601 390.025 177.438 390.455C177.278 390.885 177.198 391.369 177.198 391.909C177.198 392.456 177.28 392.948 177.443 393.385C177.606 393.821 177.848 394.168 178.167 394.423C178.491 394.675 178.888 394.801 179.361 394.801ZM188.399 396.16C187.738 396.16 187.149 395.991 186.63 395.654C186.115 395.313 185.71 394.828 185.416 394.2C185.125 393.567 184.979 392.809 184.979 391.925C184.979 391.041 185.126 390.284 185.421 389.656C185.719 389.027 186.128 388.546 186.646 388.212C187.165 387.879 187.752 387.712 188.409 387.712C188.917 387.712 189.326 387.797 189.634 387.967C189.947 388.134 190.188 388.33 190.359 388.553C190.533 388.777 190.668 388.974 190.764 389.145H190.86V385.091H192.452V396H190.897V394.727H190.764C190.668 394.901 190.529 395.1 190.348 395.324C190.171 395.547 189.926 395.743 189.613 395.909C189.301 396.076 188.896 396.16 188.399 396.16ZM188.75 394.801C189.208 394.801 189.595 394.681 189.911 394.439C190.231 394.194 190.473 393.855 190.636 393.422C190.803 392.989 190.886 392.484 190.886 391.909C190.886 391.341 190.805 390.844 190.641 390.418C190.478 389.991 190.238 389.659 189.922 389.422C189.606 389.184 189.215 389.065 188.75 389.065C188.271 389.065 187.871 389.189 187.552 389.438C187.232 389.686 186.991 390.025 186.827 390.455C186.667 390.885 186.588 391.369 186.588 391.909C186.588 392.456 186.669 392.948 186.833 393.385C186.996 393.821 187.237 394.168 187.557 394.423C187.88 394.675 188.278 394.801 188.75 394.801ZM194.725 396V387.818H196.318V396H194.725ZM195.53 386.556C195.253 386.556 195.015 386.463 194.816 386.279C194.621 386.091 194.523 385.867 194.523 385.608C194.523 385.345 194.621 385.121 194.816 384.936C195.015 384.748 195.253 384.654 195.53 384.654C195.807 384.654 196.043 384.748 196.238 384.936C196.437 385.121 196.537 385.345 196.537 385.608C196.537 385.867 196.437 386.091 196.238 386.279C196.043 386.463 195.807 386.556 195.53 386.556ZM200.053 391.142V396H198.461V387.818H199.99V389.15H200.091C200.279 388.717 200.574 388.369 200.975 388.106C201.38 387.843 201.889 387.712 202.504 387.712C203.061 387.712 203.55 387.829 203.969 388.063C204.388 388.294 204.713 388.638 204.943 389.097C205.174 389.555 205.29 390.121 205.29 390.796V396H203.697V390.988C203.697 390.395 203.542 389.931 203.234 389.597C202.925 389.26 202.5 389.091 201.96 389.091C201.591 389.091 201.263 389.171 200.975 389.331C200.691 389.491 200.465 389.725 200.299 390.034C200.135 390.339 200.053 390.709 200.053 391.142ZM210.856 399.239C210.206 399.239 209.647 399.153 209.178 398.983C208.713 398.813 208.333 398.587 208.038 398.306C207.743 398.026 207.523 397.719 207.378 397.385L208.747 396.82C208.843 396.977 208.97 397.142 209.13 397.316C209.294 397.493 209.514 397.644 209.791 397.768C210.071 397.893 210.432 397.955 210.872 397.955C211.476 397.955 211.975 397.808 212.369 397.513C212.763 397.222 212.96 396.756 212.96 396.117V394.509H212.859C212.763 394.683 212.625 394.876 212.443 395.089C212.266 395.302 212.021 395.487 211.708 395.643C211.396 395.799 210.989 395.877 210.489 395.877C209.842 395.877 209.26 395.727 208.741 395.425C208.226 395.119 207.818 394.67 207.516 394.077C207.218 393.48 207.069 392.747 207.069 391.877C207.069 391.007 207.216 390.261 207.511 389.64C207.809 389.018 208.218 388.543 208.736 388.212C209.254 387.879 209.842 387.712 210.499 387.712C211.007 387.712 211.417 387.797 211.73 387.967C212.042 388.134 212.285 388.33 212.459 388.553C212.637 388.777 212.774 388.974 212.87 389.145H212.987V387.818H214.547V396.181C214.547 396.884 214.384 397.461 214.057 397.912C213.731 398.363 213.289 398.697 212.731 398.914C212.177 399.13 211.552 399.239 210.856 399.239ZM210.84 394.556C211.298 394.556 211.685 394.45 212.001 394.237C212.321 394.02 212.562 393.711 212.726 393.31C212.893 392.905 212.976 392.42 212.976 391.856C212.976 391.305 212.894 390.821 212.731 390.402C212.568 389.983 212.328 389.656 212.012 389.422C211.696 389.184 211.305 389.065 210.84 389.065C210.361 389.065 209.961 389.189 209.642 389.438C209.322 389.683 209.08 390.016 208.917 390.439C208.757 390.862 208.677 391.334 208.677 391.856C208.677 392.392 208.759 392.863 208.922 393.267C209.086 393.672 209.327 393.988 209.647 394.216C209.97 394.443 210.368 394.556 210.84 394.556Z" fill="#2A2A2F"/>
<path d="M135.12 212H133.373L137.299 201.091H139.2L143.126 212H141.379L138.295 203.072H138.21L135.12 212ZM135.413 207.728H141.081V209.113H135.413V207.728ZM147.505 212.16C146.844 212.16 146.255 211.991 145.736 211.654C145.221 211.313 144.816 210.828 144.522 210.2C144.23 209.567 144.085 208.809 144.085 207.925C144.085 207.041 144.232 206.284 144.527 205.656C144.825 205.027 145.234 204.546 145.752 204.212C146.271 203.879 146.858 203.712 147.515 203.712C148.023 203.712 148.431 203.797 148.74 203.967C149.053 204.134 149.294 204.33 149.465 204.553C149.639 204.777 149.774 204.974 149.87 205.145H149.966V201.091H151.558V212H150.003V210.727H149.87C149.774 210.901 149.635 211.1 149.454 211.324C149.277 211.547 149.032 211.743 148.719 211.909C148.407 212.076 148.002 212.16 147.505 212.16ZM147.856 210.801C148.314 210.801 148.701 210.681 149.017 210.439C149.337 210.194 149.578 209.855 149.742 209.422C149.909 208.989 149.992 208.484 149.992 207.909C149.992 207.341 149.911 206.844 149.747 206.418C149.584 205.991 149.344 205.659 149.028 205.422C148.712 205.184 148.321 205.065 147.856 205.065C147.377 205.065 146.977 205.189 146.658 205.438C146.338 205.686 146.097 206.025 145.933 206.455C145.773 206.885 145.694 207.369 145.694 207.909C145.694 208.456 145.775 208.948 145.939 209.385C146.102 209.821 146.343 210.168 146.663 210.423C146.986 210.675 147.384 210.801 147.856 210.801ZM156.894 212.16C156.234 212.16 155.644 211.991 155.126 211.654C154.611 211.313 154.206 210.828 153.911 210.2C153.62 209.567 153.475 208.809 153.475 207.925C153.475 207.041 153.622 206.284 153.917 205.656C154.215 205.027 154.623 204.546 155.142 204.212C155.66 203.879 156.248 203.712 156.905 203.712C157.413 203.712 157.821 203.797 158.13 203.967C158.443 204.134 158.684 204.33 158.854 204.553C159.028 204.777 159.163 204.974 159.259 205.145H159.355V201.091H160.948V212H159.392V210.727H159.259C159.163 210.901 159.025 211.1 158.844 211.324C158.666 211.547 158.421 211.743 158.109 211.909C157.796 212.076 157.391 212.16 156.894 212.16ZM157.246 210.801C157.704 210.801 158.091 210.681 158.407 210.439C158.727 210.194 158.968 209.855 159.131 209.422C159.298 208.989 159.382 208.484 159.382 207.909C159.382 207.341 159.3 206.844 159.137 206.418C158.973 205.991 158.734 205.659 158.418 205.422C158.102 205.184 157.711 205.065 157.246 205.065C156.766 205.065 156.367 205.189 156.047 205.438C155.728 205.686 155.486 206.025 155.323 206.455C155.163 206.885 155.083 207.369 155.083 207.909C155.083 208.456 155.165 208.948 155.328 209.385C155.492 209.821 155.733 210.168 156.053 210.423C156.376 210.675 156.774 210.801 157.246 210.801ZM170.366 212.154C169.634 212.154 169.004 212.021 168.475 211.755C167.949 211.489 167.544 211.126 167.26 210.668C166.976 210.207 166.834 209.685 166.834 209.102C166.834 208.658 166.926 208.264 167.111 207.92C167.296 207.572 167.553 207.25 167.883 206.956C168.214 206.661 168.595 206.364 169.028 206.066L170.786 204.825C171.085 204.63 171.317 204.424 171.484 204.207C171.651 203.987 171.734 203.715 171.734 203.392C171.734 203.136 171.624 202.891 171.404 202.657C171.184 202.423 170.889 202.305 170.52 202.305C170.264 202.305 170.039 202.368 169.843 202.492C169.652 202.616 169.501 202.776 169.391 202.971C169.284 203.163 169.231 203.365 169.231 203.578C169.231 203.827 169.298 204.077 169.433 204.33C169.572 204.582 169.749 204.843 169.966 205.113C170.183 205.379 170.41 205.656 170.648 205.944L175.714 212H173.913L169.721 207.073C169.369 206.657 169.043 206.267 168.741 205.901C168.439 205.532 168.194 205.159 168.006 204.782C167.821 204.402 167.729 203.992 167.729 203.552C167.729 203.051 167.842 202.607 168.07 202.22C168.301 201.83 168.622 201.524 169.034 201.304C169.446 201.084 169.929 200.974 170.483 200.974C171.044 200.974 171.525 201.084 171.926 201.304C172.331 201.521 172.642 201.81 172.858 202.172C173.079 202.531 173.189 202.923 173.189 203.349C173.189 203.868 173.059 204.326 172.8 204.724C172.544 205.118 172.191 205.48 171.74 205.81L169.551 207.424C169.124 207.737 168.828 208.046 168.661 208.351C168.498 208.653 168.416 208.889 168.416 209.06C168.416 209.372 168.496 209.662 168.656 209.928C168.819 210.194 169.046 210.407 169.337 210.567C169.632 210.727 169.977 210.807 170.371 210.807C170.776 210.807 171.17 210.72 171.553 210.546C171.94 210.368 172.29 210.114 172.603 209.784C172.919 209.454 173.169 209.058 173.354 208.596C173.538 208.135 173.631 207.618 173.631 207.046H175.069C175.069 207.749 174.989 208.344 174.829 208.831C174.669 209.314 174.476 209.708 174.249 210.013C174.025 210.315 173.814 210.551 173.615 210.722C173.551 210.778 173.491 210.835 173.434 210.892C173.377 210.949 173.316 211.006 173.253 211.062C172.883 211.435 172.436 211.711 171.91 211.888C171.388 212.066 170.873 212.154 170.366 212.154ZM182.524 207.142V212H180.931V203.818H182.46V205.15H182.561C182.749 204.717 183.044 204.369 183.445 204.106C183.85 203.843 184.36 203.712 184.974 203.712C185.532 203.712 186.02 203.829 186.439 204.063C186.858 204.294 187.183 204.638 187.414 205.097C187.644 205.555 187.76 206.121 187.76 206.796V212H186.167V206.988C186.167 206.395 186.013 205.931 185.704 205.597C185.395 205.26 184.97 205.091 184.431 205.091C184.061 205.091 183.733 205.171 183.445 205.331C183.161 205.491 182.936 205.725 182.769 206.034C182.605 206.339 182.524 206.709 182.524 207.142ZM193.342 212.165C192.575 212.165 191.906 211.989 191.334 211.638C190.762 211.286 190.318 210.794 190.002 210.162C189.686 209.53 189.528 208.792 189.528 207.946C189.528 207.098 189.686 206.355 190.002 205.72C190.318 205.084 190.762 204.591 191.334 204.239C191.906 203.887 192.575 203.712 193.342 203.712C194.109 203.712 194.779 203.887 195.35 204.239C195.922 204.591 196.366 205.084 196.682 205.72C196.998 206.355 197.156 207.098 197.156 207.946C197.156 208.792 196.998 209.53 196.682 210.162C196.366 210.794 195.922 211.286 195.35 211.638C194.779 211.989 194.109 212.165 193.342 212.165ZM193.348 210.828C193.845 210.828 194.257 210.697 194.583 210.434C194.91 210.171 195.152 209.821 195.308 209.385C195.468 208.948 195.547 208.467 195.547 207.941C195.547 207.419 195.468 206.94 195.308 206.503C195.152 206.062 194.91 205.709 194.583 205.443C194.257 205.176 193.845 205.043 193.348 205.043C192.847 205.043 192.431 205.176 192.101 205.443C191.774 205.709 191.531 206.062 191.371 206.503C191.215 206.94 191.137 207.419 191.137 207.941C191.137 208.467 191.215 208.948 191.371 209.385C191.531 209.821 191.774 210.171 192.101 210.434C192.431 210.697 192.847 210.828 193.348 210.828ZM198.934 212V203.818H200.473V205.118H200.559C200.708 204.678 200.971 204.331 201.347 204.079C201.727 203.824 202.157 203.696 202.636 203.696C202.735 203.696 202.853 203.699 202.988 203.706C203.126 203.713 203.234 203.722 203.312 203.733V205.256C203.249 205.239 203.135 205.219 202.972 205.198C202.808 205.173 202.645 205.161 202.482 205.161C202.105 205.161 201.77 205.24 201.475 205.4C201.184 205.556 200.953 205.775 200.782 206.055C200.612 206.332 200.527 206.648 200.527 207.004V212H198.934ZM204.691 212V203.818H206.22V205.15H206.321C206.491 204.699 206.77 204.347 207.157 204.095C207.544 203.839 208.008 203.712 208.547 203.712C209.094 203.712 209.552 203.839 209.922 204.095C210.294 204.351 210.57 204.702 210.747 205.15H210.832C211.028 204.713 211.339 204.365 211.765 204.106C212.191 203.843 212.699 203.712 213.288 203.712C214.03 203.712 214.636 203.944 215.104 204.409C215.577 204.875 215.813 205.576 215.813 206.513V212H214.22V206.663C214.22 206.109 214.069 205.707 213.767 205.459C213.466 205.21 213.105 205.086 212.686 205.086C212.168 205.086 211.765 205.246 211.477 205.565C211.189 205.881 211.046 206.288 211.046 206.785V212H209.458V206.561C209.458 206.118 209.32 205.761 209.043 205.491C208.766 205.221 208.405 205.086 207.961 205.086C207.66 205.086 207.381 205.166 207.125 205.326C206.873 205.482 206.669 205.7 206.513 205.981C206.36 206.261 206.283 206.586 206.283 206.956V212H204.691Z" fill="#2A2A2F"/>
<path d="M135.12 100H133.373L137.299 89.0909H139.2L143.126 100H141.379L138.295 91.0724H138.21L135.12 100ZM135.413 95.728H141.081V97.1129H135.413V95.728ZM147.505 100.16C146.844 100.16 146.255 99.9911 145.736 99.6538C145.221 99.3129 144.816 98.8281 144.522 98.1996C144.23 97.5675 144.085 96.8093 144.085 95.9251C144.085 95.0408 144.232 94.2844 144.527 93.6559C144.825 93.0273 145.234 92.5462 145.752 92.2124C146.271 91.8786 146.858 91.7116 147.515 91.7116C148.023 91.7116 148.431 91.7969 148.74 91.9673C149.053 92.1342 149.294 92.3295 149.465 92.5533C149.639 92.777 149.774 92.9741 149.87 93.1445H149.966V89.0909H151.558V100H150.003V98.7269H149.87C149.774 98.9009 149.635 99.0998 149.454 99.3235C149.277 99.5472 149.032 99.7425 148.719 99.9094C148.407 100.076 148.002 100.16 147.505 100.16ZM147.856 98.8015C148.314 98.8015 148.701 98.6808 149.017 98.4393C149.337 98.1942 149.578 97.8551 149.742 97.4219C149.909 96.9886 149.992 96.4844 149.992 95.9091C149.992 95.3409 149.911 94.8437 149.747 94.4176C149.584 93.9915 149.344 93.6594 149.028 93.4215C148.712 93.1836 148.321 93.0646 147.856 93.0646C147.377 93.0646 146.977 93.1889 146.658 93.4375C146.338 93.6861 146.097 94.0252 145.933 94.4549C145.773 94.8846 145.694 95.3693 145.694 95.9091C145.694 96.456 145.775 96.9478 145.939 97.3846C146.102 97.8214 146.343 98.1676 146.663 98.4233C146.986 98.6754 147.384 98.8015 147.856 98.8015ZM156.894 100.16C156.234 100.16 155.644 99.9911 155.126 99.6538C154.611 99.3129 154.206 98.8281 153.911 98.1996C153.62 97.5675 153.475 96.8093 153.475 95.9251C153.475 95.0408 153.622 94.2844 153.917 93.6559C154.215 93.0273 154.623 92.5462 155.142 92.2124C155.66 91.8786 156.248 91.7116 156.905 91.7116C157.413 91.7116 157.821 91.7969 158.13 91.9673C158.443 92.1342 158.684 92.3295 158.854 92.5533C159.028 92.777 159.163 92.9741 159.259 93.1445H159.355V89.0909H160.948V100H159.392V98.7269H159.259C159.163 98.9009 159.025 99.0998 158.844 99.3235C158.666 99.5472 158.421 99.7425 158.109 99.9094C157.796 100.076 157.391 100.16 156.894 100.16ZM157.246 98.8015C157.704 98.8015 158.091 98.6808 158.407 98.4393C158.727 98.1942 158.968 97.8551 159.131 97.4219C159.298 96.9886 159.382 96.4844 159.382 95.9091C159.382 95.3409 159.3 94.8437 159.137 94.4176C158.973 93.9915 158.734 93.6594 158.418 93.4215C158.102 93.1836 157.711 93.0646 157.246 93.0646C156.766 93.0646 156.367 93.1889 156.047 93.4375C155.728 93.6861 155.486 94.0252 155.323 94.4549C155.163 94.8846 155.083 95.3693 155.083 95.9091C155.083 96.456 155.165 96.9478 155.328 97.3846C155.492 97.8214 155.733 98.1676 156.053 98.4233C156.376 98.6754 156.774 98.8015 157.246 98.8015ZM170.366 100.154C169.634 100.154 169.004 100.021 168.475 99.755C167.949 99.4886 167.544 99.1264 167.26 98.6683C166.976 98.2067 166.834 97.6847 166.834 97.1023C166.834 96.6584 166.926 96.2642 167.111 95.9197C167.296 95.5717 167.553 95.2504 167.883 94.9556C168.214 94.6609 168.595 94.3643 169.028 94.0661L170.786 92.8249C171.085 92.6296 171.317 92.4237 171.484 92.207C171.651 91.9869 171.734 91.7152 171.734 91.392C171.734 91.1364 171.624 90.8913 171.404 90.657C171.184 90.4226 170.889 90.3054 170.52 90.3054C170.264 90.3054 170.039 90.3675 169.843 90.4918C169.652 90.6161 169.501 90.7759 169.391 90.9712C169.284 91.163 169.231 91.3654 169.231 91.5785C169.231 91.8271 169.298 92.0774 169.433 92.3295C169.572 92.5817 169.749 92.8427 169.966 93.1126C170.183 93.3789 170.41 93.6559 170.648 93.9435L175.714 100H173.913L169.721 95.0728C169.369 94.6573 169.043 94.2667 168.741 93.9009C168.439 93.5316 168.194 93.1587 168.006 92.7823C167.821 92.4023 167.729 91.9922 167.729 91.5518C167.729 91.0511 167.842 90.6072 168.07 90.2202C168.301 89.8295 168.622 89.5241 169.034 89.304C169.446 89.0838 169.929 88.9737 170.483 88.9737C171.044 88.9737 171.525 89.0838 171.926 89.304C172.331 89.5206 172.642 89.81 172.858 90.1722C173.079 90.5309 173.189 90.9233 173.189 91.3494C173.189 91.8679 173.059 92.326 172.8 92.7237C172.544 93.1179 172.191 93.4801 171.74 93.8104L169.551 95.4244C169.124 95.7369 168.828 96.0458 168.661 96.3512C168.498 96.6531 168.416 96.8892 168.416 97.0597C168.416 97.3722 168.496 97.6616 168.656 97.9279C168.819 98.1942 169.046 98.4073 169.337 98.5671C169.632 98.7269 169.977 98.8068 170.371 98.8068C170.776 98.8068 171.17 98.7198 171.553 98.5458C171.94 98.3683 172.29 98.1143 172.603 97.7841C172.919 97.4538 173.169 97.0579 173.354 96.5962C173.538 96.1346 173.631 95.6179 173.631 95.0462H175.069C175.069 95.7493 174.989 96.3441 174.829 96.8306C174.669 97.3136 174.476 97.7077 174.249 98.0131C174.025 98.315 173.814 98.5511 173.615 98.7216C173.551 98.7784 173.491 98.8352 173.434 98.892C173.377 98.9489 173.316 99.0057 173.253 99.0625C172.883 99.4354 172.436 99.7106 171.91 99.8881C171.388 100.066 170.873 100.154 170.366 100.154ZM182.524 95.142V100H180.931V91.8182H182.46V93.1499H182.561C182.749 92.7166 183.044 92.3686 183.445 92.1058C183.85 91.843 184.36 91.7116 184.974 91.7116C185.532 91.7116 186.02 91.8288 186.439 92.0632C186.858 92.294 187.183 92.6385 187.414 93.0966C187.644 93.5547 187.76 94.1211 187.76 94.7958V100H186.167V94.9876C186.167 94.3945 186.013 93.9311 185.704 93.5973C185.395 93.2599 184.97 93.0913 184.431 93.0913C184.061 93.0913 183.733 93.1712 183.445 93.331C183.161 93.4908 182.936 93.7251 182.769 94.0341C182.605 94.3395 182.524 94.7088 182.524 95.142ZM193.342 100.165C192.575 100.165 191.906 99.9893 191.334 99.6378C190.762 99.2862 190.318 98.7944 190.002 98.1623C189.686 97.5302 189.528 96.7915 189.528 95.9464C189.528 95.0977 189.686 94.3555 190.002 93.7198C190.318 93.0842 190.762 92.5906 191.334 92.239C191.906 91.8874 192.575 91.7116 193.342 91.7116C194.109 91.7116 194.779 91.8874 195.35 92.239C195.922 92.5906 196.366 93.0842 196.682 93.7198C196.998 94.3555 197.156 95.0977 197.156 95.9464C197.156 96.7915 196.998 97.5302 196.682 98.1623C196.366 98.7944 195.922 99.2862 195.35 99.6378C194.779 99.9893 194.109 100.165 193.342 100.165ZM193.348 98.8281C193.845 98.8281 194.257 98.6967 194.583 98.4339C194.91 98.1712 195.152 97.8214 195.308 97.3846C195.468 96.9478 195.547 96.4666 195.547 95.9411C195.547 95.419 195.468 94.9396 195.308 94.5028C195.152 94.0625 194.91 93.7092 194.583 93.4428C194.257 93.1765 193.845 93.0433 193.348 93.0433C192.847 93.0433 192.431 93.1765 192.101 93.4428C191.774 93.7092 191.531 94.0625 191.371 94.5028C191.215 94.9396 191.137 95.419 191.137 95.9411C191.137 96.4666 191.215 96.9478 191.371 97.3846C191.531 97.8214 191.774 98.1712 192.101 98.4339C192.431 98.6967 192.847 98.8281 193.348 98.8281ZM198.934 100V91.8182H200.473V93.1179H200.559C200.708 92.6776 200.971 92.3313 201.347 92.0792C201.727 91.8235 202.157 91.6957 202.636 91.6957C202.735 91.6957 202.853 91.6992 202.988 91.7063C203.126 91.7134 203.234 91.7223 203.312 91.733V93.2564C203.249 93.2386 203.135 93.2191 202.972 93.1978C202.808 93.1729 202.645 93.1605 202.482 93.1605C202.105 93.1605 201.77 93.2404 201.475 93.4002C201.184 93.5565 200.953 93.7749 200.782 94.0554C200.612 94.3324 200.527 94.6484 200.527 95.0036V100H198.934ZM204.691 100V91.8182H206.22V93.1499H206.321C206.491 92.6989 206.77 92.3473 207.157 92.0952C207.544 91.8395 208.008 91.7116 208.547 91.7116C209.094 91.7116 209.552 91.8395 209.922 92.0952C210.294 92.3509 210.57 92.7024 210.747 93.1499H210.832C211.028 92.7131 211.339 92.3651 211.765 92.1058C212.191 91.843 212.699 91.7116 213.288 91.7116C214.03 91.7116 214.636 91.9442 215.104 92.4094C215.577 92.8746 215.813 93.576 215.813 94.5135V100H214.22V94.6626C214.22 94.1087 214.069 93.7074 213.767 93.4588C213.466 93.2102 213.105 93.0859 212.686 93.0859C212.168 93.0859 211.765 93.2457 211.477 93.5653C211.189 93.8814 211.046 94.288 211.046 94.7852V100H209.458V94.5614C209.458 94.1175 209.32 93.7607 209.043 93.4908C208.766 93.2209 208.405 93.0859 207.961 93.0859C207.66 93.0859 207.381 93.1658 207.125 93.3256C206.873 93.4819 206.669 93.7003 206.513 93.9808C206.36 94.2614 206.283 94.5863 206.283 94.9556V100H204.691Z" fill="#2A2A2F"/>
<path d="M136.631 242.091H138.629L142.102 250.571H142.229L145.703 242.091H147.7V253H146.134V245.106H146.033L142.815 252.984H141.516L138.298 245.1H138.197V253H136.631V242.091ZM155.148 249.607V244.818H156.746V253H155.18V251.583H155.095C154.907 252.02 154.605 252.384 154.189 252.675C153.777 252.963 153.264 253.107 152.65 253.107C152.124 253.107 151.659 252.991 151.254 252.76C150.853 252.526 150.537 252.18 150.306 251.722C150.079 251.263 149.965 250.697 149.965 250.022V244.818H151.558V249.831C151.558 250.388 151.712 250.832 152.021 251.162C152.33 251.493 152.732 251.658 153.225 251.658C153.523 251.658 153.82 251.583 154.115 251.434C154.413 251.285 154.66 251.059 154.855 250.757C155.054 250.456 155.152 250.072 155.148 249.607ZM160.479 242.091V253H158.886V242.091H160.479ZM166.441 244.818V246.097H161.972V244.818H166.441ZM163.17 242.858H164.763V250.598C164.763 250.907 164.809 251.139 164.901 251.295C164.994 251.448 165.113 251.553 165.258 251.61C165.407 251.663 165.569 251.69 165.743 251.69C165.871 251.69 165.983 251.681 166.078 251.663C166.174 251.645 166.249 251.631 166.302 251.62L166.59 252.936C166.498 252.972 166.366 253.007 166.196 253.043C166.025 253.082 165.812 253.103 165.556 253.107C165.137 253.114 164.747 253.039 164.385 252.883C164.022 252.727 163.729 252.485 163.506 252.158C163.282 251.832 163.17 251.422 163.17 250.928V242.858ZM168.203 253V244.818H169.795V253H168.203ZM169.007 243.556C168.73 243.556 168.492 243.463 168.293 243.279C168.098 243.091 168 242.867 168 242.608C168 242.345 168.098 242.121 168.293 241.936C168.492 241.748 168.73 241.654 169.007 241.654C169.284 241.654 169.52 241.748 169.715 241.936C169.914 242.121 170.014 242.345 170.014 242.608C170.014 242.867 169.914 243.091 169.715 243.279C169.52 243.463 169.284 243.556 169.007 243.556ZM176.759 247.7V249.08H171.922V247.7H176.759ZM180.474 248.142V253H178.881V242.091H180.453V246.15H180.554C180.746 245.71 181.039 245.36 181.433 245.1C181.827 244.841 182.342 244.712 182.977 244.712C183.539 244.712 184.029 244.827 184.448 245.058C184.87 245.289 185.197 245.633 185.428 246.091C185.662 246.546 185.779 247.114 185.779 247.796V253H184.187V247.988C184.187 247.387 184.032 246.922 183.723 246.592C183.414 246.258 182.985 246.091 182.434 246.091C182.058 246.091 181.72 246.171 181.422 246.331C181.127 246.491 180.895 246.725 180.724 247.034C180.557 247.339 180.474 247.709 180.474 248.142ZM191.431 253.165C190.625 253.165 189.931 252.993 189.348 252.648C188.769 252.3 188.322 251.812 188.006 251.184C187.693 250.551 187.537 249.811 187.537 248.962C187.537 248.124 187.693 247.386 188.006 246.746C188.322 246.107 188.762 245.608 189.327 245.25C189.895 244.891 190.559 244.712 191.319 244.712C191.781 244.712 192.228 244.788 192.661 244.941C193.095 245.093 193.483 245.333 193.828 245.66C194.172 245.987 194.444 246.411 194.643 246.933C194.842 247.451 194.941 248.082 194.941 248.824V249.388H188.437V248.195H193.381C193.381 247.776 193.295 247.405 193.125 247.082C192.954 246.755 192.715 246.498 192.406 246.31C192.1 246.121 191.742 246.027 191.33 246.027C190.882 246.027 190.492 246.137 190.158 246.358C189.828 246.574 189.572 246.858 189.391 247.21C189.213 247.558 189.124 247.936 189.124 248.344V249.277C189.124 249.824 189.22 250.289 189.412 250.672C189.607 251.056 189.879 251.349 190.227 251.551C190.575 251.75 190.982 251.849 191.447 251.849C191.749 251.849 192.024 251.807 192.273 251.722C192.521 251.633 192.736 251.501 192.917 251.327C193.098 251.153 193.237 250.939 193.333 250.683L194.84 250.955C194.719 251.398 194.503 251.787 194.19 252.121C193.881 252.451 193.492 252.709 193.024 252.893C192.558 253.075 192.028 253.165 191.431 253.165ZM199.089 253.181C198.571 253.181 198.102 253.085 197.683 252.893C197.264 252.698 196.932 252.416 196.687 252.047C196.446 251.677 196.325 251.224 196.325 250.688C196.325 250.227 196.414 249.847 196.591 249.548C196.769 249.25 197.008 249.014 197.31 248.84C197.612 248.666 197.949 248.534 198.322 248.446C198.695 248.357 199.075 248.289 199.462 248.243C199.952 248.186 200.35 248.14 200.655 248.105C200.961 248.066 201.183 248.004 201.321 247.918C201.46 247.833 201.529 247.695 201.529 247.503V247.466C201.529 247 201.398 246.64 201.135 246.384C200.876 246.129 200.489 246.001 199.974 246.001C199.437 246.001 199.015 246.12 198.706 246.358C198.4 246.592 198.189 246.853 198.072 247.141L196.575 246.8C196.753 246.303 197.012 245.901 197.353 245.596C197.697 245.287 198.093 245.063 198.541 244.925C198.988 244.783 199.459 244.712 199.952 244.712C200.279 244.712 200.625 244.751 200.991 244.829C201.36 244.903 201.705 245.042 202.024 245.244C202.348 245.447 202.612 245.736 202.818 246.113C203.024 246.485 203.127 246.97 203.127 247.567V253H201.572V251.881H201.508C201.405 252.087 201.25 252.29 201.044 252.489C200.838 252.687 200.574 252.853 200.251 252.984C199.927 253.115 199.54 253.181 199.089 253.181ZM199.436 251.903C199.876 251.903 200.252 251.816 200.565 251.642C200.881 251.468 201.121 251.24 201.284 250.96C201.451 250.676 201.534 250.372 201.534 250.049V248.994C201.478 249.051 201.367 249.104 201.204 249.154C201.044 249.2 200.861 249.241 200.655 249.277C200.449 249.309 200.249 249.339 200.054 249.367C199.858 249.392 199.695 249.413 199.563 249.431C199.255 249.47 198.972 249.536 198.717 249.628C198.464 249.721 198.262 249.854 198.109 250.028C197.96 250.198 197.886 250.425 197.886 250.71C197.886 251.104 198.031 251.402 198.322 251.604C198.614 251.803 198.985 251.903 199.436 251.903ZM208.311 253.16C207.651 253.16 207.061 252.991 206.543 252.654C206.028 252.313 205.623 251.828 205.328 251.2C205.037 250.567 204.892 249.809 204.892 248.925C204.892 248.041 205.039 247.284 205.334 246.656C205.632 246.027 206.04 245.546 206.559 245.212C207.077 244.879 207.665 244.712 208.322 244.712C208.83 244.712 209.238 244.797 209.547 244.967C209.86 245.134 210.101 245.33 210.271 245.553C210.445 245.777 210.58 245.974 210.676 246.145H210.772V242.091H212.365V253H210.809V251.727H210.676C210.58 251.901 210.442 252.1 210.261 252.324C210.083 252.547 209.838 252.743 209.526 252.909C209.213 253.076 208.808 253.16 208.311 253.16ZM208.663 251.801C209.121 251.801 209.508 251.681 209.824 251.439C210.144 251.194 210.385 250.855 210.548 250.422C210.715 249.989 210.799 249.484 210.799 248.909C210.799 248.341 210.717 247.844 210.554 247.418C210.39 246.991 210.151 246.659 209.835 246.422C209.519 246.184 209.128 246.065 208.663 246.065C208.183 246.065 207.784 246.189 207.464 246.438C207.145 246.686 206.903 247.025 206.74 247.455C206.58 247.885 206.5 248.369 206.5 248.909C206.5 249.456 206.582 249.948 206.745 250.385C206.909 250.821 207.15 251.168 207.47 251.423C207.793 251.675 208.191 251.801 208.663 251.801ZM145.601 271.181C145.082 271.181 144.613 271.085 144.194 270.893C143.775 270.698 143.443 270.416 143.198 270.047C142.957 269.677 142.836 269.224 142.836 268.688C142.836 268.227 142.925 267.847 143.102 267.548C143.28 267.25 143.52 267.014 143.822 266.84C144.123 266.666 144.461 266.534 144.834 266.446C145.206 266.357 145.586 266.289 145.973 266.243C146.464 266.186 146.861 266.14 147.167 266.105C147.472 266.066 147.694 266.004 147.833 265.918C147.971 265.833 148.04 265.695 148.04 265.503V265.466C148.04 265 147.909 264.64 147.646 264.384C147.387 264.129 147 264.001 146.485 264.001C145.949 264.001 145.526 264.12 145.217 264.358C144.912 264.592 144.7 264.853 144.583 265.141L143.086 264.8C143.264 264.303 143.523 263.901 143.864 263.596C144.209 263.287 144.605 263.063 145.052 262.925C145.499 262.783 145.97 262.712 146.464 262.712C146.79 262.712 147.136 262.751 147.502 262.829C147.872 262.903 148.216 263.042 148.536 263.244C148.859 263.447 149.123 263.736 149.329 264.113C149.535 264.485 149.638 264.97 149.638 265.567V271H148.083V269.881H148.019C147.916 270.087 147.761 270.29 147.556 270.489C147.35 270.687 147.085 270.853 146.762 270.984C146.439 271.115 146.052 271.181 145.601 271.181ZM145.947 269.903C146.387 269.903 146.764 269.816 147.076 269.642C147.392 269.468 147.632 269.24 147.795 268.96C147.962 268.676 148.046 268.372 148.046 268.049V266.994C147.989 267.051 147.879 267.104 147.715 267.154C147.556 267.2 147.373 267.241 147.167 267.277C146.961 267.309 146.76 267.339 146.565 267.367C146.369 267.392 146.206 267.413 146.075 267.431C145.766 267.47 145.483 267.536 145.228 267.628C144.976 267.721 144.773 267.854 144.621 268.028C144.471 268.198 144.397 268.425 144.397 268.71C144.397 269.104 144.542 269.402 144.834 269.604C145.125 269.803 145.496 269.903 145.947 269.903ZM155.579 262.818V264.097H151.11V262.818H155.579ZM152.308 260.858H153.901V268.598C153.901 268.907 153.947 269.139 154.039 269.295C154.132 269.448 154.251 269.553 154.396 269.61C154.545 269.663 154.707 269.69 154.881 269.69C155.009 269.69 155.121 269.681 155.217 269.663C155.313 269.645 155.387 269.631 155.44 269.62L155.728 270.936C155.636 270.972 155.504 271.007 155.334 271.043C155.163 271.082 154.95 271.103 154.695 271.107C154.276 271.114 153.885 271.039 153.523 270.883C153.161 270.727 152.868 270.485 152.644 270.158C152.42 269.832 152.308 269.422 152.308 268.928V260.858ZM161.16 262.818V264.097H156.691V262.818H161.16ZM157.889 260.858H159.482V268.598C159.482 268.907 159.528 269.139 159.621 269.295C159.713 269.448 159.832 269.553 159.977 269.61C160.127 269.663 160.288 269.69 160.462 269.69C160.59 269.69 160.702 269.681 160.798 269.663C160.894 269.645 160.968 269.631 161.021 269.62L161.309 270.936C161.217 270.972 161.085 271.007 160.915 271.043C160.744 271.082 160.531 271.103 160.276 271.107C159.857 271.114 159.466 271.039 159.104 270.883C158.742 270.727 158.449 270.485 158.225 270.158C158.001 269.832 157.889 269.422 157.889 268.928V260.858ZM166.36 271.165C165.554 271.165 164.86 270.993 164.277 270.648C163.699 270.3 163.251 269.812 162.935 269.184C162.623 268.551 162.466 267.811 162.466 266.962C162.466 266.124 162.623 265.386 162.935 264.746C163.251 264.107 163.691 263.608 164.256 263.25C164.824 262.891 165.488 262.712 166.248 262.712C166.71 262.712 167.157 262.788 167.591 262.941C168.024 263.093 168.413 263.333 168.757 263.66C169.102 263.987 169.373 264.411 169.572 264.933C169.771 265.451 169.87 266.082 169.87 266.824V267.388H163.367V266.195H168.31C168.31 265.776 168.224 265.405 168.054 265.082C167.884 264.755 167.644 264.498 167.335 264.31C167.03 264.121 166.671 264.027 166.259 264.027C165.811 264.027 165.421 264.137 165.087 264.358C164.757 264.574 164.501 264.858 164.32 265.21C164.142 265.558 164.054 265.936 164.054 266.344V267.277C164.054 267.824 164.15 268.289 164.341 268.672C164.537 269.056 164.808 269.349 165.156 269.551C165.504 269.75 165.911 269.849 166.376 269.849C166.678 269.849 166.953 269.807 167.202 269.722C167.45 269.633 167.665 269.501 167.846 269.327C168.027 269.153 168.166 268.939 168.262 268.683L169.769 268.955C169.648 269.398 169.432 269.787 169.119 270.121C168.81 270.451 168.422 270.709 167.953 270.893C167.488 271.075 166.957 271.165 166.36 271.165ZM173.23 266.142V271H171.638V262.818H173.166V264.15H173.268C173.456 263.717 173.75 263.369 174.152 263.106C174.557 262.843 175.066 262.712 175.681 262.712C176.238 262.712 176.726 262.829 177.145 263.063C177.564 263.294 177.889 263.638 178.12 264.097C178.351 264.555 178.466 265.121 178.466 265.796V271H176.874V265.988C176.874 265.395 176.719 264.931 176.41 264.597C176.101 264.26 175.677 264.091 175.137 264.091C174.768 264.091 174.439 264.171 174.152 264.331C173.868 264.491 173.642 264.725 173.475 265.034C173.312 265.339 173.23 265.709 173.23 266.142ZM184.422 262.818V264.097H179.953V262.818H184.422ZM181.151 260.858H182.744V268.598C182.744 268.907 182.79 269.139 182.882 269.295C182.975 269.448 183.094 269.553 183.239 269.61C183.388 269.663 183.55 269.69 183.724 269.69C183.852 269.69 183.964 269.681 184.059 269.663C184.155 269.645 184.23 269.631 184.283 269.62L184.571 270.936C184.478 270.972 184.347 271.007 184.177 271.043C184.006 271.082 183.793 271.103 183.537 271.107C183.118 271.114 182.728 271.039 182.366 270.883C182.003 270.727 181.71 270.485 181.487 270.158C181.263 269.832 181.151 269.422 181.151 268.928V260.858ZM186.183 271V262.818H187.776V271H186.183ZM186.988 261.556C186.711 261.556 186.473 261.463 186.274 261.279C186.079 261.091 185.981 260.867 185.981 260.608C185.981 260.345 186.079 260.121 186.274 259.936C186.473 259.748 186.711 259.654 186.988 259.654C187.265 259.654 187.501 259.748 187.696 259.936C187.895 260.121 187.995 260.345 187.995 260.608C187.995 260.867 187.895 261.091 187.696 261.279C187.501 261.463 187.265 261.556 186.988 261.556ZM193.365 271.165C192.598 271.165 191.929 270.989 191.357 270.638C190.785 270.286 190.341 269.794 190.025 269.162C189.709 268.53 189.551 267.792 189.551 266.946C189.551 266.098 189.709 265.355 190.025 264.72C190.341 264.084 190.785 263.591 191.357 263.239C191.929 262.887 192.598 262.712 193.365 262.712C194.132 262.712 194.802 262.887 195.373 263.239C195.945 263.591 196.389 264.084 196.705 264.72C197.021 265.355 197.179 266.098 197.179 266.946C197.179 267.792 197.021 268.53 196.705 269.162C196.389 269.794 195.945 270.286 195.373 270.638C194.802 270.989 194.132 271.165 193.365 271.165ZM193.371 269.828C193.868 269.828 194.28 269.697 194.606 269.434C194.933 269.171 195.174 268.821 195.331 268.385C195.491 267.948 195.57 267.467 195.57 266.941C195.57 266.419 195.491 265.94 195.331 265.503C195.174 265.062 194.933 264.709 194.606 264.443C194.28 264.176 193.868 264.043 193.371 264.043C192.87 264.043 192.454 264.176 192.124 264.443C191.797 264.709 191.554 265.062 191.394 265.503C191.238 265.94 191.16 266.419 191.16 266.941C191.16 267.467 191.238 267.948 191.394 268.385C191.554 268.821 191.797 269.171 192.124 269.434C192.454 269.697 192.87 269.828 193.371 269.828ZM200.55 266.142V271H198.957V262.818H200.486V264.15H200.587C200.775 263.717 201.07 263.369 201.471 263.106C201.876 262.843 202.386 262.712 203 262.712C203.557 262.712 204.046 262.829 204.465 263.063C204.884 263.294 205.209 263.638 205.439 264.097C205.67 264.555 205.786 265.121 205.786 265.796V271H204.193V265.988C204.193 265.395 204.039 264.931 203.73 264.597C203.421 264.26 202.996 264.091 202.457 264.091C202.087 264.091 201.759 264.171 201.471 264.331C201.187 264.491 200.962 264.725 200.795 265.034C200.631 265.339 200.55 265.709 200.55 266.142Z" fill="#2A2A2F"/>
<path d="M130.406 142V131.091H134.294C135.143 131.091 135.846 131.245 136.403 131.554C136.961 131.863 137.378 132.286 137.655 132.822C137.932 133.355 138.071 133.955 138.071 134.623C138.071 135.294 137.93 135.897 137.65 136.434C137.373 136.966 136.954 137.389 136.393 137.701C135.835 138.01 135.134 138.165 134.289 138.165H131.615V136.769H134.14C134.676 136.769 135.111 136.677 135.445 136.492C135.778 136.304 136.023 136.048 136.18 135.725C136.336 135.402 136.414 135.034 136.414 134.623C136.414 134.211 136.336 133.845 136.18 133.525C136.023 133.206 135.777 132.955 135.439 132.774C135.105 132.593 134.665 132.502 134.118 132.502H132.051V142H130.406ZM143.216 142.165C142.449 142.165 141.78 141.989 141.208 141.638C140.636 141.286 140.192 140.794 139.876 140.162C139.56 139.53 139.402 138.792 139.402 137.946C139.402 137.098 139.56 136.355 139.876 135.72C140.192 135.084 140.636 134.591 141.208 134.239C141.78 133.887 142.449 133.712 143.216 133.712C143.983 133.712 144.653 133.887 145.224 134.239C145.796 134.591 146.24 135.084 146.556 135.72C146.872 136.355 147.03 137.098 147.03 137.946C147.03 138.792 146.872 139.53 146.556 140.162C146.24 140.794 145.796 141.286 145.224 141.638C144.653 141.989 143.983 142.165 143.216 142.165ZM143.222 140.828C143.719 140.828 144.131 140.697 144.457 140.434C144.784 140.171 145.026 139.821 145.182 139.385C145.342 138.948 145.422 138.467 145.422 137.941C145.422 137.419 145.342 136.94 145.182 136.503C145.026 136.062 144.784 135.709 144.457 135.443C144.131 135.176 143.719 135.043 143.222 135.043C142.721 135.043 142.305 135.176 141.975 135.443C141.648 135.709 141.405 136.062 141.245 136.503C141.089 136.94 141.011 137.419 141.011 137.941C141.011 138.467 141.089 138.948 141.245 139.385C141.405 139.821 141.648 140.171 141.975 140.434C142.305 140.697 142.721 140.828 143.222 140.828ZM154.939 135.816L153.495 136.071C153.435 135.887 153.339 135.711 153.208 135.544C153.08 135.377 152.906 135.24 152.686 135.134C152.466 135.027 152.19 134.974 151.86 134.974C151.409 134.974 151.033 135.075 150.731 135.278C150.429 135.477 150.278 135.734 150.278 136.05C150.278 136.324 150.379 136.544 150.582 136.711C150.784 136.877 151.111 137.014 151.562 137.121L152.862 137.419C153.614 137.593 154.176 137.861 154.545 138.223C154.914 138.586 155.099 139.056 155.099 139.635C155.099 140.125 154.957 140.562 154.673 140.945C154.392 141.325 154 141.624 153.495 141.84C152.995 142.057 152.414 142.165 151.754 142.165C150.837 142.165 150.09 141.97 149.511 141.579C148.932 141.185 148.577 140.626 148.446 139.901L149.985 139.667C150.081 140.068 150.278 140.372 150.576 140.578C150.875 140.78 151.264 140.881 151.743 140.881C152.265 140.881 152.682 140.773 152.995 140.556C153.307 140.336 153.464 140.068 153.464 139.752C153.464 139.496 153.368 139.282 153.176 139.108C152.988 138.934 152.698 138.802 152.308 138.713L150.923 138.41C150.159 138.236 149.595 137.959 149.229 137.579C148.867 137.199 148.685 136.718 148.685 136.135C148.685 135.652 148.82 135.23 149.09 134.868C149.36 134.505 149.733 134.223 150.209 134.021C150.685 133.815 151.23 133.712 151.844 133.712C152.728 133.712 153.424 133.903 153.932 134.287C154.44 134.667 154.776 135.176 154.939 135.816ZM156.85 142V133.818H158.443V142H156.85ZM157.654 132.556C157.377 132.556 157.139 132.463 156.941 132.279C156.745 132.091 156.648 131.867 156.648 131.608C156.648 131.345 156.745 131.121 156.941 130.936C157.139 130.748 157.377 130.654 157.654 130.654C157.931 130.654 158.167 130.748 158.363 130.936C158.562 131.121 158.661 131.345 158.661 131.608C158.661 131.867 158.562 132.091 158.363 132.279C158.167 132.463 157.931 132.556 157.654 132.556ZM164.405 133.818V135.097H159.935V133.818H164.405ZM161.134 131.858H162.727V139.598C162.727 139.907 162.773 140.139 162.865 140.295C162.957 140.448 163.076 140.553 163.222 140.61C163.371 140.663 163.533 140.69 163.707 140.69C163.835 140.69 163.946 140.681 164.042 140.663C164.138 140.645 164.213 140.631 164.266 140.62L164.554 141.936C164.461 141.972 164.33 142.007 164.16 142.043C163.989 142.082 163.776 142.103 163.52 142.107C163.101 142.114 162.711 142.039 162.348 141.883C161.986 141.727 161.693 141.485 161.47 141.158C161.246 140.832 161.134 140.422 161.134 139.928V131.858ZM166.166 142V133.818H167.759V142H166.166ZM166.971 132.556C166.694 132.556 166.456 132.463 166.257 132.279C166.062 132.091 165.964 131.867 165.964 131.608C165.964 131.345 166.062 131.121 166.257 130.936C166.456 130.748 166.694 130.654 166.971 130.654C167.248 130.654 167.484 130.748 167.679 130.936C167.878 131.121 167.977 131.345 167.977 131.608C167.977 131.867 167.878 132.091 167.679 132.279C167.484 132.463 167.248 132.556 166.971 132.556ZM173.348 142.165C172.581 142.165 171.912 141.989 171.34 141.638C170.768 141.286 170.324 140.794 170.008 140.162C169.692 139.53 169.534 138.792 169.534 137.946C169.534 137.098 169.692 136.355 170.008 135.72C170.324 135.084 170.768 134.591 171.34 134.239C171.912 133.887 172.581 133.712 173.348 133.712C174.115 133.712 174.785 133.887 175.356 134.239C175.928 134.591 176.372 135.084 176.688 135.72C177.004 136.355 177.162 137.098 177.162 137.946C177.162 138.792 177.004 139.53 176.688 140.162C176.372 140.794 175.928 141.286 175.356 141.638C174.785 141.989 174.115 142.165 173.348 142.165ZM173.353 140.828C173.851 140.828 174.263 140.697 174.589 140.434C174.916 140.171 175.157 139.821 175.314 139.385C175.473 138.948 175.553 138.467 175.553 137.941C175.553 137.419 175.473 136.94 175.314 136.503C175.157 136.062 174.916 135.709 174.589 135.443C174.263 135.176 173.851 135.043 173.353 135.043C172.853 135.043 172.437 135.176 172.107 135.443C171.78 135.709 171.537 136.062 171.377 136.503C171.221 136.94 171.143 137.419 171.143 137.941C171.143 138.467 171.221 138.948 171.377 139.385C171.537 139.821 171.78 140.171 172.107 140.434C172.437 140.697 172.853 140.828 173.353 140.828ZM180.532 137.142V142H178.94V133.818H180.469V135.15H180.57C180.758 134.717 181.053 134.369 181.454 134.106C181.859 133.843 182.368 133.712 182.983 133.712C183.54 133.712 184.029 133.829 184.448 134.063C184.867 134.294 185.192 134.638 185.422 135.097C185.653 135.555 185.769 136.121 185.769 136.796V142H184.176V136.988C184.176 136.395 184.021 135.931 183.713 135.597C183.404 135.26 182.979 135.091 182.439 135.091C182.07 135.091 181.742 135.171 181.454 135.331C181.17 135.491 180.944 135.725 180.778 136.034C180.614 136.339 180.532 136.709 180.532 137.142ZM189.678 142L187.271 133.818H188.917L190.52 139.827H190.6L192.209 133.818H193.855L195.453 139.8H195.532L197.125 133.818H198.771L196.369 142H194.744L193.082 136.093H192.96L191.298 142H189.678ZM200.283 142V133.818H201.875V142H200.283ZM201.087 132.556C200.81 132.556 200.572 132.463 200.373 132.279C200.178 132.091 200.08 131.867 200.08 131.608C200.08 131.345 200.178 131.121 200.373 130.936C200.572 130.748 200.81 130.654 201.087 130.654C201.364 130.654 201.6 130.748 201.795 130.936C201.994 131.121 202.094 131.345 202.094 131.608C202.094 131.867 201.994 132.091 201.795 132.279C201.6 132.463 201.364 132.556 201.087 132.556ZM210.149 135.816L208.705 136.071C208.645 135.887 208.549 135.711 208.418 135.544C208.29 135.377 208.116 135.24 207.896 135.134C207.676 135.027 207.4 134.974 207.07 134.974C206.619 134.974 206.243 135.075 205.941 135.278C205.639 135.477 205.488 135.734 205.488 136.05C205.488 136.324 205.589 136.544 205.792 136.711C205.994 136.877 206.321 137.014 206.772 137.121L208.072 137.419C208.824 137.593 209.385 137.861 209.755 138.223C210.124 138.586 210.309 139.056 210.309 139.635C210.309 140.125 210.167 140.562 209.883 140.945C209.602 141.325 209.21 141.624 208.705 141.84C208.205 142.057 207.624 142.165 206.964 142.165C206.047 142.165 205.3 141.97 204.721 141.579C204.142 141.185 203.787 140.626 203.656 139.901L205.195 139.667C205.291 140.068 205.488 140.372 205.786 140.578C206.085 140.78 206.474 140.881 206.953 140.881C207.475 140.881 207.892 140.773 208.205 140.556C208.517 140.336 208.673 140.068 208.673 139.752C208.673 139.496 208.578 139.282 208.386 139.108C208.198 138.934 207.908 138.802 207.518 138.713L206.133 138.41C205.369 138.236 204.805 137.959 204.439 137.579C204.077 137.199 203.895 136.718 203.895 136.135C203.895 135.652 204.03 135.23 204.3 134.868C204.57 134.505 204.943 134.223 205.419 134.021C205.895 133.815 206.44 133.712 207.054 133.712C207.938 133.712 208.634 133.903 209.142 134.287C209.65 134.667 209.986 135.176 210.149 135.816ZM215.586 142.165C214.78 142.165 214.086 141.993 213.503 141.648C212.925 141.3 212.477 140.812 212.161 140.184C211.849 139.551 211.692 138.811 211.692 137.962C211.692 137.124 211.849 136.386 212.161 135.746C212.477 135.107 212.918 134.608 213.482 134.25C214.05 133.891 214.714 133.712 215.474 133.712C215.936 133.712 216.383 133.788 216.817 133.941C217.25 134.093 217.639 134.333 217.983 134.66C218.328 134.987 218.599 135.411 218.798 135.933C218.997 136.451 219.097 137.082 219.097 137.824V138.388H212.593V137.195H217.536C217.536 136.776 217.451 136.405 217.28 136.082C217.11 135.755 216.87 135.498 216.561 135.31C216.256 135.121 215.897 135.027 215.485 135.027C215.038 135.027 214.647 135.137 214.313 135.358C213.983 135.574 213.727 135.858 213.546 136.21C213.369 136.558 213.28 136.936 213.28 137.344V138.277C213.28 138.824 213.376 139.289 213.567 139.672C213.763 140.056 214.034 140.349 214.382 140.551C214.73 140.75 215.137 140.849 215.602 140.849C215.904 140.849 216.179 140.807 216.428 140.722C216.676 140.633 216.891 140.501 217.072 140.327C217.253 140.153 217.392 139.939 217.488 139.683L218.995 139.955C218.875 140.398 218.658 140.787 218.345 141.121C218.036 141.451 217.648 141.709 217.179 141.893C216.714 142.075 216.183 142.165 215.586 142.165ZM161.306 160V149.091H168.071V150.508H162.952V153.832H167.587V155.243H162.952V160H161.306ZM170.095 160V149.091H176.86V150.508H171.741V153.832H176.376V155.243H171.741V160H170.095ZM187.69 149.091V160H186.177L180.632 151.999H180.53V160H178.885V149.091H180.408L185.958 157.102H186.06V149.091H187.69Z" fill="#2A2A2F"/>
<path d="M101.573 69H235.932C243.297 69 249.265 74.9688 249.265 82.3333V297C249.265 304.365 243.297 310.333 235.932 310.333H101.573C94.208 310.333 88.2393 304.365 88.2393 297V82.3333C88.2393 74.9688 94.208 69 101.573 69Z" stroke="#2A2A2F" stroke-width="1.66667" stroke-miterlimit="10" stroke-linecap="round" stroke-linejoin="round" stroke-dasharray="6.67 6.67"/>
<path d="M123.334 130.339C123.334 127.025 126.02 124.339 129.334 124.339H221.001C224.314 124.339 227.001 127.025 227.001 130.339V162C227.001 165.314 224.314 168 221.001 168H129.334C126.02 168 123.334 165.314 123.334 162V130.339Z" fill="#70A8DB" stroke="#2A2A2F" stroke-width="1.66667" stroke-miterlimit="10" stroke-linecap="round" stroke-linejoin="round"/>
<path d="M130.406 142V131.091H134.294C135.143 131.091 135.846 131.245 136.403 131.554C136.961 131.863 137.378 132.286 137.655 132.822C137.932 133.355 138.071 133.955 138.071 134.623C138.071 135.294 137.93 135.897 137.65 136.434C137.373 136.966 136.954 137.389 136.393 137.701C135.835 138.01 135.134 138.165 134.289 138.165H131.615V136.769H134.14C134.676 136.769 135.111 136.677 135.445 136.492C135.778 136.304 136.023 136.048 136.18 135.725C136.336 135.402 136.414 135.034 136.414 134.623C136.414 134.211 136.336 133.845 136.18 133.525C136.023 133.206 135.777 132.955 135.439 132.774C135.105 132.593 134.665 132.502 134.118 132.502H132.051V142H130.406ZM143.216 142.165C142.449 142.165 141.78 141.989 141.208 141.638C140.636 141.286 140.192 140.794 139.876 140.162C139.56 139.53 139.402 138.792 139.402 137.946C139.402 137.098 139.56 136.355 139.876 135.72C140.192 135.084 140.636 134.591 141.208 134.239C141.78 133.887 142.449 133.712 143.216 133.712C143.983 133.712 144.653 133.887 145.224 134.239C145.796 134.591 146.24 135.084 146.556 135.72C146.872 136.355 147.03 137.098 147.03 137.946C147.03 138.792 146.872 139.53 146.556 140.162C146.24 140.794 145.796 141.286 145.224 141.638C144.653 141.989 143.983 142.165 143.216 142.165ZM143.222 140.828C143.719 140.828 144.131 140.697 144.457 140.434C144.784 140.171 145.026 139.821 145.182 139.385C145.342 138.948 145.422 138.467 145.422 137.941C145.422 137.419 145.342 136.94 145.182 136.503C145.026 136.062 144.784 135.709 144.457 135.443C144.131 135.176 143.719 135.043 143.222 135.043C142.721 135.043 142.305 135.176 141.975 135.443C141.648 135.709 141.405 136.062 141.245 136.503C141.089 136.94 141.011 137.419 141.011 137.941C141.011 138.467 141.089 138.948 141.245 139.385C141.405 139.821 141.648 140.171 141.975 140.434C142.305 140.697 142.721 140.828 143.222 140.828ZM154.939 135.816L153.495 136.071C153.435 135.887 153.339 135.711 153.208 135.544C153.08 135.377 152.906 135.24 152.686 135.134C152.466 135.027 152.19 134.974 151.86 134.974C151.409 134.974 151.033 135.075 150.731 135.278C150.429 135.477 150.278 135.734 150.278 136.05C150.278 136.324 150.379 136.544 150.582 136.711C150.784 136.877 151.111 137.014 151.562 137.121L152.862 137.419C153.614 137.593 154.176 137.861 154.545 138.223C154.914 138.586 155.099 139.056 155.099 139.635C155.099 140.125 154.957 140.562 154.673 140.945C154.392 141.325 154 141.624 153.495 141.84C152.995 142.057 152.414 142.165 151.754 142.165C150.837 142.165 150.09 141.97 149.511 141.579C148.932 141.185 148.577 140.626 148.446 139.901L149.985 139.667C150.081 140.068 150.278 140.372 150.576 140.578C150.875 140.78 151.264 140.881 151.743 140.881C152.265 140.881 152.682 140.773 152.995 140.556C153.307 140.336 153.464 140.068 153.464 139.752C153.464 139.496 153.368 139.282 153.176 139.108C152.988 138.934 152.698 138.802 152.308 138.713L150.923 138.41C150.159 138.236 149.595 137.959 149.229 137.579C148.867 137.199 148.685 136.718 148.685 136.135C148.685 135.652 148.82 135.23 149.09 134.868C149.36 134.505 149.733 134.223 150.209 134.021C150.685 133.815 151.23 133.712 151.844 133.712C152.728 133.712 153.424 133.903 153.932 134.287C154.44 134.667 154.776 135.176 154.939 135.816ZM156.85 142V133.818H158.443V142H156.85ZM157.654 132.556C157.377 132.556 157.139 132.463 156.941 132.279C156.745 132.091 156.648 131.867 156.648 131.608C156.648 131.345 156.745 131.121 156.941 130.936C157.139 130.748 157.377 130.654 157.654 130.654C157.931 130.654 158.167 130.748 158.363 130.936C158.562 131.121 158.661 131.345 158.661 131.608C158.661 131.867 158.562 132.091 158.363 132.279C158.167 132.463 157.931 132.556 157.654 132.556ZM164.405 133.818V135.097H159.935V133.818H164.405ZM161.134 131.858H162.727V139.598C162.727 139.907 162.773 140.139 162.865 140.295C162.957 140.448 163.076 140.553 163.222 140.61C163.371 140.663 163.533 140.69 163.707 140.69C163.835 140.69 163.946 140.681 164.042 140.663C164.138 140.645 164.213 140.631 164.266 140.62L164.554 141.936C164.461 141.972 164.33 142.007 164.16 142.043C163.989 142.082 163.776 142.103 163.52 142.107C163.101 142.114 162.711 142.039 162.348 141.883C161.986 141.727 161.693 141.485 161.47 141.158C161.246 140.832 161.134 140.422 161.134 139.928V131.858ZM166.166 142V133.818H167.759V142H166.166ZM166.971 132.556C166.694 132.556 166.456 132.463 166.257 132.279C166.062 132.091 165.964 131.867 165.964 131.608C165.964 131.345 166.062 131.121 166.257 130.936C166.456 130.748 166.694 130.654 166.971 130.654C167.248 130.654 167.484 130.748 167.679 130.936C167.878 131.121 167.977 131.345 167.977 131.608C167.977 131.867 167.878 132.091 167.679 132.279C167.484 132.463 167.248 132.556 166.971 132.556ZM173.348 142.165C172.581 142.165 171.912 141.989 171.34 141.638C170.768 141.286 170.324 140.794 170.008 140.162C169.692 139.53 169.534 138.792 169.534 137.946C169.534 137.098 169.692 136.355 170.008 135.72C170.324 135.084 170.768 134.591 171.34 134.239C171.912 133.887 172.581 133.712 173.348 133.712C174.115 133.712 174.785 133.887 175.356 134.239C175.928 134.591 176.372 135.084 176.688 135.72C177.004 136.355 177.162 137.098 177.162 137.946C177.162 138.792 177.004 139.53 176.688 140.162C176.372 140.794 175.928 141.286 175.356 141.638C174.785 141.989 174.115 142.165 173.348 142.165ZM173.353 140.828C173.851 140.828 174.263 140.697 174.589 140.434C174.916 140.171 175.157 139.821 175.314 139.385C175.473 138.948 175.553 138.467 175.553 137.941C175.553 137.419 175.473 136.94 175.314 136.503C175.157 136.062 174.916 135.709 174.589 135.443C174.263 135.176 173.851 135.043 173.353 135.043C172.853 135.043 172.437 135.176 172.107 135.443C171.78 135.709 171.537 136.062 171.377 136.503C171.221 136.94 171.143 137.419 171.143 137.941C171.143 138.467 171.221 138.948 171.377 139.385C171.537 139.821 171.78 140.171 172.107 140.434C172.437 140.697 172.853 140.828 173.353 140.828ZM180.532 137.142V142H178.94V133.818H180.469V135.15H180.57C180.758 134.717 181.053 134.369 181.454 134.106C181.859 133.843 182.368 133.712 182.983 133.712C183.54 133.712 184.029 133.829 184.448 134.063C184.867 134.294 185.192 134.638 185.422 135.097C185.653 135.555 185.769 136.121 185.769 136.796V142H184.176V136.988C184.176 136.395 184.021 135.931 183.713 135.597C183.404 135.26 182.979 135.091 182.439 135.091C182.07 135.091 181.742 135.171 181.454 135.331C181.17 135.491 180.944 135.725 180.778 136.034C180.614 136.339 180.532 136.709 180.532 137.142ZM189.678 142L187.271 133.818H188.917L190.52 139.827H190.6L192.209 133.818H193.855L195.453 139.8H195.532L197.125 133.818H198.771L196.369 142H194.744L193.082 136.093H192.96L191.298 142H189.678ZM200.283 142V133.818H201.875V142H200.283ZM201.087 132.556C200.81 132.556 200.572 132.463 200.373 132.279C200.178 132.091 200.08 131.867 200.08 131.608C200.08 131.345 200.178 131.121 200.373 130.936C200.572 130.748 200.81 130.654 201.087 130.654C201.364 130.654 201.6 130.748 201.795 130.936C201.994 131.121 202.094 131.345 202.094 131.608C202.094 131.867 201.994 132.091 201.795 132.279C201.6 132.463 201.364 132.556 201.087 132.556ZM210.149 135.816L208.705 136.071C208.645 135.887 208.549 135.711 208.418 135.544C208.29 135.377 208.116 135.24 207.896 135.134C207.676 135.027 207.4 134.974 207.07 134.974C206.619 134.974 206.243 135.075 205.941 135.278C205.639 135.477 205.488 135.734 205.488 136.05C205.488 136.324 205.589 136.544 205.792 136.711C205.994 136.877 206.321 137.014 206.772 137.121L208.072 137.419C208.824 137.593 209.385 137.861 209.755 138.223C210.124 138.586 210.309 139.056 210.309 139.635C210.309 140.125 210.167 140.562 209.883 140.945C209.602 141.325 209.21 141.624 208.705 141.84C208.205 142.057 207.624 142.165 206.964 142.165C206.047 142.165 205.3 141.97 204.721 141.579C204.142 141.185 203.787 140.626 203.656 139.901L205.195 139.667C205.291 140.068 205.488 140.372 205.786 140.578C206.085 140.78 206.474 140.881 206.953 140.881C207.475 140.881 207.892 140.773 208.205 140.556C208.517 140.336 208.673 140.068 208.673 139.752C208.673 139.496 208.578 139.282 208.386 139.108C208.198 138.934 207.908 138.802 207.518 138.713L206.133 138.41C205.369 138.236 204.805 137.959 204.439 137.579C204.077 137.199 203.895 136.718 203.895 136.135C203.895 135.652 204.03 135.23 204.3 134.868C204.57 134.505 204.943 134.223 205.419 134.021C205.895 133.815 206.44 133.712 207.054 133.712C207.938 133.712 208.634 133.903 209.142 134.287C209.65 134.667 209.986 135.176 210.149 135.816ZM215.586 142.165C214.78 142.165 214.086 141.993 213.503 141.648C212.925 141.3 212.477 140.812 212.161 140.184C211.849 139.551 211.692 138.811 211.692 137.962C211.692 137.124 211.849 136.386 212.161 135.746C212.477 135.107 212.918 134.608 213.482 134.25C214.05 133.891 214.714 133.712 215.474 133.712C215.936 133.712 216.383 133.788 216.817 133.941C217.25 134.093 217.639 134.333 217.983 134.66C218.328 134.987 218.599 135.411 218.798 135.933C218.997 136.451 219.097 137.082 219.097 137.824V138.388H212.593V137.195H217.536C217.536 136.776 217.451 136.405 217.28 136.082C217.11 135.755 216.87 135.498 216.561 135.31C216.256 135.121 215.897 135.027 215.485 135.027C215.038 135.027 214.647 135.137 214.313 135.358C213.983 135.574 213.727 135.858 213.546 136.21C213.369 136.558 213.28 136.936 213.28 137.344V138.277C213.28 138.824 213.376 139.289 213.567 139.672C213.763 140.056 214.034 140.349 214.382 140.551C214.73 140.75 215.137 140.849 215.602 140.849C215.904 140.849 216.179 140.807 216.428 140.722C216.676 140.633 216.891 140.501 217.072 140.327C217.253 140.153 217.392 139.939 217.488 139.683L218.995 139.955C218.875 140.398 218.658 140.787 218.345 141.121C218.036 141.451 217.648 141.709 217.179 141.893C216.714 142.075 216.183 142.165 215.586 142.165ZM161.306 160V149.091H168.071V150.508H162.952V153.832H167.587V155.243H162.952V160H161.306ZM170.095 160V149.091H176.86V150.508H171.741V153.832H176.376V155.243H171.741V160H170.095ZM187.69 149.091V160H186.177L180.632 151.999H180.53V160H178.885V149.091H180.408L185.958 157.102H186.06V149.091H187.69Z" fill="#2A2A2F"/>
</svg>
