<svg width="270" height="370" viewBox="0 0 270 370" fill="none" xmlns="http://www.w3.org/2000/svg">
<rect width="270" height="370" rx="7" fill="#F8F3EA"/>
<path d="M159 44L180 44" stroke="#2A2A2F" stroke-width="1.66667" stroke-miterlimit="10" stroke-linecap="round" stroke-linejoin="round" stroke-dasharray="3.33 3.33"/>
<path d="M67.3333 58.8596H201.693C209.057 58.8596 215.026 64.8284 215.026 72.193V286.86C215.026 294.224 209.057 300.193 201.693 300.193H67.3333C59.9688 300.193 54 294.224 54 286.86V72.193C54 64.8284 59.9688 58.8596 67.3333 58.8596Z" stroke="#2A2A2F" stroke-width="1.66667" stroke-miterlimit="10" stroke-linecap="round" stroke-linejoin="round" stroke-dasharray="6.67 6.67"/>
<path d="M89 231.193C89 227.879 91.6863 225.193 95 225.193H186.667C189.98 225.193 192.667 227.879 192.667 231.193V262.86C192.667 266.173 189.98 268.86 186.667 268.86H95C91.6863 268.86 89 266.173 89 262.86V231.193Z" fill="#EABF52" stroke="#2A2A2F" stroke-width="1.66667" stroke-miterlimit="10" stroke-linecap="round" stroke-linejoin="round"/>
<path d="M89 189.193C89 185.879 91.6863 183.193 95 183.193H186.667C189.98 183.193 192.667 185.879 192.667 189.193V203.86C192.667 207.173 189.98 209.86 186.667 209.86H95C91.6863 209.86 89 207.173 89 203.86V189.193Z" fill="#EA9252" stroke="#2A2A2F" stroke-width="1.66667" stroke-miterlimit="10" stroke-linecap="round" stroke-linejoin="round"/>
<path d="M89 120.198C89 116.885 91.6863 114.198 95 114.198H186.667C189.98 114.198 192.667 116.885 192.667 120.198V151.86C192.667 155.173 189.98 157.86 186.667 157.86H95C91.6863 157.86 89 155.173 89 151.86V120.198Z" fill="#70A8DB" stroke="#2A2A2F" stroke-width="1.66667" stroke-miterlimit="10" stroke-linecap="round" stroke-linejoin="round"/>
<path d="M89 77.193C89 73.8793 91.6863 71.193 95 71.193H186.667C189.98 71.193 192.667 73.8793 192.667 77.193V91.8597C192.667 95.1734 189.98 97.8597 186.667 97.8597H95C91.6863 97.8597 89 95.1734 89 91.8597V77.193Z" fill="#EA9252" stroke="#2A2A2F" stroke-width="1.66667" stroke-miterlimit="10" stroke-linecap="round" stroke-linejoin="round"/>
<path d="M141 302L141 279" stroke="#2A2A2F" stroke-width="1.66667" stroke-miterlimit="10" stroke-linecap="round" stroke-linejoin="round"/>
<path d="M141 326V305" stroke="#2A2A2F" stroke-width="1.66667" stroke-miterlimit="10" stroke-linecap="round" stroke-linejoin="round" stroke-dasharray="3.33 3.33"/>
<path d="M140.833 272.026V278.693M140.833 272.026L138.333 278.693M140.833 272.026L143.333 278.693" stroke="#2A2A2F" stroke-width="1.66667" stroke-miterlimit="10" stroke-linejoin="round"/>
<path d="M140.833 225.193V219.693" stroke="#2A2A2F" stroke-width="1.66667" stroke-miterlimit="10" stroke-linecap="round" stroke-linejoin="round"/>
<path d="M140.833 213.026V219.693V225.193M140.833 213.026L138.333 219.693M140.833 213.026L143.333 219.693" stroke="#2A2A2F" stroke-width="1.66667" stroke-miterlimit="10" stroke-linejoin="round"/>
<path d="M140.833 183.193V167.693" stroke="#2A2A2F" stroke-width="1.66667" stroke-miterlimit="10" stroke-linecap="round" stroke-linejoin="round"/>
<path d="M140.833 161.026V167.693M140.833 161.026L138.333 167.693M140.833 161.026L143.333 167.693" stroke="#2A2A2F" stroke-width="1.66667" stroke-miterlimit="10" stroke-linejoin="round"/>
<path d="M140.833 114.198V107.693" stroke="#2A2A2F" stroke-width="1.66667" stroke-miterlimit="10" stroke-linecap="round" stroke-linejoin="round"/>
<path d="M140.833 101.026V107.693M140.833 101.026L138.333 107.693M140.833 101.026L143.333 107.693" stroke="#2A2A2F" stroke-width="1.66667" stroke-miterlimit="10" stroke-linejoin="round"/>
<path d="M125.542 287.172H76.1925C72.5103 287.172 69.5259 284.193 69.5259 280.506C69.5259 280.5 69.5259 280.495 69.5259 280.479L69.7863 203.547C69.8019 199.891 72.7602 196.922 76.4165 196.907L79.1665 196.886" stroke="#2A2A2F" stroke-width="1.66667" stroke-miterlimit="10" stroke-linecap="round" stroke-linejoin="round"/>
<path d="M85.8333 196.849L79.1666 196.886M85.8333 196.849L79.1562 194.386M85.8333 196.849L79.1823 199.386" stroke="#2A2A2F" stroke-width="1.66667" stroke-miterlimit="10" stroke-linejoin="round"/>
<path d="M140.833 173.839L77.3591 173.886C73.6976 173.891 70.7237 170.943 70.6924 167.282L69.9788 91.2555C69.9424 87.5785 72.9059 84.5628 76.583 84.5264C76.6038 84.5264 76.6247 84.5264 76.6455 84.5264H79.1663" stroke="#2A2A2F" stroke-width="1.66667" stroke-miterlimit="10" stroke-linecap="round" stroke-linejoin="round"/>
<path d="M85.8332 84.5264H79.1665M85.8332 84.5264L79.1665 82.0264M85.8332 84.5264L79.1665 87.0264" stroke="#2A2A2F" stroke-width="1.66667" stroke-miterlimit="10" stroke-linejoin="round"/>
<path d="M140.948 71.193L141.114 50.6148C141.14 46.9325 144.146 43.969 147.833 44.0002M147.833 44.0002C147.833 44.0002 147.833 44.0002 147.838 44.0002M147.833 44.0002H156" stroke="#2A2A2F" stroke-width="1.66667" stroke-miterlimit="10" stroke-linecap="round" stroke-linejoin="round"/>
<path d="M141.167 287.172H161.167C164.854 287.172 167.833 284.193 167.833 280.505V278.693" stroke="#2A2A2F" stroke-width="1.66667" stroke-miterlimit="10" stroke-linecap="round" stroke-linejoin="round"/>
<path d="M167.833 272.026V278.693M167.833 272.026L165.333 278.693M167.833 272.026L170.333 278.693" stroke="#2A2A2F" stroke-width="1.66667" stroke-miterlimit="10" stroke-linejoin="round"/>
<path d="M141.166 287.172H121C117.317 287.172 114.333 284.193 114.333 280.505V278.693" stroke="#2A2A2F" stroke-width="1.66667" stroke-miterlimit="10" stroke-linecap="round" stroke-linejoin="round"/>
<path d="M114.333 272.026V278.693M114.333 272.026L111.833 278.693M114.333 272.026L116.833 278.693" stroke="#2A2A2F" stroke-width="1.66667" stroke-miterlimit="10" stroke-linejoin="round"/>
<path d="M96.4055 132V121.091H100.294C101.143 121.091 101.846 121.245 102.403 121.554C102.961 121.863 103.378 122.286 103.655 122.822C103.932 123.355 104.071 123.955 104.071 124.623C104.071 125.294 103.93 125.897 103.65 126.434C103.373 126.966 102.954 127.389 102.393 127.701C101.835 128.01 101.134 128.165 100.289 128.165H97.6147V126.769H100.14C100.676 126.769 101.111 126.677 101.445 126.492C101.778 126.304 102.023 126.048 102.18 125.725C102.336 125.402 102.414 125.034 102.414 124.623C102.414 124.211 102.336 123.845 102.18 123.525C102.023 123.206 101.777 122.955 101.439 122.774C101.105 122.593 100.665 122.502 100.118 122.502H98.0515V132H96.4055ZM109.216 132.165C108.449 132.165 107.78 131.989 107.208 131.638C106.636 131.286 106.192 130.794 105.876 130.162C105.56 129.53 105.402 128.792 105.402 127.946C105.402 127.098 105.56 126.355 105.876 125.72C106.192 125.084 106.636 124.591 107.208 124.239C107.78 123.887 108.449 123.712 109.216 123.712C109.983 123.712 110.653 123.887 111.224 124.239C111.796 124.591 112.24 125.084 112.556 125.72C112.872 126.355 113.03 127.098 113.03 127.946C113.03 128.792 112.872 129.53 112.556 130.162C112.24 130.794 111.796 131.286 111.224 131.638C110.653 131.989 109.983 132.165 109.216 132.165ZM109.222 130.828C109.719 130.828 110.131 130.697 110.457 130.434C110.784 130.171 111.026 129.821 111.182 129.385C111.342 128.948 111.422 128.467 111.422 127.941C111.422 127.419 111.342 126.94 111.182 126.503C111.026 126.062 110.784 125.709 110.457 125.443C110.131 125.176 109.719 125.043 109.222 125.043C108.721 125.043 108.305 125.176 107.975 125.443C107.648 125.709 107.405 126.062 107.245 126.503C107.089 126.94 107.011 127.419 107.011 127.941C107.011 128.467 107.089 128.948 107.245 129.385C107.405 129.821 107.648 130.171 107.975 130.434C108.305 130.697 108.721 130.828 109.222 130.828ZM120.939 125.816L119.495 126.071C119.435 125.887 119.339 125.711 119.208 125.544C119.08 125.377 118.906 125.24 118.686 125.134C118.466 125.027 118.19 124.974 117.86 124.974C117.409 124.974 117.033 125.075 116.731 125.278C116.429 125.477 116.278 125.734 116.278 126.05C116.278 126.324 116.379 126.544 116.582 126.711C116.784 126.877 117.111 127.014 117.562 127.121L118.862 127.419C119.614 127.593 120.176 127.861 120.545 128.223C120.914 128.586 121.099 129.056 121.099 129.635C121.099 130.125 120.957 130.562 120.673 130.945C120.392 131.325 120 131.624 119.495 131.84C118.995 132.057 118.414 132.165 117.754 132.165C116.837 132.165 116.09 131.97 115.511 131.579C114.932 131.185 114.577 130.626 114.446 129.901L115.985 129.667C116.081 130.068 116.278 130.372 116.576 130.578C116.875 130.78 117.264 130.881 117.743 130.881C118.265 130.881 118.682 130.773 118.995 130.556C119.307 130.336 119.464 130.068 119.464 129.752C119.464 129.496 119.368 129.282 119.176 129.108C118.988 128.934 118.698 128.802 118.308 128.713L116.923 128.41C116.159 128.236 115.595 127.959 115.229 127.579C114.867 127.199 114.685 126.718 114.685 126.135C114.685 125.652 114.82 125.23 115.09 124.868C115.36 124.505 115.733 124.223 116.209 124.021C116.685 123.815 117.23 123.712 117.844 123.712C118.728 123.712 119.424 123.903 119.932 124.287C120.44 124.667 120.776 125.176 120.939 125.816ZM122.85 132V123.818H124.443V132H122.85ZM123.654 122.556C123.377 122.556 123.139 122.463 122.941 122.279C122.745 122.091 122.648 121.867 122.648 121.608C122.648 121.345 122.745 121.121 122.941 120.936C123.139 120.748 123.377 120.654 123.654 120.654C123.931 120.654 124.167 120.748 124.363 120.936C124.562 121.121 124.661 121.345 124.661 121.608C124.661 121.867 124.562 122.091 124.363 122.279C124.167 122.463 123.931 122.556 123.654 122.556ZM130.405 123.818V125.097H125.935V123.818H130.405ZM127.134 121.858H128.727V129.598C128.727 129.907 128.773 130.139 128.865 130.295C128.957 130.448 129.076 130.553 129.222 130.61C129.371 130.663 129.533 130.69 129.707 130.69C129.835 130.69 129.946 130.681 130.042 130.663C130.138 130.645 130.213 130.631 130.266 130.62L130.554 131.936C130.461 131.972 130.33 132.007 130.16 132.043C129.989 132.082 129.776 132.103 129.52 132.107C129.101 132.114 128.711 132.039 128.348 131.883C127.986 131.727 127.693 131.485 127.47 131.158C127.246 130.832 127.134 130.422 127.134 129.928V121.858ZM132.166 132V123.818H133.759V132H132.166ZM132.971 122.556C132.694 122.556 132.456 122.463 132.257 122.279C132.062 122.091 131.964 121.867 131.964 121.608C131.964 121.345 132.062 121.121 132.257 120.936C132.456 120.748 132.694 120.654 132.971 120.654C133.248 120.654 133.484 120.748 133.679 120.936C133.878 121.121 133.977 121.345 133.977 121.608C133.977 121.867 133.878 122.091 133.679 122.279C133.484 122.463 133.248 122.556 132.971 122.556ZM139.348 132.165C138.581 132.165 137.912 131.989 137.34 131.638C136.768 131.286 136.324 130.794 136.008 130.162C135.692 129.53 135.534 128.792 135.534 127.946C135.534 127.098 135.692 126.355 136.008 125.72C136.324 125.084 136.768 124.591 137.34 124.239C137.912 123.887 138.581 123.712 139.348 123.712C140.115 123.712 140.785 123.887 141.356 124.239C141.928 124.591 142.372 125.084 142.688 125.72C143.004 126.355 143.162 127.098 143.162 127.946C143.162 128.792 143.004 129.53 142.688 130.162C142.372 130.794 141.928 131.286 141.356 131.638C140.785 131.989 140.115 132.165 139.348 132.165ZM139.353 130.828C139.851 130.828 140.263 130.697 140.589 130.434C140.916 130.171 141.157 129.821 141.314 129.385C141.473 128.948 141.553 128.467 141.553 127.941C141.553 127.419 141.473 126.94 141.314 126.503C141.157 126.062 140.916 125.709 140.589 125.443C140.263 125.176 139.851 125.043 139.353 125.043C138.853 125.043 138.437 125.176 138.107 125.443C137.78 125.709 137.537 126.062 137.377 126.503C137.221 126.94 137.143 127.419 137.143 127.941C137.143 128.467 137.221 128.948 137.377 129.385C137.537 129.821 137.78 130.171 138.107 130.434C138.437 130.697 138.853 130.828 139.353 130.828ZM146.532 127.142V132H144.94V123.818H146.469V125.15H146.57C146.758 124.717 147.053 124.369 147.454 124.106C147.859 123.843 148.368 123.712 148.983 123.712C149.54 123.712 150.029 123.829 150.448 124.063C150.867 124.294 151.192 124.638 151.422 125.097C151.653 125.555 151.769 126.121 151.769 126.796V132H150.176V126.988C150.176 126.395 150.021 125.931 149.713 125.597C149.404 125.26 148.979 125.091 148.439 125.091C148.07 125.091 147.742 125.171 147.454 125.331C147.17 125.491 146.944 125.725 146.778 126.034C146.614 126.339 146.532 126.709 146.532 127.142ZM155.678 132L153.271 123.818H154.917L156.52 129.827H156.6L158.209 123.818H159.855L161.453 129.8H161.532L163.125 123.818H164.771L162.369 132H160.744L159.082 126.093H158.96L157.298 132H155.678ZM166.283 132V123.818H167.875V132H166.283ZM167.087 122.556C166.81 122.556 166.572 122.463 166.373 122.279C166.178 122.091 166.08 121.867 166.08 121.608C166.08 121.345 166.178 121.121 166.373 120.936C166.572 120.748 166.81 120.654 167.087 120.654C167.364 120.654 167.6 120.748 167.795 120.936C167.994 121.121 168.094 121.345 168.094 121.608C168.094 121.867 167.994 122.091 167.795 122.279C167.6 122.463 167.364 122.556 167.087 122.556ZM176.149 125.816L174.705 126.071C174.645 125.887 174.549 125.711 174.418 125.544C174.29 125.377 174.116 125.24 173.896 125.134C173.676 125.027 173.4 124.974 173.07 124.974C172.619 124.974 172.243 125.075 171.941 125.278C171.639 125.477 171.488 125.734 171.488 126.05C171.488 126.324 171.589 126.544 171.792 126.711C171.994 126.877 172.321 127.014 172.772 127.121L174.072 127.419C174.824 127.593 175.385 127.861 175.755 128.223C176.124 128.586 176.309 129.056 176.309 129.635C176.309 130.125 176.167 130.562 175.883 130.945C175.602 131.325 175.21 131.624 174.705 131.84C174.205 132.057 173.624 132.165 172.964 132.165C172.047 132.165 171.3 131.97 170.721 131.579C170.142 131.185 169.787 130.626 169.656 129.901L171.195 129.667C171.291 130.068 171.488 130.372 171.786 130.578C172.085 130.78 172.474 130.881 172.953 130.881C173.475 130.881 173.892 130.773 174.205 130.556C174.517 130.336 174.673 130.068 174.673 129.752C174.673 129.496 174.578 129.282 174.386 129.108C174.198 128.934 173.908 128.802 173.518 128.713L172.133 128.41C171.369 128.236 170.805 127.959 170.439 127.579C170.077 127.199 169.895 126.718 169.895 126.135C169.895 125.652 170.03 125.23 170.3 124.868C170.57 124.505 170.943 124.223 171.419 124.021C171.895 123.815 172.44 123.712 173.054 123.712C173.938 123.712 174.634 123.903 175.142 124.287C175.65 124.667 175.986 125.176 176.149 125.816ZM181.586 132.165C180.78 132.165 180.086 131.993 179.503 131.648C178.925 131.3 178.477 130.812 178.161 130.184C177.849 129.551 177.692 128.811 177.692 127.962C177.692 127.124 177.849 126.386 178.161 125.746C178.477 125.107 178.918 124.608 179.482 124.25C180.05 123.891 180.714 123.712 181.474 123.712C181.936 123.712 182.383 123.788 182.817 123.941C183.25 124.093 183.639 124.333 183.983 124.66C184.328 124.987 184.599 125.411 184.798 125.933C184.997 126.451 185.097 127.082 185.097 127.824V128.388H178.593V127.195H183.536C183.536 126.776 183.451 126.405 183.28 126.082C183.11 125.755 182.87 125.498 182.561 125.31C182.256 125.121 181.897 125.027 181.485 125.027C181.038 125.027 180.647 125.137 180.313 125.358C179.983 125.574 179.727 125.858 179.546 126.21C179.369 126.558 179.28 126.936 179.28 127.344V128.277C179.28 128.824 179.376 129.289 179.567 129.672C179.763 130.056 180.034 130.349 180.382 130.551C180.73 130.75 181.137 130.849 181.602 130.849C181.904 130.849 182.179 130.807 182.428 130.722C182.676 130.633 182.891 130.501 183.072 130.327C183.253 130.153 183.392 129.939 183.488 129.683L184.995 129.955C184.875 130.398 184.658 130.787 184.345 131.121C184.036 131.451 183.648 131.709 183.179 131.893C182.714 132.075 182.183 132.165 181.586 132.165ZM127.306 150V139.091H134.071V140.508H128.952V143.832H133.587V145.243H128.952V150H127.306ZM136.095 150V139.091H142.86V140.508H137.741V143.832H142.376V145.243H137.741V150H136.095ZM153.69 139.091V150H152.177L146.632 141.999H146.53V150H144.885V139.091H146.408L151.958 147.102H152.06V139.091H153.69Z" fill="#2A2A2F"/>
<path d="M102.631 232.091H104.629L108.102 240.571H108.229L111.703 232.091H113.7V243H112.134V235.106H112.033L108.815 242.984H107.516L104.298 235.1H104.197V243H102.631V232.091ZM121.148 239.607V234.818H122.746V243H121.18V241.583H121.095C120.907 242.02 120.605 242.384 120.189 242.675C119.777 242.963 119.264 243.107 118.65 243.107C118.124 243.107 117.659 242.991 117.254 242.76C116.853 242.526 116.537 242.18 116.306 241.722C116.079 241.263 115.965 240.697 115.965 240.022V234.818H117.558V239.831C117.558 240.388 117.712 240.832 118.021 241.162C118.33 241.493 118.732 241.658 119.225 241.658C119.523 241.658 119.82 241.583 120.115 241.434C120.413 241.285 120.66 241.059 120.855 240.757C121.054 240.456 121.152 240.072 121.148 239.607ZM126.479 232.091V243H124.886V232.091H126.479ZM132.441 234.818V236.097H127.972V234.818H132.441ZM129.17 232.858H130.763V240.598C130.763 240.907 130.809 241.139 130.901 241.295C130.994 241.448 131.113 241.553 131.258 241.61C131.407 241.663 131.569 241.69 131.743 241.69C131.871 241.69 131.983 241.681 132.078 241.663C132.174 241.645 132.249 241.631 132.302 241.62L132.59 242.936C132.498 242.972 132.366 243.007 132.196 243.043C132.025 243.082 131.812 243.103 131.556 243.107C131.137 243.114 130.747 243.039 130.385 242.883C130.022 242.727 129.729 242.485 129.506 242.158C129.282 241.832 129.17 241.422 129.17 240.928V232.858ZM134.203 243V234.818H135.795V243H134.203ZM135.007 233.556C134.73 233.556 134.492 233.463 134.293 233.279C134.098 233.091 134 232.867 134 232.608C134 232.345 134.098 232.121 134.293 231.936C134.492 231.748 134.73 231.654 135.007 231.654C135.284 231.654 135.52 231.748 135.715 231.936C135.914 232.121 136.014 232.345 136.014 232.608C136.014 232.867 135.914 233.091 135.715 233.279C135.52 233.463 135.284 233.556 135.007 233.556ZM142.759 237.7V239.08H137.922V237.7H142.759ZM146.474 238.142V243H144.881V232.091H146.453V236.15H146.554C146.746 235.71 147.039 235.36 147.433 235.1C147.827 234.841 148.342 234.712 148.977 234.712C149.539 234.712 150.029 234.827 150.448 235.058C150.87 235.289 151.197 235.633 151.428 236.091C151.662 236.546 151.779 237.114 151.779 237.796V243H150.187V237.988C150.187 237.387 150.032 236.922 149.723 236.592C149.414 236.258 148.985 236.091 148.434 236.091C148.058 236.091 147.72 236.171 147.422 236.331C147.127 236.491 146.895 236.725 146.724 237.034C146.557 237.339 146.474 237.709 146.474 238.142ZM157.431 243.165C156.625 243.165 155.931 242.993 155.348 242.648C154.769 242.3 154.322 241.812 154.006 241.184C153.693 240.551 153.537 239.811 153.537 238.962C153.537 238.124 153.693 237.386 154.006 236.746C154.322 236.107 154.762 235.608 155.327 235.25C155.895 234.891 156.559 234.712 157.319 234.712C157.781 234.712 158.228 234.788 158.661 234.941C159.095 235.093 159.483 235.333 159.828 235.66C160.172 235.987 160.444 236.411 160.643 236.933C160.842 237.451 160.941 238.082 160.941 238.824V239.388H154.437V238.195H159.381C159.381 237.776 159.295 237.405 159.125 237.082C158.954 236.755 158.715 236.498 158.406 236.31C158.1 236.121 157.742 236.027 157.33 236.027C156.882 236.027 156.492 236.137 156.158 236.358C155.828 236.574 155.572 236.858 155.391 237.21C155.213 237.558 155.124 237.936 155.124 238.344V239.277C155.124 239.824 155.22 240.289 155.412 240.672C155.607 241.056 155.879 241.349 156.227 241.551C156.575 241.75 156.982 241.849 157.447 241.849C157.749 241.849 158.024 241.807 158.273 241.722C158.521 241.633 158.736 241.501 158.917 241.327C159.098 241.153 159.237 240.939 159.333 240.683L160.84 240.955C160.719 241.398 160.503 241.787 160.19 242.121C159.881 242.451 159.492 242.709 159.024 242.893C158.558 243.075 158.028 243.165 157.431 243.165ZM165.089 243.181C164.571 243.181 164.102 243.085 163.683 242.893C163.264 242.698 162.932 242.416 162.687 242.047C162.446 241.677 162.325 241.224 162.325 240.688C162.325 240.227 162.414 239.847 162.591 239.548C162.769 239.25 163.008 239.014 163.31 238.84C163.612 238.666 163.949 238.534 164.322 238.446C164.695 238.357 165.075 238.289 165.462 238.243C165.952 238.186 166.35 238.14 166.655 238.105C166.961 238.066 167.183 238.004 167.321 237.918C167.46 237.833 167.529 237.695 167.529 237.503V237.466C167.529 237 167.398 236.64 167.135 236.384C166.876 236.129 166.489 236.001 165.974 236.001C165.437 236.001 165.015 236.12 164.706 236.358C164.4 236.592 164.189 236.853 164.072 237.141L162.575 236.8C162.753 236.303 163.012 235.901 163.353 235.596C163.697 235.287 164.093 235.063 164.541 234.925C164.988 234.783 165.459 234.712 165.952 234.712C166.279 234.712 166.625 234.751 166.991 234.829C167.36 234.903 167.705 235.042 168.024 235.244C168.348 235.447 168.612 235.736 168.818 236.113C169.024 236.485 169.127 236.97 169.127 237.567V243H167.572V241.881H167.508C167.405 242.087 167.25 242.29 167.044 242.489C166.838 242.687 166.574 242.853 166.251 242.984C165.927 243.115 165.54 243.181 165.089 243.181ZM165.436 241.903C165.876 241.903 166.252 241.816 166.565 241.642C166.881 241.468 167.121 241.24 167.284 240.96C167.451 240.676 167.534 240.372 167.534 240.049V238.994C167.478 239.051 167.367 239.104 167.204 239.154C167.044 239.2 166.861 239.241 166.655 239.277C166.449 239.309 166.249 239.339 166.054 239.367C165.858 239.392 165.695 239.413 165.563 239.431C165.255 239.47 164.972 239.536 164.717 239.628C164.464 239.721 164.262 239.854 164.109 240.028C163.96 240.198 163.886 240.425 163.886 240.71C163.886 241.104 164.031 241.402 164.322 241.604C164.614 241.803 164.985 241.903 165.436 241.903ZM174.311 243.16C173.651 243.16 173.061 242.991 172.543 242.654C172.028 242.313 171.623 241.828 171.328 241.2C171.037 240.567 170.892 239.809 170.892 238.925C170.892 238.041 171.039 237.284 171.334 236.656C171.632 236.027 172.04 235.546 172.559 235.212C173.077 234.879 173.665 234.712 174.322 234.712C174.83 234.712 175.238 234.797 175.547 234.967C175.86 235.134 176.101 235.33 176.271 235.553C176.445 235.777 176.58 235.974 176.676 236.145H176.772V232.091H178.365V243H176.809V241.727H176.676C176.58 241.901 176.442 242.1 176.261 242.324C176.083 242.547 175.838 242.743 175.526 242.909C175.213 243.076 174.808 243.16 174.311 243.16ZM174.663 241.801C175.121 241.801 175.508 241.681 175.824 241.439C176.144 241.194 176.385 240.855 176.548 240.422C176.715 239.989 176.799 239.484 176.799 238.909C176.799 238.341 176.717 237.844 176.554 237.418C176.39 236.991 176.151 236.659 175.835 236.422C175.519 236.184 175.128 236.065 174.663 236.065C174.183 236.065 173.784 236.189 173.464 236.438C173.145 236.686 172.903 237.025 172.74 237.455C172.58 237.885 172.5 238.369 172.5 238.909C172.5 239.456 172.582 239.948 172.745 240.385C172.909 240.821 173.15 241.168 173.47 241.423C173.793 241.675 174.191 241.801 174.663 241.801ZM111.601 261.181C111.082 261.181 110.613 261.085 110.194 260.893C109.775 260.698 109.443 260.416 109.198 260.047C108.957 259.677 108.836 259.224 108.836 258.688C108.836 258.227 108.925 257.847 109.102 257.548C109.28 257.25 109.52 257.014 109.822 256.84C110.123 256.666 110.461 256.534 110.834 256.446C111.206 256.357 111.586 256.289 111.973 256.243C112.464 256.186 112.861 256.14 113.167 256.105C113.472 256.066 113.694 256.004 113.833 255.918C113.971 255.833 114.04 255.695 114.04 255.503V255.466C114.04 255 113.909 254.64 113.646 254.384C113.387 254.129 113 254.001 112.485 254.001C111.949 254.001 111.526 254.12 111.217 254.358C110.912 254.592 110.7 254.853 110.583 255.141L109.086 254.8C109.264 254.303 109.523 253.901 109.864 253.596C110.209 253.287 110.605 253.063 111.052 252.925C111.499 252.783 111.97 252.712 112.464 252.712C112.79 252.712 113.136 252.751 113.502 252.829C113.872 252.903 114.216 253.042 114.536 253.244C114.859 253.447 115.123 253.736 115.329 254.113C115.535 254.485 115.638 254.97 115.638 255.567V261H114.083V259.881H114.019C113.916 260.087 113.761 260.29 113.556 260.489C113.35 260.687 113.085 260.853 112.762 260.984C112.439 261.115 112.052 261.181 111.601 261.181ZM111.947 259.903C112.387 259.903 112.764 259.816 113.076 259.642C113.392 259.468 113.632 259.24 113.795 258.96C113.962 258.676 114.046 258.372 114.046 258.049V256.994C113.989 257.051 113.879 257.104 113.715 257.154C113.556 257.2 113.373 257.241 113.167 257.277C112.961 257.309 112.76 257.339 112.565 257.367C112.369 257.392 112.206 257.413 112.075 257.431C111.766 257.47 111.483 257.536 111.228 257.628C110.976 257.721 110.773 257.854 110.621 258.028C110.471 258.198 110.397 258.425 110.397 258.71C110.397 259.104 110.542 259.402 110.834 259.604C111.125 259.803 111.496 259.903 111.947 259.903ZM121.579 252.818V254.097H117.11V252.818H121.579ZM118.308 250.858H119.901V258.598C119.901 258.907 119.947 259.139 120.039 259.295C120.132 259.448 120.251 259.553 120.396 259.61C120.545 259.663 120.707 259.69 120.881 259.69C121.009 259.69 121.121 259.681 121.217 259.663C121.313 259.645 121.387 259.631 121.44 259.62L121.728 260.936C121.636 260.972 121.504 261.007 121.334 261.043C121.163 261.082 120.95 261.103 120.695 261.107C120.276 261.114 119.885 261.039 119.523 260.883C119.161 260.727 118.868 260.485 118.644 260.158C118.42 259.832 118.308 259.422 118.308 258.928V250.858ZM127.16 252.818V254.097H122.691V252.818H127.16ZM123.889 250.858H125.482V258.598C125.482 258.907 125.528 259.139 125.621 259.295C125.713 259.448 125.832 259.553 125.977 259.61C126.127 259.663 126.288 259.69 126.462 259.69C126.59 259.69 126.702 259.681 126.798 259.663C126.894 259.645 126.968 259.631 127.021 259.62L127.309 260.936C127.217 260.972 127.085 261.007 126.915 261.043C126.744 261.082 126.531 261.103 126.276 261.107C125.857 261.114 125.466 261.039 125.104 260.883C124.742 260.727 124.449 260.485 124.225 260.158C124.001 259.832 123.889 259.422 123.889 258.928V250.858ZM132.36 261.165C131.554 261.165 130.86 260.993 130.277 260.648C129.699 260.3 129.251 259.812 128.935 259.184C128.623 258.551 128.466 257.811 128.466 256.962C128.466 256.124 128.623 255.386 128.935 254.746C129.251 254.107 129.691 253.608 130.256 253.25C130.824 252.891 131.488 252.712 132.248 252.712C132.71 252.712 133.157 252.788 133.591 252.941C134.024 253.093 134.413 253.333 134.757 253.66C135.102 253.987 135.373 254.411 135.572 254.933C135.771 255.451 135.87 256.082 135.87 256.824V257.388H129.367V256.195H134.31C134.31 255.776 134.224 255.405 134.054 255.082C133.884 254.755 133.644 254.498 133.335 254.31C133.03 254.121 132.671 254.027 132.259 254.027C131.811 254.027 131.421 254.137 131.087 254.358C130.757 254.574 130.501 254.858 130.32 255.21C130.142 255.558 130.054 255.936 130.054 256.344V257.277C130.054 257.824 130.15 258.289 130.341 258.672C130.537 259.056 130.808 259.349 131.156 259.551C131.504 259.75 131.911 259.849 132.376 259.849C132.678 259.849 132.953 259.807 133.202 259.722C133.45 259.633 133.665 259.501 133.846 259.327C134.027 259.153 134.166 258.939 134.262 258.683L135.769 258.955C135.648 259.398 135.432 259.787 135.119 260.121C134.81 260.451 134.422 260.709 133.953 260.893C133.488 261.075 132.957 261.165 132.36 261.165ZM139.23 256.142V261H137.638V252.818H139.166V254.15H139.268C139.456 253.717 139.75 253.369 140.152 253.106C140.557 252.843 141.066 252.712 141.681 252.712C142.238 252.712 142.726 252.829 143.145 253.063C143.564 253.294 143.889 253.638 144.12 254.097C144.351 254.555 144.466 255.121 144.466 255.796V261H142.874V255.988C142.874 255.395 142.719 254.931 142.41 254.597C142.101 254.26 141.677 254.091 141.137 254.091C140.768 254.091 140.439 254.171 140.152 254.331C139.868 254.491 139.642 254.725 139.475 255.034C139.312 255.339 139.23 255.709 139.23 256.142ZM150.422 252.818V254.097H145.953V252.818H150.422ZM147.151 250.858H148.744V258.598C148.744 258.907 148.79 259.139 148.882 259.295C148.975 259.448 149.094 259.553 149.239 259.61C149.388 259.663 149.55 259.69 149.724 259.69C149.852 259.69 149.964 259.681 150.059 259.663C150.155 259.645 150.23 259.631 150.283 259.62L150.571 260.936C150.478 260.972 150.347 261.007 150.177 261.043C150.006 261.082 149.793 261.103 149.537 261.107C149.118 261.114 148.728 261.039 148.366 260.883C148.003 260.727 147.71 260.485 147.487 260.158C147.263 259.832 147.151 259.422 147.151 258.928V250.858ZM152.183 261V252.818H153.776V261H152.183ZM152.988 251.556C152.711 251.556 152.473 251.463 152.274 251.279C152.079 251.091 151.981 250.867 151.981 250.608C151.981 250.345 152.079 250.121 152.274 249.936C152.473 249.748 152.711 249.654 152.988 249.654C153.265 249.654 153.501 249.748 153.696 249.936C153.895 250.121 153.995 250.345 153.995 250.608C153.995 250.867 153.895 251.091 153.696 251.279C153.501 251.463 153.265 251.556 152.988 251.556ZM159.365 261.165C158.598 261.165 157.929 260.989 157.357 260.638C156.785 260.286 156.341 259.794 156.025 259.162C155.709 258.53 155.551 257.792 155.551 256.946C155.551 256.098 155.709 255.355 156.025 254.72C156.341 254.084 156.785 253.591 157.357 253.239C157.929 252.887 158.598 252.712 159.365 252.712C160.132 252.712 160.802 252.887 161.373 253.239C161.945 253.591 162.389 254.084 162.705 254.72C163.021 255.355 163.179 256.098 163.179 256.946C163.179 257.792 163.021 258.53 162.705 259.162C162.389 259.794 161.945 260.286 161.373 260.638C160.802 260.989 160.132 261.165 159.365 261.165ZM159.371 259.828C159.868 259.828 160.28 259.697 160.606 259.434C160.933 259.171 161.174 258.821 161.331 258.385C161.491 257.948 161.57 257.467 161.57 256.941C161.57 256.419 161.491 255.94 161.331 255.503C161.174 255.062 160.933 254.709 160.606 254.443C160.28 254.176 159.868 254.043 159.371 254.043C158.87 254.043 158.454 254.176 158.124 254.443C157.797 254.709 157.554 255.062 157.394 255.503C157.238 255.94 157.16 256.419 157.16 256.941C157.16 257.467 157.238 257.948 157.394 258.385C157.554 258.821 157.797 259.171 158.124 259.434C158.454 259.697 158.87 259.828 159.371 259.828ZM166.55 256.142V261H164.957V252.818H166.486V254.15H166.587C166.775 253.717 167.07 253.369 167.471 253.106C167.876 252.843 168.386 252.712 169 252.712C169.557 252.712 170.046 252.829 170.465 253.063C170.884 253.294 171.209 253.638 171.439 254.097C171.67 254.555 171.786 255.121 171.786 255.796V261H170.193V255.988C170.193 255.395 170.039 254.931 169.73 254.597C169.421 254.26 168.996 254.091 168.457 254.091C168.087 254.091 167.759 254.171 167.471 254.331C167.187 254.491 166.962 254.725 166.795 255.034C166.631 255.339 166.55 255.709 166.55 256.142Z" fill="#2A2A2F"/>
<path d="M101.12 202H99.3729L103.299 191.091H105.2L109.126 202H107.379L104.295 193.072H104.21L101.12 202ZM101.413 197.728H107.081V199.113H101.413V197.728ZM113.505 202.16C112.844 202.16 112.255 201.991 111.736 201.654C111.221 201.313 110.816 200.828 110.522 200.2C110.23 199.567 110.085 198.809 110.085 197.925C110.085 197.041 110.232 196.284 110.527 195.656C110.825 195.027 111.234 194.546 111.752 194.212C112.271 193.879 112.858 193.712 113.515 193.712C114.023 193.712 114.431 193.797 114.74 193.967C115.053 194.134 115.294 194.33 115.465 194.553C115.639 194.777 115.774 194.974 115.87 195.145H115.966V191.091H117.558V202H116.003V200.727H115.87C115.774 200.901 115.635 201.1 115.454 201.324C115.277 201.547 115.032 201.743 114.719 201.909C114.407 202.076 114.002 202.16 113.505 202.16ZM113.856 200.801C114.314 200.801 114.701 200.681 115.017 200.439C115.337 200.194 115.578 199.855 115.742 199.422C115.909 198.989 115.992 198.484 115.992 197.909C115.992 197.341 115.911 196.844 115.747 196.418C115.584 195.991 115.344 195.659 115.028 195.422C114.712 195.184 114.321 195.065 113.856 195.065C113.377 195.065 112.977 195.189 112.658 195.438C112.338 195.686 112.097 196.025 111.933 196.455C111.773 196.885 111.694 197.369 111.694 197.909C111.694 198.456 111.775 198.948 111.939 199.385C112.102 199.821 112.343 200.168 112.663 200.423C112.986 200.675 113.384 200.801 113.856 200.801ZM122.894 202.16C122.234 202.16 121.644 201.991 121.126 201.654C120.611 201.313 120.206 200.828 119.911 200.2C119.62 199.567 119.475 198.809 119.475 197.925C119.475 197.041 119.622 196.284 119.917 195.656C120.215 195.027 120.623 194.546 121.142 194.212C121.66 193.879 122.248 193.712 122.905 193.712C123.413 193.712 123.821 193.797 124.13 193.967C124.443 194.134 124.684 194.33 124.854 194.553C125.028 194.777 125.163 194.974 125.259 195.145H125.355V191.091H126.948V202H125.392V200.727H125.259C125.163 200.901 125.025 201.1 124.844 201.324C124.666 201.547 124.421 201.743 124.109 201.909C123.796 202.076 123.391 202.16 122.894 202.16ZM123.246 200.801C123.704 200.801 124.091 200.681 124.407 200.439C124.727 200.194 124.968 199.855 125.131 199.422C125.298 198.989 125.382 198.484 125.382 197.909C125.382 197.341 125.3 196.844 125.137 196.418C124.973 195.991 124.734 195.659 124.418 195.422C124.102 195.184 123.711 195.065 123.246 195.065C122.766 195.065 122.367 195.189 122.047 195.438C121.728 195.686 121.486 196.025 121.323 196.455C121.163 196.885 121.083 197.369 121.083 197.909C121.083 198.456 121.165 198.948 121.328 199.385C121.492 199.821 121.733 200.168 122.053 200.423C122.376 200.675 122.774 200.801 123.246 200.801ZM136.366 202.154C135.634 202.154 135.004 202.021 134.475 201.755C133.949 201.489 133.544 201.126 133.26 200.668C132.976 200.207 132.834 199.685 132.834 199.102C132.834 198.658 132.926 198.264 133.111 197.92C133.296 197.572 133.553 197.25 133.883 196.956C134.214 196.661 134.595 196.364 135.028 196.066L136.786 194.825C137.085 194.63 137.317 194.424 137.484 194.207C137.651 193.987 137.734 193.715 137.734 193.392C137.734 193.136 137.624 192.891 137.404 192.657C137.184 192.423 136.889 192.305 136.52 192.305C136.264 192.305 136.039 192.368 135.843 192.492C135.652 192.616 135.501 192.776 135.391 192.971C135.284 193.163 135.231 193.365 135.231 193.578C135.231 193.827 135.298 194.077 135.433 194.33C135.572 194.582 135.749 194.843 135.966 195.113C136.183 195.379 136.41 195.656 136.648 195.944L141.714 202H139.913L135.721 197.073C135.369 196.657 135.043 196.267 134.741 195.901C134.439 195.532 134.194 195.159 134.006 194.782C133.821 194.402 133.729 193.992 133.729 193.552C133.729 193.051 133.842 192.607 134.07 192.22C134.301 191.83 134.622 191.524 135.034 191.304C135.446 191.084 135.929 190.974 136.483 190.974C137.044 190.974 137.525 191.084 137.926 191.304C138.331 191.521 138.642 191.81 138.858 192.172C139.079 192.531 139.189 192.923 139.189 193.349C139.189 193.868 139.059 194.326 138.8 194.724C138.544 195.118 138.191 195.48 137.74 195.81L135.551 197.424C135.124 197.737 134.828 198.046 134.661 198.351C134.498 198.653 134.416 198.889 134.416 199.06C134.416 199.372 134.496 199.662 134.656 199.928C134.819 200.194 135.046 200.407 135.337 200.567C135.632 200.727 135.977 200.807 136.371 200.807C136.776 200.807 137.17 200.72 137.553 200.546C137.94 200.368 138.29 200.114 138.603 199.784C138.919 199.454 139.169 199.058 139.354 198.596C139.538 198.135 139.631 197.618 139.631 197.046H141.069C141.069 197.749 140.989 198.344 140.829 198.831C140.669 199.314 140.476 199.708 140.249 200.013C140.025 200.315 139.814 200.551 139.615 200.722C139.551 200.778 139.491 200.835 139.434 200.892C139.377 200.949 139.316 201.006 139.253 201.062C138.883 201.435 138.436 201.711 137.91 201.888C137.388 202.066 136.873 202.154 136.366 202.154ZM148.524 197.142V202H146.931V193.818H148.46V195.15H148.561C148.749 194.717 149.044 194.369 149.445 194.106C149.85 193.843 150.36 193.712 150.974 193.712C151.532 193.712 152.02 193.829 152.439 194.063C152.858 194.294 153.183 194.638 153.414 195.097C153.644 195.555 153.76 196.121 153.76 196.796V202H152.167V196.988C152.167 196.395 152.013 195.931 151.704 195.597C151.395 195.26 150.97 195.091 150.431 195.091C150.061 195.091 149.733 195.171 149.445 195.331C149.161 195.491 148.936 195.725 148.769 196.034C148.605 196.339 148.524 196.709 148.524 197.142ZM159.342 202.165C158.575 202.165 157.906 201.989 157.334 201.638C156.762 201.286 156.318 200.794 156.002 200.162C155.686 199.53 155.528 198.792 155.528 197.946C155.528 197.098 155.686 196.355 156.002 195.72C156.318 195.084 156.762 194.591 157.334 194.239C157.906 193.887 158.575 193.712 159.342 193.712C160.109 193.712 160.779 193.887 161.35 194.239C161.922 194.591 162.366 195.084 162.682 195.72C162.998 196.355 163.156 197.098 163.156 197.946C163.156 198.792 162.998 199.53 162.682 200.162C162.366 200.794 161.922 201.286 161.35 201.638C160.779 201.989 160.109 202.165 159.342 202.165ZM159.348 200.828C159.845 200.828 160.257 200.697 160.583 200.434C160.91 200.171 161.152 199.821 161.308 199.385C161.468 198.948 161.547 198.467 161.547 197.941C161.547 197.419 161.468 196.94 161.308 196.503C161.152 196.062 160.91 195.709 160.583 195.443C160.257 195.176 159.845 195.043 159.348 195.043C158.847 195.043 158.431 195.176 158.101 195.443C157.774 195.709 157.531 196.062 157.371 196.503C157.215 196.94 157.137 197.419 157.137 197.941C157.137 198.467 157.215 198.948 157.371 199.385C157.531 199.821 157.774 200.171 158.101 200.434C158.431 200.697 158.847 200.828 159.348 200.828ZM164.934 202V193.818H166.473V195.118H166.559C166.708 194.678 166.971 194.331 167.347 194.079C167.727 193.824 168.157 193.696 168.636 193.696C168.735 193.696 168.853 193.699 168.988 193.706C169.126 193.713 169.234 193.722 169.312 193.733V195.256C169.249 195.239 169.135 195.219 168.972 195.198C168.808 195.173 168.645 195.161 168.482 195.161C168.105 195.161 167.77 195.24 167.475 195.4C167.184 195.556 166.953 195.775 166.782 196.055C166.612 196.332 166.527 196.648 166.527 197.004V202H164.934ZM170.691 202V193.818H172.22V195.15H172.321C172.491 194.699 172.77 194.347 173.157 194.095C173.544 193.839 174.008 193.712 174.547 193.712C175.094 193.712 175.552 193.839 175.922 194.095C176.294 194.351 176.57 194.702 176.747 195.15H176.832C177.028 194.713 177.339 194.365 177.765 194.106C178.191 193.843 178.699 193.712 179.288 193.712C180.03 193.712 180.636 193.944 181.104 194.409C181.577 194.875 181.813 195.576 181.813 196.513V202H180.22V196.663C180.22 196.109 180.069 195.707 179.767 195.459C179.466 195.21 179.105 195.086 178.686 195.086C178.168 195.086 177.765 195.246 177.477 195.565C177.189 195.881 177.046 196.288 177.046 196.785V202H175.458V196.561C175.458 196.118 175.32 195.761 175.043 195.491C174.766 195.221 174.405 195.086 173.961 195.086C173.66 195.086 173.381 195.166 173.125 195.326C172.873 195.482 172.669 195.7 172.513 195.981C172.36 196.261 172.283 196.586 172.283 196.956V202H170.691Z" fill="#2A2A2F"/>
<path d="M101.12 90H99.3729L103.299 79.0909H105.2L109.126 90H107.379L104.295 81.0724H104.21L101.12 90ZM101.413 85.728H107.081V87.1129H101.413V85.728ZM113.505 90.1598C112.844 90.1598 112.255 89.9911 111.736 89.6538C111.221 89.3129 110.816 88.8281 110.522 88.1996C110.23 87.5675 110.085 86.8093 110.085 85.9251C110.085 85.0408 110.232 84.2844 110.527 83.6559C110.825 83.0273 111.234 82.5462 111.752 82.2124C112.271 81.8786 112.858 81.7116 113.515 81.7116C114.023 81.7116 114.431 81.7969 114.74 81.9673C115.053 82.1342 115.294 82.3295 115.465 82.5533C115.639 82.777 115.774 82.9741 115.87 83.1445H115.966V79.0909H117.558V90H116.003V88.7269H115.87C115.774 88.9009 115.635 89.0998 115.454 89.3235C115.277 89.5472 115.032 89.7425 114.719 89.9094C114.407 90.0763 114.002 90.1598 113.505 90.1598ZM113.856 88.8015C114.314 88.8015 114.701 88.6808 115.017 88.4393C115.337 88.1942 115.578 87.8551 115.742 87.4219C115.909 86.9886 115.992 86.4844 115.992 85.9091C115.992 85.3409 115.911 84.8437 115.747 84.4176C115.584 83.9915 115.344 83.6594 115.028 83.4215C114.712 83.1836 114.321 83.0646 113.856 83.0646C113.377 83.0646 112.977 83.1889 112.658 83.4375C112.338 83.6861 112.097 84.0252 111.933 84.4549C111.773 84.8846 111.694 85.3693 111.694 85.9091C111.694 86.456 111.775 86.9478 111.939 87.3846C112.102 87.8214 112.343 88.1676 112.663 88.4233C112.986 88.6754 113.384 88.8015 113.856 88.8015ZM122.894 90.1598C122.234 90.1598 121.644 89.9911 121.126 89.6538C120.611 89.3129 120.206 88.8281 119.911 88.1996C119.62 87.5675 119.475 86.8093 119.475 85.9251C119.475 85.0408 119.622 84.2844 119.917 83.6559C120.215 83.0273 120.623 82.5462 121.142 82.2124C121.66 81.8786 122.248 81.7116 122.905 81.7116C123.413 81.7116 123.821 81.7969 124.13 81.9673C124.443 82.1342 124.684 82.3295 124.854 82.5533C125.028 82.777 125.163 82.9741 125.259 83.1445H125.355V79.0909H126.948V90H125.392V88.7269H125.259C125.163 88.9009 125.025 89.0998 124.844 89.3235C124.666 89.5472 124.421 89.7425 124.109 89.9094C123.796 90.0763 123.391 90.1598 122.894 90.1598ZM123.246 88.8015C123.704 88.8015 124.091 88.6808 124.407 88.4393C124.727 88.1942 124.968 87.8551 125.131 87.4219C125.298 86.9886 125.382 86.4844 125.382 85.9091C125.382 85.3409 125.3 84.8437 125.137 84.4176C124.973 83.9915 124.734 83.6594 124.418 83.4215C124.102 83.1836 123.711 83.0646 123.246 83.0646C122.766 83.0646 122.367 83.1889 122.047 83.4375C121.728 83.6861 121.486 84.0252 121.323 84.4549C121.163 84.8846 121.083 85.3693 121.083 85.9091C121.083 86.456 121.165 86.9478 121.328 87.3846C121.492 87.8214 121.733 88.1676 122.053 88.4233C122.376 88.6754 122.774 88.8015 123.246 88.8015ZM136.366 90.1545C135.634 90.1545 135.004 90.0213 134.475 89.755C133.949 89.4886 133.544 89.1264 133.26 88.6683C132.976 88.2067 132.834 87.6847 132.834 87.1023C132.834 86.6584 132.926 86.2642 133.111 85.9197C133.296 85.5717 133.553 85.2504 133.883 84.9556C134.214 84.6609 134.595 84.3643 135.028 84.0661L136.786 82.8249C137.085 82.6296 137.317 82.4237 137.484 82.207C137.651 81.9869 137.734 81.7152 137.734 81.392C137.734 81.1364 137.624 80.8913 137.404 80.657C137.184 80.4226 136.889 80.3054 136.52 80.3054C136.264 80.3054 136.039 80.3675 135.843 80.4918C135.652 80.6161 135.501 80.7759 135.391 80.9712C135.284 81.163 135.231 81.3654 135.231 81.5785C135.231 81.8271 135.298 82.0774 135.433 82.3295C135.572 82.5817 135.749 82.8427 135.966 83.1126C136.183 83.3789 136.41 83.6559 136.648 83.9435L141.714 90H139.913L135.721 85.0728C135.369 84.6573 135.043 84.2667 134.741 83.9009C134.439 83.5316 134.194 83.1587 134.006 82.7823C133.821 82.4023 133.729 81.9922 133.729 81.5518C133.729 81.0511 133.842 80.6072 134.07 80.2202C134.301 79.8295 134.622 79.5241 135.034 79.304C135.446 79.0838 135.929 78.9737 136.483 78.9737C137.044 78.9737 137.525 79.0838 137.926 79.304C138.331 79.5206 138.642 79.81 138.858 80.1722C139.079 80.5309 139.189 80.9233 139.189 81.3494C139.189 81.8679 139.059 82.326 138.8 82.7237C138.544 83.1179 138.191 83.4801 137.74 83.8104L135.551 85.4244C135.124 85.7369 134.828 86.0458 134.661 86.3512C134.498 86.6531 134.416 86.8892 134.416 87.0597C134.416 87.3722 134.496 87.6616 134.656 87.9279C134.819 88.1942 135.046 88.4073 135.337 88.5671C135.632 88.7269 135.977 88.8068 136.371 88.8068C136.776 88.8068 137.17 88.7198 137.553 88.5458C137.94 88.3683 138.29 88.1143 138.603 87.7841C138.919 87.4538 139.169 87.0579 139.354 86.5962C139.538 86.1346 139.631 85.6179 139.631 85.0462H141.069C141.069 85.7493 140.989 86.3441 140.829 86.8306C140.669 87.3136 140.476 87.7077 140.249 88.0131C140.025 88.315 139.814 88.5511 139.615 88.7216C139.551 88.7784 139.491 88.8352 139.434 88.892C139.377 88.9489 139.316 89.0057 139.253 89.0625C138.883 89.4354 138.436 89.7106 137.91 89.8881C137.388 90.0657 136.873 90.1545 136.366 90.1545ZM148.524 85.142V90H146.931V81.8182H148.46V83.1499H148.561C148.749 82.7166 149.044 82.3686 149.445 82.1058C149.85 81.843 150.36 81.7116 150.974 81.7116C151.532 81.7116 152.02 81.8288 152.439 82.0632C152.858 82.294 153.183 82.6385 153.414 83.0966C153.644 83.5547 153.76 84.1211 153.76 84.7958V90H152.167V84.9876C152.167 84.3945 152.013 83.9311 151.704 83.5973C151.395 83.2599 150.97 83.0913 150.431 83.0913C150.061 83.0913 149.733 83.1712 149.445 83.331C149.161 83.4908 148.936 83.7251 148.769 84.0341C148.605 84.3395 148.524 84.7088 148.524 85.142ZM159.342 90.1651C158.575 90.1651 157.906 89.9893 157.334 89.6378C156.762 89.2862 156.318 88.7944 156.002 88.1623C155.686 87.5302 155.528 86.7915 155.528 85.9464C155.528 85.0977 155.686 84.3555 156.002 83.7198C156.318 83.0842 156.762 82.5906 157.334 82.239C157.906 81.8874 158.575 81.7116 159.342 81.7116C160.109 81.7116 160.779 81.8874 161.35 82.239C161.922 82.5906 162.366 83.0842 162.682 83.7198C162.998 84.3555 163.156 85.0977 163.156 85.9464C163.156 86.7915 162.998 87.5302 162.682 88.1623C162.366 88.7944 161.922 89.2862 161.35 89.6378C160.779 89.9893 160.109 90.1651 159.342 90.1651ZM159.348 88.8281C159.845 88.8281 160.257 88.6967 160.583 88.4339C160.91 88.1712 161.152 87.8214 161.308 87.3846C161.468 86.9478 161.547 86.4666 161.547 85.9411C161.547 85.419 161.468 84.9396 161.308 84.5028C161.152 84.0625 160.91 83.7092 160.583 83.4428C160.257 83.1765 159.845 83.0433 159.348 83.0433C158.847 83.0433 158.431 83.1765 158.101 83.4428C157.774 83.7092 157.531 84.0625 157.371 84.5028C157.215 84.9396 157.137 85.419 157.137 85.9411C157.137 86.4666 157.215 86.9478 157.371 87.3846C157.531 87.8214 157.774 88.1712 158.101 88.4339C158.431 88.6967 158.847 88.8281 159.348 88.8281ZM164.934 90V81.8182H166.473V83.1179H166.559C166.708 82.6776 166.971 82.3313 167.347 82.0792C167.727 81.8235 168.157 81.6957 168.636 81.6957C168.735 81.6957 168.853 81.6992 168.988 81.7063C169.126 81.7134 169.234 81.7223 169.312 81.733V83.2564C169.249 83.2386 169.135 83.2191 168.972 83.1978C168.808 83.1729 168.645 83.1605 168.482 83.1605C168.105 83.1605 167.77 83.2404 167.475 83.4002C167.184 83.5565 166.953 83.7749 166.782 84.0554C166.612 84.3324 166.527 84.6484 166.527 85.0036V90H164.934ZM170.691 90V81.8182H172.22V83.1499H172.321C172.491 82.6989 172.77 82.3473 173.157 82.0952C173.544 81.8395 174.008 81.7116 174.547 81.7116C175.094 81.7116 175.552 81.8395 175.922 82.0952C176.294 82.3509 176.57 82.7024 176.747 83.1499H176.832C177.028 82.7131 177.339 82.3651 177.765 82.1058C178.191 81.843 178.699 81.7116 179.288 81.7116C180.03 81.7116 180.636 81.9442 181.104 82.4094C181.577 82.8746 181.813 83.576 181.813 84.5135V90H180.22V84.6626C180.22 84.1087 180.069 83.7074 179.767 83.4588C179.466 83.2102 179.105 83.0859 178.686 83.0859C178.168 83.0859 177.765 83.2457 177.477 83.5653C177.189 83.8814 177.046 84.288 177.046 84.7852V90H175.458V84.5614C175.458 84.1175 175.32 83.7607 175.043 83.4908C174.766 83.2209 174.405 83.0859 173.961 83.0859C173.66 83.0859 173.381 83.1658 173.125 83.3256C172.873 83.4819 172.669 83.7003 172.513 83.9808C172.36 84.2614 172.283 84.5863 172.283 84.9556V90H170.691Z" fill="#2A2A2F"/>
</svg>
